if (_typeface_js && _typeface_js.loadFace) _typeface_js.loadFace({"glyphs":{"S":{"x_min":117.921875,"x_max":666.375,"ha":766,"o":"m 650 211 l 666 187 l 663 194 l 638 119 l 638 108 l 633 108 l 620 72 l 620 66 l 609 54 l 612 47 l 583 36 l 560 6 l 538 -5 l 519 0 l 502 0 l 494 -5 l 427 -12 l 397 -30 l 378 -19 l 358 0 l 306 -5 l 269 25 l 250 36 l 212 11 l 212 0 l 146 0 l 136 11 l 117 47 l 130 89 l 122 119 l 122 132 l 130 132 l 141 167 l 130 240 l 130 296 l 141 314 l 182 308 l 182 301 l 224 278 l 224 248 l 240 194 l 253 194 l 253 180 l 294 144 l 306 144 l 312 119 l 378 97 l 383 102 l 397 89 l 418 89 l 427 97 l 427 108 l 483 115 l 505 149 l 532 163 l 532 174 l 555 196 l 549 205 l 567 236 l 555 258 l 579 285 l 579 289 l 573 296 l 579 296 l 583 301 l 573 319 l 579 328 l 555 350 l 555 357 l 538 361 l 464 392 l 443 392 l 427 404 l 418 400 l 346 400 l 306 422 l 287 417 l 266 417 l 258 422 l 240 459 l 212 465 l 176 508 l 169 514 l 159 514 l 164 520 l 146 549 l 146 572 l 130 598 l 130 641 l 117 650 l 136 663 l 136 680 l 146 680 l 159 694 l 151 701 l 164 710 l 164 733 l 169 723 l 195 741 l 195 761 l 224 779 l 240 771 l 269 792 l 278 784 l 312 808 l 317 803 l 342 822 l 378 808 l 389 803 l 401 792 l 460 784 l 494 766 l 515 766 l 519 749 l 555 719 l 560 719 l 567 761 l 573 792 l 609 792 l 625 779 l 633 736 l 625 736 l 604 694 l 620 663 l 612 641 l 625 627 l 620 560 l 604 543 l 591 543 l 573 585 l 567 580 l 567 598 l 549 616 l 544 645 l 538 641 l 532 671 l 519 677 l 502 689 l 494 689 l 489 680 l 489 689 l 476 694 l 460 706 l 455 701 l 418 736 l 389 733 l 389 736 l 367 741 l 346 741 l 323 733 l 317 723 l 328 710 l 287 694 l 250 701 l 250 706 l 236 719 l 228 719 l 228 701 l 236 694 l 224 680 l 224 663 l 212 650 l 206 621 l 224 590 l 212 580 l 218 543 l 240 520 l 282 500 l 287 508 l 312 491 l 312 482 l 317 478 l 323 478 l 328 482 l 354 494 l 358 491 l 372 500 l 476 459 l 532 465 l 555 447 l 583 392 l 596 392 l 596 386 l 620 380 l 638 339 l 633 330 l 655 308 l 663 285 l 655 285 l 655 223 l 663 217 l 655 217 l 650 211 "},"/":{"x_min":-13.4375,"x_max":742.78125,"ha":766,"o":"m 700 1013 l 712 1013 l 742 975 l 731 908 l 742 896 l 726 875 l 696 850 l 700 843 l 677 824 l 672 789 l 655 758 l 649 764 l 622 742 l 622 672 l 590 643 l 560 582 l 541 572 l 541 564 l 549 559 l 541 559 l 531 546 l 531 529 l 506 500 l 506 491 l 511 486 l 506 486 l 500 473 l 481 455 l 489 450 l 481 450 l 476 430 l 463 408 l 430 365 l 422 348 l 422 339 l 412 330 l 412 310 l 383 259 l 374 259 l 364 245 l 364 240 l 369 232 l 334 180 l 328 167 l 303 136 l 303 111 l 299 89 l 299 75 l 293 81 l 269 52 l 269 46 l 274 39 l 253 17 l 228 -52 l 228 -62 l 192 -112 l 184 -130 l 162 -160 l 151 -202 l 132 -238 l 109 -250 l 86 -255 l 21 -285 l 21 -281 l -1 -274 l 2 -268 l -8 -255 l -8 -232 l -1 -225 l -13 -213 l 2 -160 l 21 -141 l 26 -112 l 62 -69 l 62 -44 l 66 -44 l 75 -21 l 104 22 l 120 64 l 146 89 l 180 167 l 184 180 l 192 180 l 198 189 l 208 228 l 206 232 l 228 245 l 222 250 l 245 293 l 245 305 l 263 310 l 269 310 l 293 365 l 315 391 l 323 426 l 340 444 l 334 450 l 374 502 l 388 553 l 440 619 l 446 650 l 472 686 l 472 699 l 481 699 l 489 711 l 506 753 l 524 764 l 524 771 l 518 777 l 531 777 l 541 789 l 536 824 l 552 853 l 560 850 l 595 896 l 595 914 l 649 970 l 655 970 l 672 986 l 672 1006 l 684 1017 l 700 1013 "},"y":{"x_min":66.296875,"x_max":692,"ha":766,"o":"m 332 571 l 362 555 l 357 536 l 332 541 l 315 555 l 297 555 l 332 571 m 692 546 l 692 516 l 682 505 l 671 516 l 646 516 l 652 524 l 640 529 l 624 529 l 612 494 l 604 494 l 599 485 l 599 476 l 594 476 l 575 455 l 582 426 l 582 408 l 575 408 l 562 359 l 543 348 l 552 305 l 543 305 l 527 251 l 515 234 l 515 227 l 521 221 l 505 197 l 481 166 l 487 152 l 487 136 l 481 136 l 464 83 l 468 58 l 457 45 l 468 33 l 464 16 l 438 -44 l 438 -66 l 403 -117 l 392 -127 l 396 -136 l 392 -136 l 386 -147 l 386 -165 l 380 -165 l 367 -177 l 367 -182 l 375 -187 l 367 -187 l 362 -197 l 362 -208 l 357 -200 l 349 -200 l 332 -219 l 291 -243 l 250 -243 l 226 -255 l 200 -255 l 189 -243 l 138 -230 l 121 -208 l 114 -213 l 114 -200 l 102 -187 l 102 -197 l 92 -197 l 92 -187 l 94 -187 l 102 -182 l 84 -170 l 84 -147 l 78 -141 l 66 -88 l 92 -19 l 108 -1 l 121 -1 l 121 0 l 115 5 l 121 10 l 125 3 l 138 22 l 172 16 l 179 10 l 198 10 l 214 -6 l 209 -13 l 243 -75 l 238 -75 l 198 -117 l 198 -136 l 238 -152 l 250 -165 l 285 -127 l 307 -117 l 332 -66 l 329 -62 l 349 -35 l 375 -6 l 380 27 l 367 33 l 375 33 l 375 63 l 367 99 l 345 113 l 345 119 l 338 123 l 332 179 l 303 221 l 303 227 l 307 234 l 291 251 l 303 263 l 275 316 l 275 342 l 269 403 l 260 408 l 250 408 l 250 420 l 232 438 l 226 469 l 209 499 l 209 516 l 184 526 l 94 526 l 92 555 l 84 555 l 125 577 l 189 558 l 219 571 l 243 577 l 243 571 l 250 566 l 255 566 l 269 577 l 269 571 l 279 566 l 279 524 l 275 516 l 285 494 l 275 480 l 285 469 l 279 414 l 297 403 l 320 313 l 329 293 l 332 299 l 332 287 l 357 274 l 367 239 l 367 234 l 362 227 l 375 213 l 375 191 l 386 161 l 396 161 l 392 144 l 403 130 l 427 144 l 446 161 l 438 166 l 451 179 l 457 221 l 464 251 l 464 269 l 468 269 l 492 342 l 511 359 l 511 394 l 534 438 l 527 446 l 541 469 l 543 494 l 521 526 l 468 526 l 457 536 l 451 571 l 464 584 l 481 577 l 534 566 l 552 566 l 552 558 l 557 555 l 575 555 l 582 558 l 612 558 l 628 546 l 658 546 l 671 558 l 682 546 l 692 546 "},"Á":{"x_min":76.1875,"x_max":690,"ha":766,"o":"m 690 266 l 690 210 l 684 180 l 674 161 l 674 85 l 656 21 l 648 13 l 607 6 l 552 -21 l 472 -21 l 454 -15 l 284 -15 l 201 -15 l 172 -30 l 136 -19 l 92 -1 l 78 13 l 81 41 l 144 96 l 163 103 l 181 150 l 175 208 l 170 238 l 184 353 l 190 366 l 185 394 l 201 419 l 184 505 l 184 598 l 181 610 l 181 621 l 198 644 l 190 665 l 129 724 l 92 706 l 81 717 l 76 767 l 103 794 l 155 822 l 255 822 l 367 822 l 397 805 l 484 820 l 529 806 l 570 806 l 601 786 l 624 786 l 659 747 l 659 699 l 667 688 l 653 610 l 620 585 l 588 588 l 558 613 l 570 653 l 566 680 l 533 709 l 503 702 l 449 717 l 438 709 l 400 717 l 364 702 l 326 712 l 291 680 l 302 606 l 302 505 l 294 494 l 294 485 l 343 455 l 412 467 l 430 477 l 462 474 l 481 453 l 584 453 l 630 401 l 653 372 l 672 292 l 690 266 m 558 122 l 584 210 l 584 280 l 566 338 l 529 372 l 518 372 l 462 366 l 411 377 l 397 369 l 321 369 l 305 353 l 305 242 l 294 219 l 310 187 l 307 183 l 324 127 l 364 115 l 381 150 l 389 150 l 393 147 l 411 122 l 443 96 l 481 91 l 509 109 l 529 115 l 552 115 l 558 122 "},"g":{"x_min":66.90625,"x_max":705.25,"ha":766,"o":"m 698 -27 l 705 -66 l 693 -80 l 693 -97 l 689 -97 l 675 -109 l 664 -170 l 659 -165 l 638 -187 l 634 -183 l 615 -183 l 609 -197 l 604 -197 l 592 -207 l 580 -199 l 564 -199 l 558 -207 l 510 -242 l 490 -230 l 468 -238 l 473 -242 l 456 -248 l 443 -260 l 362 -242 l 332 -255 l 307 -255 l 285 -229 l 231 -229 l 236 -219 l 201 -213 l 191 -199 l 185 -207 l 147 -183 l 144 -187 l 125 -183 l 118 -165 l 90 -147 l 90 -141 l 95 -136 l 90 -127 l 76 -92 l 66 -75 l 71 -33 l 71 -19 l 85 -6 l 85 22 l 101 58 l 95 63 l 95 70 l 105 83 l 101 113 l 90 144 l 95 150 l 95 161 l 90 166 l 90 214 l 125 269 l 173 269 l 191 283 l 191 313 l 173 330 l 177 336 l 173 342 l 173 426 l 166 433 l 215 505 l 219 505 l 261 546 l 272 546 l 279 555 l 272 550 l 269 558 l 279 555 l 295 584 l 338 601 l 349 590 l 383 597 l 401 597 l 432 572 l 451 572 l 456 577 l 473 558 l 481 566 l 487 546 l 515 525 l 532 529 l 545 558 l 558 572 l 575 572 l 580 577 l 609 590 l 650 584 l 664 555 l 689 536 l 693 516 l 693 463 l 689 455 l 689 447 l 675 447 l 669 438 l 634 420 l 604 449 l 609 455 l 592 500 l 580 500 l 580 505 l 558 505 l 545 476 l 545 469 l 542 463 l 550 449 l 564 394 l 564 365 l 558 359 l 564 355 l 550 324 l 558 316 l 532 305 l 520 287 l 510 257 l 461 234 l 468 228 l 427 205 l 362 197 l 303 208 l 272 240 l 267 240 l 253 228 l 224 228 l 215 214 l 166 166 l 185 150 l 191 152 l 215 144 l 219 124 l 272 124 l 307 150 l 332 150 l 338 152 l 338 150 l 392 144 l 409 144 l 427 161 l 432 161 l 443 150 l 451 152 l 461 144 l 468 150 l 503 119 l 510 119 l 515 131 l 592 131 l 646 94 l 659 94 l 675 54 l 689 3 l 689 -19 l 698 -27 m 490 316 l 503 342 l 498 359 l 490 415 l 503 438 l 490 449 l 498 455 l 481 476 l 468 480 l 401 525 l 381 510 l 338 529 l 307 525 l 279 505 l 267 469 l 261 426 l 272 372 l 285 359 l 285 342 l 279 336 l 272 299 l 285 287 l 291 283 l 291 275 l 313 275 l 321 283 l 326 275 l 413 275 l 490 316 m 575 -75 l 592 -33 l 575 3 l 570 -1 l 550 -1 l 520 22 l 520 28 l 503 28 l 473 33 l 456 17 l 438 17 l 422 46 l 343 33 l 343 22 l 338 17 l 313 17 l 303 42 l 291 42 l 272 28 l 219 22 l 215 3 l 191 -6 l 185 -35 l 207 -44 l 207 -50 l 219 -50 l 224 -57 l 215 -80 l 219 -89 l 219 -92 l 224 -92 l 243 -105 l 285 -109 l 291 -127 l 338 -122 l 349 -141 l 372 -136 l 413 -136 l 427 -122 l 456 -118 l 473 -127 l 490 -118 l 498 -109 l 503 -118 l 520 -118 l 558 -92 l 558 -89 l 575 -80 l 575 -75 m 422 -14 l 422 -19 l 409 -19 l 413 -14 l 422 -14 "},"²":{"x_min":106.203125,"x_max":692.640625,"ha":766,"o":"m 650 97 l 692 51 l 658 -1 l 628 -25 l 579 -25 l 485 -25 l 485 -22 l 401 -22 l 391 -27 l 373 -27 l 362 -13 l 338 -22 l 338 -27 l 321 -27 l 324 -22 l 307 -9 l 261 -22 l 243 -13 l 206 -27 l 193 -22 l 171 -1 l 125 -1 l 118 39 l 106 46 l 113 64 l 113 68 l 164 89 l 193 95 l 214 95 l 261 111 l 283 111 l 295 97 l 302 106 l 313 97 l 321 95 l 332 111 l 324 120 l 332 120 l 338 142 l 338 184 l 332 240 l 338 240 l 338 258 l 332 260 l 343 274 l 343 321 l 350 330 l 350 338 l 338 352 l 350 382 l 343 407 l 343 563 l 354 600 l 343 610 l 350 642 l 354 649 l 343 661 l 343 692 l 290 699 l 279 699 l 266 686 l 272 680 l 253 680 l 253 686 l 193 692 l 154 699 l 129 722 l 129 771 l 135 771 l 141 776 l 176 797 l 272 797 l 266 792 l 338 792 l 354 800 l 420 800 l 461 794 l 472 805 l 510 813 l 526 800 l 560 805 l 645 794 l 645 789 l 658 776 l 650 733 l 628 711 l 609 711 l 560 692 l 549 703 l 544 699 l 532 711 l 504 699 l 504 692 l 490 692 l 472 711 l 444 699 l 438 699 l 438 671 l 450 632 l 444 600 l 438 593 l 450 577 l 444 563 l 444 305 l 461 208 l 456 202 l 461 197 l 482 111 l 516 120 l 532 120 l 532 108 l 586 108 l 650 97 "},"–":{"x_min":-76.21875,"x_max":854.78125,"ha":766,"o":"m 841 327 l 854 327 l 841 239 l 816 207 l 786 197 l 770 197 l 758 184 l 752 184 l 745 191 l 740 184 l 646 204 l 567 197 l 555 207 l 532 197 l 472 204 l 453 187 l 307 187 l 247 204 l 230 191 l 212 202 l -4 202 l -54 227 l -76 250 l -63 327 l -10 364 l 43 364 l 63 371 l 72 377 l 95 371 l 206 358 l 212 354 l 223 354 l 230 358 l 261 365 l 541 365 l 651 354 l 669 361 l 770 361 l 794 354 l 805 341 l 812 345 l 824 332 l 838 345 l 841 341 l 835 335 l 841 327 "},"ë":{"x_min":58.140625,"x_max":680,"ha":766,"o":"m 680 540 l 680 514 l 598 459 l 571 469 l 562 450 l 562 401 l 547 372 l 547 275 l 544 248 l 555 169 l 544 136 l 547 108 l 547 97 l 571 81 l 598 81 l 617 69 l 634 69 l 634 3 l 583 -18 l 529 -18 l 494 3 l 473 -4 l 446 3 l 419 3 l 401 11 l 380 11 l 352 38 l 352 66 l 370 81 l 383 69 l 407 69 l 419 89 l 411 107 l 411 117 l 458 122 l 473 136 l 473 150 l 453 178 l 453 197 l 441 205 l 441 255 l 435 263 l 443 293 l 481 322 l 492 335 l 465 385 l 407 429 l 392 429 l 388 413 l 398 354 l 383 354 l 370 374 l 370 385 l 356 394 l 343 391 l 326 366 l 318 298 l 318 234 l 346 208 l 352 197 l 343 179 l 307 164 l 300 153 l 300 126 l 302 122 l 302 108 l 271 86 l 266 35 l 198 0 l 146 0 l 97 24 l 81 30 l 70 41 l 58 114 l 84 158 l 84 164 l 97 178 l 152 172 l 180 122 l 198 114 l 243 123 l 250 141 l 250 179 l 263 194 l 266 227 l 274 284 l 285 322 l 279 383 l 297 419 l 282 455 l 255 479 l 245 478 l 235 478 l 220 497 l 198 514 l 173 514 l 162 525 l 165 550 l 198 568 l 331 568 l 347 575 l 388 540 l 407 566 l 462 579 l 544 579 l 563 569 l 598 586 l 655 566 l 680 540 m 398 450 l 407 450 l 407 462 l 398 462 l 398 450 "},"Î":{"x_min":73.140625,"x_max":710,"ha":766,"o":"m 710 418 l 710 301 l 695 230 l 661 133 l 623 89 l 563 4 l 515 -13 l 489 -32 l 450 -44 l 297 -44 l 268 -19 l 236 -13 l 214 8 l 211 28 l 187 46 l 179 46 l 169 69 l 161 97 l 104 194 l 73 330 l 81 369 l 73 422 l 86 452 l 99 468 l 99 508 l 107 527 l 115 588 l 146 633 l 164 674 l 181 699 l 203 749 l 249 774 l 268 808 l 317 820 l 334 827 l 372 827 l 388 838 l 481 830 l 506 810 l 533 815 l 626 722 l 655 656 l 672 633 l 698 491 l 698 462 l 710 418 m 612 295 l 617 330 l 607 347 l 607 388 l 615 486 l 607 513 l 594 569 l 570 598 l 544 638 l 478 680 l 443 686 l 386 704 l 343 683 l 317 647 l 290 654 l 277 644 l 277 616 l 263 598 l 240 580 l 231 561 l 231 505 l 214 472 l 205 436 l 205 327 l 222 263 l 243 219 l 252 186 l 315 100 l 343 89 l 398 89 l 452 80 l 533 138 l 552 165 l 570 230 l 612 295 "},"e":{"x_min":108,"x_max":640.4375,"ha":766,"o":"m 628 377 l 640 359 l 635 352 l 635 336 l 628 336 l 622 309 l 622 305 l 628 299 l 622 269 l 577 269 l 577 274 l 564 280 l 548 280 l 504 250 l 462 280 l 403 260 l 387 240 l 374 240 l 374 258 l 356 269 l 280 260 l 243 250 l 221 260 l 204 244 l 221 214 l 207 203 l 225 179 l 221 172 l 243 129 l 280 111 l 280 106 l 339 80 l 356 64 l 390 64 l 390 58 l 398 51 l 428 68 l 474 68 l 493 80 l 509 119 l 539 136 l 577 172 l 599 179 l 622 150 l 619 119 l 593 88 l 581 64 l 548 39 l 528 16 l 458 2 l 439 -14 l 410 -14 l 398 -27 l 382 -22 l 361 -9 l 280 -1 l 238 27 l 238 39 l 233 46 l 221 46 l 221 58 l 204 68 l 196 74 l 191 106 l 161 129 l 145 158 l 137 203 l 131 269 l 108 305 l 108 330 l 124 336 l 137 359 l 137 408 l 145 408 l 167 455 l 167 469 l 204 500 l 251 522 l 251 541 l 280 558 l 285 552 l 302 572 l 314 558 l 327 575 l 410 575 l 493 558 l 504 546 l 522 546 l 522 534 l 528 529 l 548 529 l 559 500 l 593 469 l 593 449 l 619 401 l 635 383 l 628 377 m 472 339 l 472 438 l 444 480 l 439 500 l 433 486 l 428 486 l 420 491 l 420 500 l 387 491 l 374 480 l 368 486 l 368 491 l 356 491 l 352 500 l 352 503 l 327 503 l 311 486 l 314 460 l 302 449 l 298 413 q 280 383 298 406 l 262 372 l 256 365 l 267 336 l 280 330 l 280 322 l 298 322 l 327 316 l 356 333 l 371 339 l 382 336 l 398 316 l 410 330 l 420 330 l 433 348 l 439 339 l 472 339 "},"Ã":{"x_min":44,"x_max":805.890625,"ha":766,"o":"m 781 764 l 805 733 l 797 640 l 795 630 l 786 625 l 778 625 l 740 705 l 721 713 l 694 707 l 680 693 l 694 652 l 677 616 l 658 579 l 615 558 l 579 566 l 563 611 l 531 625 l 531 649 l 536 660 l 533 680 l 503 705 l 443 685 l 443 591 l 433 561 l 433 476 l 425 429 l 433 400 l 433 333 l 440 252 l 425 147 l 425 130 l 430 111 l 476 77 l 498 68 l 526 39 l 550 39 l 550 22 l 509 9 l 443 -25 l 397 -25 l 381 -32 l 345 -32 l 324 -19 l 288 -30 l 215 -16 l 188 -30 l 118 -30 l 72 0 l 44 39 l 44 65 l 109 102 l 141 111 l 190 176 l 179 269 l 198 305 l 190 361 l 196 415 l 196 450 l 188 468 l 198 558 l 188 594 l 188 669 l 160 698 l 100 698 l 67 764 l 67 808 l 76 820 l 126 820 l 144 828 l 198 828 l 204 833 l 245 825 l 285 833 l 395 823 l 509 823 l 524 828 l 573 819 l 615 819 l 699 781 l 716 779 l 724 764 l 732 755 l 769 764 l 781 764 m 379 333 l 395 372 l 387 415 l 395 433 l 379 494 l 379 561 l 370 597 l 376 642 l 353 680 l 340 680 l 332 660 l 336 647 l 336 602 l 321 566 l 332 529 l 320 505 l 320 226 l 307 188 l 315 161 l 307 123 l 315 111 l 336 105 l 365 115 l 365 170 l 370 186 l 376 241 l 370 282 l 379 333 "},"J":{"x_min":101,"x_max":721.0625,"ha":766,"o":"m 703 785 l 721 753 l 708 741 l 715 736 l 699 689 l 687 689 l 680 680 l 661 672 l 628 677 l 620 672 l 598 651 l 580 664 l 568 664 l 555 590 l 555 491 l 568 477 l 553 429 l 553 380 l 539 330 l 553 301 l 539 288 l 542 284 l 542 205 l 542 109 l 527 109 l 493 72 l 493 47 l 463 30 l 443 7 l 432 7 l 420 -12 l 413 -5 l 395 -22 l 391 -22 l 383 -19 l 378 -22 l 378 -33 l 277 -33 l 241 -19 l 183 17 l 167 17 l 171 25 l 147 36 l 136 72 l 113 109 l 117 115 l 113 119 l 101 187 l 101 197 l 107 197 l 117 210 l 117 258 l 123 258 l 129 284 l 157 313 l 201 319 l 235 327 l 235 319 l 241 313 l 247 319 l 272 308 l 277 301 l 295 266 l 290 248 l 302 235 l 290 223 l 295 216 l 277 195 l 272 195 l 263 197 l 255 187 l 225 197 l 201 197 l 188 187 l 188 150 l 196 144 l 212 97 l 241 67 l 247 67 l 263 47 l 272 54 l 324 59 l 332 67 l 344 47 l 349 47 l 353 54 l 395 59 l 432 86 l 424 89 l 463 139 l 463 144 l 456 150 l 463 150 l 472 195 l 456 210 l 463 228 l 472 271 l 472 277 l 469 271 l 463 277 l 466 284 l 472 277 l 479 284 l 466 308 l 472 356 l 463 369 l 463 391 l 456 399 l 466 513 l 456 530 l 443 611 l 456 622 l 450 627 l 456 633 l 438 677 l 408 672 l 408 677 l 378 680 l 372 677 l 353 672 l 349 672 l 337 680 l 332 677 l 295 711 l 290 753 l 308 766 l 308 779 l 318 792 l 337 792 l 344 797 l 372 803 l 378 803 l 391 792 l 408 808 l 438 808 l 443 814 l 463 808 l 479 808 l 479 803 l 501 797 l 510 792 l 532 806 l 598 806 l 648 792 l 669 797 l 703 785 "},"»":{"x_min":-5.546875,"x_max":737.4375,"ha":766,"o":"m 59 -25 l 16 7 l -5 64 l 38 85 l 38 128 l 81 124 l 135 149 l 135 184 l 184 196 l 233 216 l 288 274 l 282 321 l 252 338 l 184 391 l 126 409 l 106 459 l 43 465 l 35 490 l 16 536 l 38 596 l 65 610 l 95 610 l 190 560 l 233 532 l 240 501 l 271 485 l 286 457 l 367 405 l 388 405 l 440 335 l 418 268 l 367 221 l 342 164 l 293 160 l 271 117 l 233 74 l 195 64 l 198 32 l 190 27 l 190 10 l 167 3 l 133 10 l 126 -39 l 59 -25 m 356 -25 l 312 7 l 290 64 l 336 85 l 336 128 l 378 124 l 431 149 l 431 184 l 481 196 l 530 216 l 585 274 l 579 321 l 549 338 l 481 391 l 424 409 l 402 459 l 340 465 l 331 490 l 312 536 l 334 596 l 361 610 l 391 610 l 487 560 l 530 532 l 538 501 l 568 485 l 583 457 l 663 405 l 687 405 l 737 335 l 715 268 l 663 221 l 639 164 l 590 160 l 568 117 l 530 74 l 492 64 l 495 32 l 487 27 l 487 10 l 463 3 l 429 10 l 424 -39 l 356 -25 "},"‐":{"x_min":32.84375,"x_max":743.34375,"ha":766,"o":"m 220 420 l 261 408 l 269 404 l 279 404 l 286 408 l 315 415 l 487 415 l 541 404 l 558 411 l 658 411 l 683 404 l 694 391 l 701 394 l 713 383 l 727 394 l 729 391 l 724 386 l 729 378 l 743 378 l 735 283 l 729 240 l 705 208 l 675 197 l 658 197 l 646 185 l 641 185 l 634 191 l 629 185 l 535 205 l 511 197 l 498 208 l 476 197 l 416 205 l 397 185 l 362 191 l 303 205 l 286 191 l 269 203 l 121 203 l 70 228 l 50 251 l 41 294 l 41 314 l 32 325 l 61 378 l 114 415 l 168 415 l 190 420 l 198 426 l 220 420 "},"ò":{"x_min":65.25,"x_max":603,"ha":766,"o":"m 603 463 l 603 336 l 589 324 l 555 324 l 538 336 l 528 336 l 498 298 l 479 298 l 471 345 l 494 377 l 494 411 l 456 432 l 438 425 l 393 443 l 384 388 l 416 327 l 413 327 l 409 324 l 397 336 l 391 330 l 391 292 l 399 268 l 399 216 l 399 171 l 379 146 l 379 110 l 413 66 l 482 66 l 482 -7 l 473 -19 l 407 -31 l 373 -50 l 327 -42 l 301 -31 l 263 -31 l 243 -17 l 215 -17 l 206 -4 l 206 32 l 261 77 l 275 85 l 296 128 l 296 268 l 275 298 l 275 333 l 272 336 l 253 330 l 237 348 l 263 377 l 263 435 l 237 449 l 207 449 l 174 443 l 162 406 l 158 382 l 128 345 l 78 352 l 65 366 l 70 415 l 78 454 l 78 521 l 110 569 l 162 574 l 180 580 l 210 577 l 234 566 l 319 574 l 337 566 l 362 579 l 419 579 l 433 587 l 471 577 l 552 566 l 582 539 l 603 518 l 603 463 "},"^":{"x_min":105.234375,"x_max":605,"ha":766,"o":"m 542 969 l 605 919 l 605 841 l 561 824 l 531 828 l 464 884 l 441 919 l 384 962 l 346 969 l 324 1005 l 264 988 l 259 980 l 225 999 l 225 933 l 199 878 l 155 835 l 121 849 l 105 901 l 185 1021 l 207 1030 l 235 1064 l 329 1144 l 370 1130 l 376 1138 l 435 1120 l 482 1070 l 512 1009 l 542 988 l 542 969 "},"«":{"x_min":12.359375,"x_max":759.546875,"ha":766,"o":"m 393 613 l 438 580 l 459 523 l 414 502 l 414 459 l 373 463 l 319 438 l 319 403 l 266 391 l 219 371 l 164 313 l 170 266 l 201 249 l 266 196 l 327 179 l 347 129 l 409 122 l 416 97 l 438 51 l 415 -8 l 386 -22 l 358 -22 l 264 27 l 219 55 l 212 86 l 181 102 l 166 130 l 87 183 l 62 183 l 12 252 l 32 319 l 87 366 l 110 423 l 158 427 l 181 470 l 219 513 l 256 523 l 256 555 l 264 560 l 264 577 l 286 584 l 319 577 l 327 627 l 393 613 m 694 607 l 737 574 l 759 518 l 716 496 l 716 455 l 672 459 l 621 432 l 618 399 l 569 388 l 520 366 l 465 309 l 471 263 l 501 245 l 569 191 l 627 174 l 648 124 l 710 118 l 718 91 l 737 47 l 716 -12 l 688 -28 l 659 -28 l 564 22 l 520 51 l 513 83 l 482 97 l 467 126 l 386 179 l 365 179 l 313 248 l 335 313 l 386 362 l 411 419 l 460 423 l 482 466 l 520 507 l 558 518 l 555 552 l 564 555 l 564 571 l 587 580 l 621 571 l 627 621 l 694 607 "},"D":{"x_min":40.75,"x_max":745.890625,"ha":766,"o":"m 732 459 l 745 436 l 735 404 l 735 308 l 732 308 l 732 284 l 726 288 l 721 252 l 721 240 l 715 240 l 703 194 l 696 175 l 691 168 l 691 158 l 661 127 l 666 119 l 649 103 l 655 97 l 645 97 l 637 89 l 637 72 l 607 59 l 544 0 l 513 0 l 500 -12 l 438 -12 l 424 -22 l 412 -22 l 399 -12 l 367 -30 l 336 -5 l 312 -19 l 235 -19 l 212 -22 l 187 -30 l 183 -35 l 183 -30 l 174 -22 l 157 -22 l 162 -19 l 128 -19 l 123 -20 l 81 -20 l 81 -12 l 65 -5 l 40 30 l 53 54 l 53 72 l 97 98 l 157 98 l 203 89 l 223 89 l 235 108 l 230 168 l 242 181 l 242 258 l 235 328 l 242 361 l 247 369 l 247 375 l 242 381 l 242 469 l 253 549 l 253 616 l 272 633 l 272 641 l 258 645 l 247 658 l 230 688 l 230 711 l 203 711 l 187 701 l 170 711 l 97 719 l 75 723 l 65 735 l 69 766 l 86 802 l 110 808 l 116 814 l 140 802 l 174 821 l 217 814 l 235 827 l 235 821 l 258 808 l 360 808 l 367 814 l 367 808 l 412 802 l 419 784 l 438 791 l 467 779 l 472 784 l 472 779 l 489 779 l 500 791 l 518 784 l 518 779 l 599 752 l 607 733 l 627 733 l 620 723 l 649 711 l 674 645 l 677 616 l 696 580 l 715 561 l 721 561 l 732 537 l 732 459 m 649 392 l 655 447 l 632 465 l 632 477 l 634 481 l 634 520 l 634 572 l 627 569 l 615 580 l 590 641 l 544 688 l 508 694 l 489 711 l 467 706 l 467 701 l 438 694 l 419 711 l 408 711 l 389 719 l 378 664 l 369 664 l 367 680 l 360 688 l 360 701 l 367 706 l 369 701 l 367 719 l 353 706 l 347 645 l 323 590 l 336 590 l 341 585 l 341 580 l 347 555 l 336 542 l 336 491 l 347 469 l 336 447 l 341 447 l 347 392 l 336 381 l 331 381 l 333 375 l 333 223 l 347 139 l 336 115 l 378 115 l 389 103 l 395 108 l 438 103 l 454 98 l 489 108 l 518 139 l 531 139 l 531 150 l 547 164 l 555 181 l 572 181 l 599 197 l 599 216 l 585 235 l 585 252 l 599 266 l 601 272 l 615 272 l 607 277 l 607 284 l 620 295 l 615 301 l 634 320 l 634 375 l 649 392 m 430 361 l 438 320 l 424 320 l 419 314 l 378 308 l 367 320 l 360 320 l 369 330 l 369 361 l 378 361 l 378 375 l 424 369 l 430 361 "},"ÿ":{"x_min":63,"x_max":724.171875,"ha":766,"o":"m 690 58 l 724 38 l 718 21 l 690 -24 l 688 -33 l 664 -44 l 626 -36 l 589 -47 l 569 -25 l 552 -25 l 539 -42 l 516 -42 l 493 -20 l 430 -20 l 417 -7 l 390 -22 l 335 24 l 330 35 l 330 41 l 370 65 l 439 73 l 466 82 l 485 102 l 471 196 l 480 225 l 480 242 l 471 249 l 399 242 l 355 207 l 319 233 l 272 183 l 261 104 l 280 55 l 289 46 l 289 35 l 202 -24 l 125 -24 l 92 0 l 63 38 l 63 93 l 92 120 l 136 120 l 155 73 l 182 73 l 192 85 l 192 236 l 202 254 l 202 276 l 152 332 l 136 425 l 149 481 l 226 555 l 253 560 l 347 574 l 410 569 l 428 560 l 490 577 l 516 572 l 601 572 l 615 580 l 646 577 l 680 558 l 698 531 l 692 510 l 637 446 l 601 463 l 589 457 l 574 428 l 569 362 l 544 329 l 560 207 l 552 168 l 560 102 l 569 77 l 569 73 l 574 65 l 620 65 l 652 85 l 675 79 l 690 58 m 463 382 l 474 443 l 466 463 l 417 463 l 399 468 l 365 472 l 335 463 l 293 468 l 280 463 l 253 425 l 244 382 l 269 347 l 293 332 l 345 342 l 370 324 l 447 324 l 466 329 l 471 342 l 463 382 "},"í":{"x_min":112,"x_max":701.328125,"ha":766,"o":"m 678 558 l 701 535 l 693 500 l 678 482 l 636 482 l 602 473 l 595 455 l 595 350 l 604 333 l 604 316 l 595 302 l 595 234 l 585 182 l 571 133 l 592 117 l 592 74 l 621 53 l 656 36 l 667 39 l 683 25 l 683 3 l 675 -5 l 592 -5 l 558 -19 l 522 -8 l 478 -8 l 451 28 l 457 39 l 487 62 l 495 56 l 511 56 l 524 74 l 524 139 l 524 219 l 514 250 l 511 251 l 501 251 l 487 239 l 457 250 l 422 219 l 383 247 l 318 239 l 301 258 l 278 241 l 267 229 l 278 164 l 267 108 l 275 47 l 285 36 l 313 56 l 342 22 l 342 10 l 321 -2 l 264 -10 l 142 3 l 112 10 l 112 36 l 139 53 l 175 39 l 187 56 l 207 122 l 191 144 l 207 197 l 197 261 l 197 368 l 210 447 l 205 465 l 184 489 l 133 483 l 114 508 l 120 546 l 181 546 l 187 555 l 278 545 l 293 545 l 305 558 l 332 555 l 373 511 l 373 497 l 364 489 l 302 489 l 267 447 l 278 405 l 275 377 l 267 344 l 270 322 l 293 307 l 342 307 l 354 322 l 386 313 l 419 353 l 430 353 l 447 322 l 447 287 l 456 275 l 460 275 l 475 307 l 484 350 l 503 322 l 511 322 l 527 359 l 527 433 l 539 452 l 532 473 l 519 482 l 478 473 l 441 517 l 451 539 l 465 559 l 592 559 l 602 572 l 678 558 "},"w":{"x_min":24.171875,"x_max":718.25,"ha":766,"o":"m 469 552 l 469 511 l 440 511 l 435 503 l 419 500 l 419 444 l 404 439 l 399 492 l 364 470 l 351 470 l 351 486 l 329 511 l 303 516 l 291 534 l 291 546 l 386 546 l 421 558 l 469 552 m 712 552 l 718 546 l 712 546 l 706 541 l 706 529 l 696 529 l 688 522 l 672 503 l 672 470 l 674 461 l 672 461 l 656 426 l 656 391 l 642 377 l 642 348 l 624 316 l 601 293 l 607 275 l 607 250 l 601 258 l 587 232 l 601 219 l 594 185 l 578 141 l 587 107 l 582 46 l 582 28 l 578 28 l 570 3 l 566 3 l 558 -14 l 511 -14 l 492 -9 l 469 22 l 460 89 l 460 136 l 446 150 l 440 189 l 430 232 l 440 244 l 440 269 l 446 287 l 440 293 l 430 293 l 430 305 l 417 309 l 421 353 l 417 360 l 409 360 l 409 377 l 435 391 l 440 353 l 446 336 l 482 287 l 482 269 l 511 189 l 528 185 l 541 185 l 570 227 l 570 269 l 601 293 l 594 299 l 582 377 l 582 401 l 594 450 l 587 456 l 594 456 l 594 492 l 578 511 l 566 500 l 558 516 l 558 541 l 566 546 l 646 571 l 646 577 l 701 571 l 701 558 l 712 552 m 345 339 l 345 309 l 321 287 l 315 269 l 321 261 l 321 166 l 299 136 l 312 119 l 303 111 l 315 89 l 299 39 l 299 16 l 281 -14 l 260 -22 l 258 -22 l 258 -39 l 252 -33 l 244 -39 l 222 -39 l 180 28 l 170 39 l 170 129 l 155 153 l 155 197 l 143 208 l 149 275 l 155 275 l 155 299 l 135 309 l 135 377 l 126 383 l 114 383 l 114 413 l 104 420 l 84 481 l 62 503 l 50 503 l 24 534 l 44 563 l 62 571 l 108 558 l 180 558 l 185 552 l 185 522 l 155 492 l 180 450 l 172 408 l 163 394 l 193 348 l 172 287 l 193 250 l 209 244 l 244 208 l 268 219 l 299 293 l 291 299 l 281 316 l 281 348 l 299 365 l 331 360 l 345 339 "},"$":{"x_min":117.921875,"x_max":665.890625,"ha":766,"o":"m 455 701 l 418 736 l 427 724 l 413 691 l 413 689 l 417 683 l 413 668 l 407 663 l 414 644 l 413 641 l 424 619 l 419 608 l 417 578 l 421 578 l 421 500 l 419 482 l 476 459 l 532 465 l 555 447 l 583 392 l 596 392 l 596 386 l 620 380 l 638 338 l 633 330 l 655 308 l 663 285 l 655 285 l 655 223 l 663 217 l 655 217 l 649 211 l 665 187 l 663 194 l 638 119 l 638 108 l 633 108 l 620 72 l 620 66 l 609 54 l 612 47 l 583 36 l 560 6 l 538 -5 l 519 0 l 502 0 l 494 -5 l 443 -11 l 438 -19 l 438 -33 l 427 -33 l 427 -45 l 424 -47 l 424 -53 l 413 -53 l 410 -55 l 393 -58 l 377 -38 l 374 -16 l 359 0 l 306 -5 l 269 24 l 250 36 l 212 11 l 212 0 l 146 0 l 136 11 l 117 47 l 130 88 l 122 119 l 122 132 l 130 132 l 141 167 l 130 240 l 130 296 l 141 313 l 182 308 l 182 301 l 224 278 l 224 248 l 240 194 l 253 194 l 253 180 l 294 144 l 306 144 l 312 119 l 367 102 l 367 127 l 371 141 l 360 163 l 371 191 l 367 211 l 367 237 l 360 239 l 369 264 l 369 285 l 371 300 l 360 319 l 367 324 l 359 342 l 359 369 l 360 369 l 364 392 l 367 392 l 367 400 l 346 400 l 306 422 l 287 417 l 266 417 l 258 422 l 240 459 l 212 465 l 176 508 l 169 514 l 159 514 l 164 520 l 146 550 l 146 572 l 130 598 l 130 641 l 117 651 l 136 663 l 136 680 l 146 680 l 159 694 l 151 701 l 164 710 l 164 733 l 169 723 l 195 741 l 195 761 l 224 779 l 240 771 l 269 792 l 278 784 l 312 808 l 317 803 l 342 822 l 355 818 l 364 829 l 369 849 l 367 852 l 367 908 l 369 908 l 371 927 l 385 941 l 392 941 l 407 905 l 413 905 l 404 871 l 410 866 l 402 842 l 402 823 l 407 811 l 404 792 l 460 784 l 494 766 l 515 766 l 519 749 l 555 719 l 560 719 l 567 761 l 573 792 l 609 792 l 625 779 l 633 736 l 625 736 l 604 694 l 620 663 l 612 641 l 625 627 l 620 561 l 604 543 l 591 543 l 573 586 l 567 580 l 567 598 l 549 616 l 544 645 l 538 641 l 532 671 l 519 677 l 502 689 l 494 689 l 489 680 l 489 689 l 476 694 l 460 706 l 455 701 m 359 491 l 364 494 l 360 500 l 369 537 l 353 579 l 349 578 l 349 590 l 371 616 l 369 633 l 355 641 l 355 651 l 359 651 l 359 668 l 349 680 l 359 698 l 359 741 l 346 741 l 322 733 l 317 723 l 328 710 l 287 694 l 250 701 l 250 706 l 236 719 l 228 719 l 228 701 l 236 694 l 224 680 l 224 663 l 212 651 l 206 622 l 224 590 l 212 580 l 218 543 l 240 520 l 282 500 l 287 508 l 312 491 l 312 482 l 317 478 l 322 478 l 328 482 l 355 494 l 359 491 m 443 392 l 427 404 l 427 374 l 432 369 l 427 348 l 419 278 l 438 244 l 427 226 l 432 219 l 432 211 l 438 196 l 438 185 l 443 173 l 438 152 l 440 146 l 446 122 l 450 113 l 448 110 l 483 115 l 505 149 l 532 163 l 532 174 l 555 196 l 549 205 l 567 236 l 555 258 l 579 285 l 579 289 l 573 296 l 579 296 l 583 301 l 573 319 l 579 327 l 555 349 l 555 356 l 538 360 l 464 392 l 443 392 "},"\\":{"x_min":18.5625,"x_max":712.546875,"ha":766,"o":"m 698 -172 l 712 -219 l 692 -226 l 658 -202 l 622 -122 l 580 -100 l 568 -73 l 573 -69 l 557 -44 l 562 -39 l 543 -22 l 538 -22 l 534 3 l 534 17 l 509 52 l 497 52 l 480 89 l 474 124 l 467 150 l 431 166 l 426 185 l 419 185 l 407 240 l 385 269 l 314 421 l 265 450 l 246 522 l 218 561 l 200 619 l 166 662 l 148 702 l 100 770 l 100 800 l 32 905 l 24 897 l 24 913 l 32 934 l 18 944 l 24 974 l 48 983 l 70 966 l 100 956 l 119 940 l 148 875 l 195 800 l 237 669 l 255 662 l 278 619 l 271 590 l 366 450 l 391 377 l 385 372 l 449 305 l 480 232 l 513 179 l 509 172 l 562 68 l 592 52 l 603 8 l 598 -22 l 614 -39 l 622 -39 l 640 -83 l 628 -100 l 640 -118 l 644 -112 l 669 -118 l 669 -136 l 698 -172 "},"Ì":{"x_min":9.8125,"x_max":773,"ha":766,"o":"m 773 36 l 773 17 l 734 -19 l 688 -26 l 553 -26 l 515 -26 l 490 -8 l 469 25 l 389 -19 l 351 -11 l 321 4 l 318 28 l 307 28 l 287 6 l 232 6 l 215 -4 l 147 -11 l 118 -7 l 41 -7 l 19 -1 l 9 17 l 19 51 l 81 107 l 98 128 l 90 219 l 101 258 l 101 327 l 116 404 l 108 452 l 108 500 l 116 516 l 109 572 l 98 591 l 116 614 l 116 647 l 79 674 l 52 717 l 27 741 l 32 777 l 72 808 l 133 803 l 198 803 l 264 797 l 299 741 l 315 730 l 321 722 l 309 647 l 309 580 l 309 555 l 336 412 l 370 394 l 370 275 l 375 266 l 386 272 l 400 296 l 400 347 l 427 375 l 427 418 l 408 441 l 425 470 l 461 516 l 471 569 l 471 717 l 490 755 l 550 806 l 627 806 l 688 797 l 709 803 l 721 803 l 758 741 l 751 712 l 743 704 l 706 704 l 691 691 l 680 644 l 667 607 l 667 489 l 667 319 l 680 203 l 672 150 l 687 100 l 734 83 l 773 36 m 572 383 l 599 508 l 585 555 l 581 598 l 563 601 l 561 589 l 570 552 l 537 497 l 545 444 l 527 425 l 506 377 l 515 341 l 504 309 l 504 208 l 478 165 l 478 125 l 487 110 l 498 110 l 519 119 l 537 147 l 537 194 l 550 240 l 572 275 l 572 383 m 289 110 l 299 203 l 289 219 l 289 283 l 272 314 l 235 572 l 217 614 l 209 614 l 182 569 l 196 545 l 196 486 l 201 436 l 192 412 l 192 366 l 192 222 l 187 205 l 198 100 l 227 91 l 282 97 l 289 110 "},"Ç":{"x_min":73,"x_max":661.5,"ha":766,"o":"m 661 290 l 661 147 l 623 92 l 615 68 l 560 47 l 478 -7 l 370 -26 l 298 -26 l 171 42 l 144 50 l 110 103 l 73 166 l 73 220 l 92 256 l 114 273 l 152 273 l 219 256 l 245 232 l 245 189 l 280 166 l 326 78 l 381 59 l 435 59 l 498 95 l 517 124 l 549 147 l 571 227 l 544 307 l 435 391 l 383 391 l 318 397 l 283 411 l 272 426 l 277 447 l 334 495 l 359 495 l 383 476 l 427 482 l 481 514 l 532 575 l 532 647 l 481 708 l 453 725 l 383 725 l 364 733 l 269 708 l 258 700 l 246 677 l 236 633 l 179 549 l 144 549 l 119 575 l 119 686 l 127 763 l 146 791 l 168 805 l 225 791 l 269 800 l 300 819 l 315 821 l 424 821 l 506 782 l 555 773 l 589 733 l 606 723 l 623 705 l 636 647 l 645 640 l 645 550 l 609 506 l 604 458 l 591 436 l 601 415 l 623 380 l 634 336 l 661 290 "},"’":{"x_min":271.78125,"x_max":523,"ha":766,"o":"m 523 1049 l 523 1006 l 518 1006 l 509 950 l 509 885 l 503 891 l 495 866 l 484 866 l 457 823 l 461 820 l 441 799 l 446 793 l 413 757 l 375 727 l 329 716 l 304 716 l 275 770 l 290 823 l 299 823 l 304 832 l 315 843 l 309 846 l 318 857 l 318 872 l 331 872 l 347 885 l 347 900 l 352 907 l 331 910 l 329 916 l 318 916 l 315 929 l 309 934 l 299 934 l 294 953 l 285 963 l 290 968 l 285 974 l 271 1003 l 281 1049 l 299 1078 l 299 1088 l 318 1099 l 338 1118 l 342 1113 l 375 1137 l 389 1137 l 400 1127 l 433 1134 l 433 1127 l 438 1123 l 452 1123 l 446 1118 l 461 1108 l 471 1108 l 471 1102 l 489 1094 l 498 1094 l 498 1078 l 518 1046 l 523 1049 "},"-":{"x_min":32.84375,"x_max":743.34375,"ha":766,"o":"m 220 420 l 261 408 l 269 404 l 279 404 l 286 408 l 315 415 l 487 415 l 541 404 l 558 411 l 658 411 l 683 404 l 694 391 l 701 394 l 713 383 l 727 394 l 729 391 l 724 386 l 729 378 l 743 378 l 735 283 l 729 240 l 705 208 l 675 197 l 658 197 l 646 185 l 641 185 l 634 191 l 629 185 l 535 205 l 511 197 l 498 208 l 476 197 l 416 205 l 397 185 l 362 191 l 303 205 l 286 191 l 269 203 l 121 203 l 70 228 l 50 251 l 41 294 l 41 314 l 32 325 l 61 378 l 114 415 l 168 415 l 190 420 l 198 426 l 220 420 "},"Q":{"x_min":72,"x_max":708.890625,"ha":766,"o":"m 691 -26 l 708 -69 l 698 -99 l 698 -136 l 691 -136 l 687 -146 l 627 -199 l 560 -199 l 539 -189 l 531 -182 l 514 -160 l 509 -164 l 495 -152 l 493 -160 l 493 -152 l 479 -141 l 472 -146 l 454 -117 l 454 -105 l 432 -88 l 412 -88 l 412 -83 l 403 -69 l 336 -69 l 290 -56 l 290 -43 l 258 -38 l 235 -13 l 217 -13 l 184 28 l 184 39 l 152 68 l 152 89 l 129 107 l 123 130 l 107 150 l 107 167 l 111 173 l 95 197 l 95 213 l 97 219 l 86 232 l 95 250 l 81 261 l 86 300 l 72 322 l 72 444 l 86 500 l 117 558 l 111 581 l 111 590 l 123 601 l 117 606 l 117 620 l 123 620 l 141 643 l 146 656 l 152 656 l 157 672 l 203 722 l 248 733 l 242 742 l 258 745 l 272 745 l 290 783 l 336 789 l 344 792 l 440 792 l 467 764 l 463 758 l 514 733 l 539 711 l 573 691 l 585 672 l 609 625 l 627 611 l 645 590 l 645 522 l 669 480 l 676 426 l 676 360 l 687 348 l 675 305 l 675 261 l 661 250 l 661 202 l 645 153 l 633 142 l 633 136 l 639 130 l 633 130 l 615 64 l 615 46 l 590 46 l 555 0 l 550 3 l 539 -8 l 544 -38 l 569 -56 l 585 -52 l 590 -52 l 599 -26 l 599 -8 l 669 3 l 691 -26 m 573 293 l 590 317 l 585 317 l 581 348 l 573 365 l 585 391 l 573 420 l 569 426 l 581 502 l 550 535 l 539 535 l 509 552 l 509 594 l 493 611 l 479 611 l 472 650 l 467 650 l 463 666 l 440 680 l 418 666 l 403 686 l 403 691 l 389 691 l 383 686 l 360 686 l 318 691 l 294 662 l 284 638 l 277 638 l 248 606 l 248 590 l 256 581 l 212 541 l 212 511 l 201 486 l 196 486 l 201 480 l 201 473 l 184 450 l 175 401 l 196 383 l 196 365 l 188 360 l 184 360 l 175 317 l 196 275 l 175 244 l 196 208 l 212 173 l 248 173 l 258 159 l 302 167 l 324 189 l 332 202 l 360 213 l 373 202 l 389 202 l 403 208 l 412 189 l 438 179 l 438 173 l 463 159 l 463 153 l 509 130 l 531 159 l 531 197 l 544 208 l 573 293 m 389 46 l 408 68 l 396 81 l 389 81 l 373 64 l 373 39 l 389 39 l 389 46 "},"M":{"x_min":19.0625,"x_max":778,"ha":766,"o":"m 778 39 l 778 30 l 747 9 l 752 7 l 675 7 l 664 0 l 640 -12 l 629 -12 l 629 -6 l 603 0 l 582 9 l 522 -12 l 506 -12 l 468 16 l 468 30 l 464 36 l 446 16 l 438 22 l 427 5 l 416 -6 l 375 -6 l 381 0 l 381 5 l 345 22 l 326 16 l 307 -9 l 279 -9 l 179 -9 l 172 -19 l 155 -19 l 124 5 l 92 16 l 49 9 l 49 16 l 38 30 l 32 71 l 38 66 l 61 101 l 66 95 l 71 101 l 71 109 l 84 109 l 95 95 l 102 101 l 124 114 l 131 174 l 139 181 l 131 186 l 121 222 l 121 251 l 130 272 l 130 333 l 139 415 l 139 428 l 131 433 l 124 471 l 121 477 l 130 488 l 130 506 l 150 531 l 139 550 l 150 595 l 150 622 l 144 628 l 131 651 l 131 657 l 144 670 l 131 700 l 114 717 l 109 712 l 109 717 l 61 717 l 19 749 l 35 792 l 121 792 l 139 777 l 160 792 l 160 794 l 166 803 l 198 785 l 250 785 l 255 760 l 275 755 l 303 717 l 298 705 l 298 640 l 316 579 l 303 552 l 307 550 l 326 506 l 326 464 l 332 415 l 350 386 l 350 356 l 362 343 l 375 319 l 393 294 l 416 333 l 416 325 l 421 319 l 446 350 l 452 381 l 464 392 l 446 422 l 457 471 l 464 471 l 464 543 l 492 579 l 506 579 l 506 531 l 492 514 l 498 483 l 487 471 l 498 459 l 492 459 l 482 428 l 482 422 l 468 410 l 476 403 l 464 392 l 487 367 l 476 356 l 482 350 l 468 336 l 476 333 l 464 319 l 476 290 l 468 272 l 457 242 l 464 235 l 464 217 l 457 217 l 446 174 l 452 131 l 452 121 l 468 101 l 464 95 l 464 92 l 498 83 l 510 95 l 552 95 l 557 92 l 563 92 l 569 109 l 582 109 l 582 181 l 586 186 l 574 211 l 574 258 l 586 294 l 574 307 l 586 343 l 582 372 l 595 386 l 586 471 l 582 477 l 595 477 l 595 552 l 601 566 l 601 694 l 574 736 l 569 736 l 563 725 l 557 725 l 544 657 l 544 645 l 541 651 l 534 622 l 492 645 l 482 645 l 476 651 l 492 700 l 498 700 l 506 730 l 506 760 l 510 755 l 516 760 l 516 772 l 522 772 l 541 794 l 598 803 l 646 792 l 659 803 l 672 803 l 700 772 l 729 785 l 735 785 l 743 777 l 743 765 l 713 760 l 664 736 l 646 700 l 634 645 l 634 628 l 624 614 l 640 604 l 653 536 l 664 506 l 664 488 l 659 488 l 646 477 l 653 428 l 659 410 l 659 356 l 672 325 l 664 272 l 659 217 l 659 174 l 664 150 l 675 131 l 675 101 l 692 93 l 735 93 l 735 92 l 752 83 l 772 39 l 778 39 m 326 66 l 338 66 l 332 71 l 332 101 l 316 131 l 321 139 l 326 174 l 316 186 l 316 200 l 305 242 l 305 301 l 261 356 l 285 367 l 291 410 l 275 464 l 269 471 l 279 520 l 275 514 l 269 520 l 269 523 l 275 531 l 279 531 l 275 536 l 275 561 l 261 574 l 261 579 l 269 584 l 275 614 l 269 622 l 269 634 l 255 634 l 215 670 l 201 670 l 201 628 l 185 608 l 185 520 l 190 514 l 190 488 l 185 433 l 190 392 l 209 372 l 201 367 l 198 333 l 227 319 l 227 307 l 209 290 l 220 211 l 227 181 l 231 186 l 250 174 l 250 150 l 261 131 l 250 121 l 269 101 l 285 101 l 307 109 l 321 95 l 326 66 m 452 66 l 464 78 l 457 78 l 446 71 l 452 66 m 224 529 l 224 520 l 215 520 l 215 529 l 224 529 "},"C":{"x_min":106.28125,"x_max":664.609375,"ha":766,"o":"m 651 301 l 664 284 l 659 258 l 645 216 l 659 205 l 645 175 l 651 168 l 609 150 l 599 127 l 599 119 l 604 115 l 549 54 l 539 36 l 532 7 l 520 7 l 511 -5 l 484 7 l 473 -5 l 482 -12 l 430 -19 l 378 -19 l 367 -5 l 337 -12 l 321 -12 l 321 -5 l 291 0 l 272 0 l 272 25 l 243 47 l 207 86 l 177 97 l 177 138 l 165 150 l 165 168 l 160 175 l 142 175 l 142 187 l 125 205 l 113 240 l 118 272 l 106 295 l 113 330 l 118 369 l 125 374 l 109 391 l 109 555 l 118 580 l 131 598 l 131 616 l 125 621 l 142 641 l 147 632 l 165 664 l 165 677 l 160 680 l 191 706 l 196 749 l 236 778 l 252 808 l 291 808 l 355 832 l 383 832 l 391 840 l 443 840 l 456 822 l 468 815 l 484 815 l 504 797 l 520 797 l 520 791 l 549 778 l 579 808 l 599 808 l 604 815 l 620 827 l 638 815 l 651 766 l 645 766 l 638 733 l 629 719 l 634 688 l 620 677 l 629 658 l 620 658 l 604 627 l 604 616 l 609 610 l 651 530 l 645 469 l 638 464 l 638 447 l 629 447 l 599 464 l 579 481 l 560 494 l 549 494 l 560 507 l 539 555 l 539 560 l 549 571 l 526 602 l 532 641 l 516 672 l 511 664 l 511 672 l 498 680 l 490 677 l 484 680 l 482 677 l 482 664 l 461 664 l 468 680 l 451 719 l 430 723 l 383 736 l 378 736 l 367 723 l 331 733 l 313 711 l 313 688 l 278 672 l 272 677 l 231 632 l 219 610 l 219 585 l 191 542 l 191 435 l 184 428 l 184 409 l 191 403 l 196 385 l 184 356 l 207 328 l 219 295 l 224 240 l 236 205 l 272 168 l 272 158 l 291 144 l 302 131 l 302 115 l 337 102 l 401 108 l 451 150 l 484 158 l 526 205 l 520 236 l 526 236 l 539 248 l 544 240 l 570 272 l 560 308 l 558 314 l 579 338 l 609 344 l 620 344 l 638 328 l 651 328 l 651 301 "},"!":{"x_min":282.796875,"x_max":484.484375,"ha":766,"o":"m 413 808 l 484 710 l 451 624 l 438 538 l 445 502 l 445 322 l 445 285 l 378 261 l 364 261 l 325 322 l 325 455 l 325 502 l 329 513 l 295 651 l 320 759 l 355 808 l 413 808 m 451 188 l 484 115 l 461 6 l 402 -4 l 329 6 l 295 41 l 282 80 l 295 141 l 355 223 l 451 188 "},"ç":{"x_min":127,"x_max":612.71875,"ha":766,"o":"m 601 185 l 612 170 l 590 75 l 547 30 l 517 9 l 490 -6 l 463 -6 l 430 -28 l 344 -28 l 321 -11 l 290 -11 l 253 19 l 207 27 l 127 112 l 127 185 l 147 223 l 167 230 l 210 223 l 238 210 l 262 170 l 256 157 l 236 130 l 238 105 l 281 72 l 319 75 l 393 75 l 420 83 l 456 83 l 482 109 l 482 114 l 490 121 l 512 114 l 526 127 l 526 196 l 520 205 l 490 207 l 463 232 l 419 238 l 399 250 l 354 241 l 330 254 l 311 277 l 311 303 l 347 335 l 399 340 l 408 346 l 465 361 l 501 399 l 493 424 l 475 452 l 438 470 l 416 505 l 365 505 l 311 499 l 267 457 l 262 417 l 262 408 l 244 402 l 221 402 l 194 382 l 153 388 l 142 406 l 159 499 l 159 549 l 175 574 l 202 585 l 253 591 l 267 596 l 344 596 l 362 602 l 404 594 l 435 584 l 490 584 l 520 557 l 556 546 l 602 493 l 608 438 l 608 406 l 599 390 l 608 359 l 599 346 l 610 324 l 610 318 l 592 306 l 572 271 l 577 254 l 601 230 l 601 185 "},"È":{"x_min":64,"x_max":732.34375,"ha":766,"o":"m 724 755 l 732 722 l 724 709 l 709 703 l 677 703 l 661 700 l 652 683 l 658 625 l 652 592 l 672 561 l 643 509 l 637 453 l 628 407 l 641 364 l 637 331 l 637 223 l 649 195 l 649 98 l 664 84 l 695 78 l 718 45 l 726 14 l 724 4 l 691 -16 l 570 -16 l 544 -10 l 500 -18 l 468 4 l 452 28 l 452 63 l 481 89 l 515 84 l 536 110 l 552 195 l 522 304 l 552 357 l 561 402 l 561 570 l 552 573 l 544 573 l 515 536 l 506 509 l 489 489 l 487 463 l 446 413 l 427 360 l 413 328 l 409 302 l 389 286 l 378 273 l 372 239 l 355 209 l 344 139 l 334 120 l 337 89 l 352 73 l 344 64 l 344 52 l 383 42 l 381 9 l 364 0 l 300 -7 l 264 -13 l 219 -2 l 87 -2 l 64 23 l 64 36 l 115 78 l 125 100 l 146 128 l 163 175 l 163 241 l 174 267 l 170 310 l 174 357 l 184 378 l 184 500 l 170 542 l 170 596 l 161 614 l 171 665 l 146 739 l 135 750 l 100 739 l 87 757 l 87 777 l 100 791 l 127 783 l 154 797 l 204 802 l 226 808 l 256 800 l 344 800 l 362 777 l 362 759 l 307 709 l 277 703 l 264 694 l 259 686 l 259 611 l 246 592 l 256 564 l 241 506 l 241 453 l 228 402 l 246 367 l 226 323 l 226 223 l 253 203 l 264 206 l 280 231 l 291 267 l 307 310 l 334 348 l 337 364 l 337 375 l 383 413 l 397 481 l 413 536 l 435 561 l 427 625 l 424 628 l 464 667 l 464 765 l 453 775 l 453 783 l 461 793 l 503 793 l 552 800 l 628 800 l 698 800 l 724 755 "},"{":{"x_min":214.84375,"x_max":603.6875,"ha":766,"o":"m 590 966 l 603 935 l 586 890 l 505 890 l 503 883 l 472 869 l 472 883 l 427 887 l 404 860 l 463 796 l 421 735 l 409 723 l 415 688 l 443 651 l 405 627 l 427 608 l 420 552 l 412 534 l 438 465 l 326 465 l 310 417 l 407 396 l 412 358 l 427 319 l 407 287 l 407 173 l 415 130 l 364 74 l 415 22 l 409 -2 l 417 -33 l 359 -80 l 367 -86 l 353 -97 l 396 -83 l 438 -117 l 450 -133 l 472 -141 l 497 -117 l 535 -108 l 554 -99 l 590 -144 l 586 -176 l 586 -197 l 554 -204 l 497 -204 l 455 -188 l 427 -170 l 372 -141 l 340 -130 l 307 -67 l 321 9 l 329 45 l 322 70 l 322 118 l 307 166 l 321 191 l 321 333 l 280 366 l 224 380 l 214 452 l 274 471 l 328 494 l 328 610 l 341 621 l 337 627 l 321 688 l 323 710 l 341 730 l 322 752 l 322 791 l 322 831 l 353 907 l 407 935 l 430 966 l 484 966 l 519 952 l 535 971 l 549 960 l 567 966 l 590 966 "},"X":{"x_min":19.125,"x_max":775.828125,"ha":766,"o":"m 387 791 l 392 749 l 370 719 l 324 736 l 298 733 l 340 628 l 332 590 l 324 581 l 298 586 l 269 622 l 250 664 l 239 678 l 243 681 l 215 694 l 215 711 l 193 724 l 121 711 l 79 724 l 61 766 l 79 778 l 79 791 l 108 808 l 138 815 l 149 802 l 285 802 l 326 797 l 387 791 m 766 67 l 775 54 l 766 0 l 729 -12 l 683 -12 l 677 -18 l 666 -5 l 637 -12 l 593 -12 l 582 7 l 534 0 l 501 -12 l 487 -12 l 475 0 l 470 -5 l 446 0 l 441 25 l 432 36 l 432 78 l 458 88 l 493 88 l 506 115 l 501 120 l 493 120 l 493 139 l 506 150 l 493 175 l 481 188 l 487 195 l 481 198 l 475 198 l 458 211 l 452 285 l 422 339 l 411 350 l 400 350 l 387 330 l 387 289 l 352 273 l 340 253 l 332 249 l 340 241 l 332 198 l 324 181 l 310 168 l 316 164 l 316 150 l 310 159 l 303 128 l 285 103 l 310 89 l 340 86 l 370 78 l 376 73 l 387 73 l 400 25 l 392 25 l 381 -2 l 281 -2 l 250 -18 l 243 -12 l 234 -12 l 234 -5 l 73 -5 l 57 11 l 49 7 l 27 30 l 19 60 l 27 60 l 32 86 l 49 97 l 57 89 l 66 106 l 108 106 l 179 106 l 204 139 l 215 188 l 264 211 l 264 241 l 272 273 l 294 273 l 310 301 l 303 309 l 310 309 l 316 330 l 346 361 l 340 369 l 362 386 l 376 422 l 370 429 l 387 447 l 370 478 l 326 500 l 332 561 l 362 561 l 404 508 l 441 521 l 452 543 l 452 581 l 470 611 l 464 617 l 493 651 l 506 672 l 501 701 l 470 724 l 458 736 l 433 736 l 430 762 l 422 752 l 422 772 l 458 797 l 518 797 l 539 803 l 539 808 l 593 803 l 629 803 l 637 808 l 637 800 l 707 800 l 729 784 l 747 752 l 743 736 l 713 724 l 641 724 l 637 719 l 593 707 l 598 701 l 582 681 l 560 622 l 534 599 l 529 581 l 501 531 l 506 525 l 481 508 l 464 452 l 464 439 l 458 439 l 452 436 l 452 416 l 464 404 l 481 339 l 501 296 l 506 296 l 510 273 l 534 273 l 529 267 l 563 241 l 589 150 l 589 132 l 607 120 l 618 108 l 625 115 l 625 103 l 653 78 l 683 86 l 713 89 l 743 89 l 754 73 l 766 67 "},"ô":{"x_min":22.109375,"x_max":749.6875,"ha":766,"o":"m 732 255 l 749 208 l 748 191 l 715 161 l 703 78 l 669 38 l 666 24 l 627 5 l 573 -39 l 536 -39 l 521 -50 l 498 -50 l 479 -16 l 466 -5 l 454 -12 l 458 -39 l 466 -52 l 454 -108 l 486 -144 l 486 -179 l 513 -199 l 524 -205 l 524 -226 l 484 -261 l 454 -261 l 417 -211 l 378 -173 l 349 -188 l 321 -199 l 297 -244 l 294 -264 l 288 -267 l 279 -267 l 250 -244 l 231 -241 l 222 -229 l 227 -197 l 279 -149 l 327 -80 l 327 -25 l 297 -2 l 286 2 l 267 -25 l 242 -16 l 224 -5 l 204 -12 l 190 -25 l 113 6 l 53 78 l 24 202 l 33 238 l 22 365 l 30 446 l 64 502 l 107 552 l 131 572 l 180 579 l 222 579 l 234 587 l 258 572 l 332 572 l 332 645 l 310 660 l 280 698 l 242 688 l 227 702 l 222 752 l 231 784 l 253 808 l 349 773 l 380 784 l 417 776 l 449 784 l 476 808 l 515 799 l 542 781 l 552 763 l 542 716 l 542 698 l 484 672 l 452 619 l 452 574 l 487 560 l 558 581 l 661 531 l 714 478 l 714 402 l 732 374 l 732 255 m 642 219 l 651 327 l 633 355 l 633 405 l 620 423 l 609 478 l 599 494 l 570 494 l 555 502 l 524 507 l 466 452 l 417 309 l 424 274 l 412 188 l 412 141 l 440 118 l 466 68 l 479 68 l 503 78 l 555 62 l 607 97 l 629 144 l 629 200 l 642 219 m 344 226 l 344 299 l 344 365 l 334 394 l 258 487 l 196 487 l 173 460 l 158 417 l 170 367 l 162 362 l 131 330 l 118 302 l 113 255 l 133 188 l 118 152 l 136 133 l 167 78 l 180 78 l 209 58 l 279 78 l 333 155 l 333 197 l 344 226 "},"¼":{"x_min":106.203125,"x_max":692.640625,"ha":766,"o":"m 629 977 l 629 905 l 585 868 l 544 868 l 525 883 l 485 948 l 485 966 l 501 977 l 495 1004 l 501 1004 l 514 1016 l 521 1009 l 530 1020 l 579 1027 l 601 1016 l 615 991 l 629 977 m 288 1009 l 307 974 l 294 948 l 300 944 l 284 930 l 272 899 l 263 895 l 277 883 l 241 876 l 235 869 l 235 858 l 212 876 l 182 888 l 182 919 l 166 930 l 157 977 l 175 1004 l 246 1016 l 288 1009 m 650 97 l 692 51 l 658 -1 l 629 -25 l 579 -25 l 485 -25 l 485 -22 l 401 -22 l 391 -27 l 373 -27 l 362 -13 l 338 -22 l 338 -27 l 321 -27 l 324 -22 l 307 -9 l 261 -22 l 243 -13 l 206 -27 l 193 -22 l 171 -1 l 125 -1 l 118 39 l 106 46 l 113 64 l 113 68 l 164 89 l 193 95 l 214 95 l 261 111 l 283 111 l 295 97 l 302 106 l 313 97 l 321 95 l 332 111 l 324 120 l 332 120 l 338 142 l 338 184 l 332 240 l 338 240 l 338 258 l 332 260 l 343 274 l 343 321 l 350 330 l 350 338 l 338 352 l 350 382 l 343 407 l 343 563 l 354 600 l 343 610 l 350 642 l 354 649 l 343 661 l 343 692 l 290 699 l 279 699 l 266 686 l 272 680 l 253 680 l 253 686 l 193 692 l 155 699 l 129 722 l 129 771 l 135 771 l 141 776 l 177 797 l 272 797 l 266 792 l 338 792 l 354 800 l 420 800 l 461 794 l 472 805 l 510 813 l 526 800 l 560 805 l 645 794 l 645 789 l 658 776 l 650 733 l 629 711 l 609 711 l 560 692 l 549 703 l 544 699 l 532 711 l 504 699 l 504 692 l 490 692 l 472 711 l 444 699 l 438 699 l 438 671 l 450 632 l 444 600 l 438 593 l 450 577 l 444 563 l 444 305 l 461 208 l 456 202 l 461 197 l 482 111 l 516 120 l 532 120 l 532 108 l 586 108 l 650 97 "},"#":{"x_min":-138.4375,"x_max":966.78125,"ha":766,"o":"m 636 309 l 618 277 l 643 274 l 661 244 l 686 244 l 686 239 l 697 231 l 715 196 l 709 135 l 666 123 l 661 119 l 549 94 l 527 113 l 523 88 l 523 74 l 517 80 l 493 51 l 493 45 l 498 38 l 475 16 l 452 -53 l 452 -63 l 416 -113 l 408 -131 l 386 -161 l 375 -203 l 356 -239 l 332 -251 l 310 -256 l 244 -286 l 244 -282 l 221 -275 l 226 -269 l 215 -256 l 215 -233 l 221 -226 l 209 -214 l 226 -161 l 244 -142 l 250 -113 l 286 -70 l 286 -45 l 289 -45 l 298 -22 l 326 21 l 344 63 l 370 88 l 381 111 l 347 111 l 305 106 l 305 111 l 258 123 l 253 119 l 246 119 l 237 128 l 212 119 l 178 119 l 178 111 l 174 88 l 174 74 l 168 80 l 144 51 l 144 45 l 149 38 l 126 16 l 103 -53 l 103 -63 l 67 -113 l 59 -131 l 37 -161 l 27 -203 l 7 -239 l -16 -251 l -38 -256 l -105 -286 l -105 -282 l -126 -275 l -122 -269 l -133 -256 l -133 -233 l -126 -226 l -138 -214 l -122 -161 l -105 -142 l -98 -113 l -63 -70 l -63 -45 l -58 -45 l -50 -22 l -22 21 l -4 63 l 21 88 l 57 171 l 51 184 l 63 213 l 84 228 l 81 231 l 103 244 l 98 250 l 120 292 l 120 304 l 138 309 l 144 309 l 165 359 l 146 377 l 92 377 l 98 382 l 98 391 l 92 394 l 81 394 l 87 438 l 122 460 l 157 468 l 176 486 l 212 480 l 223 467 l 250 502 l 264 552 l 315 618 l 321 649 l 347 685 l 347 698 l 356 698 l 364 710 l 381 752 l 399 763 l 399 770 l 393 776 l 406 776 l 415 788 l 411 823 l 427 852 l 435 849 l 470 895 l 470 913 l 524 969 l 529 969 l 547 985 l 547 1005 l 557 1016 l 575 1012 l 588 1012 l 618 974 l 607 907 l 618 895 l 601 874 l 571 849 l 575 842 l 552 823 l 547 788 l 529 757 l 524 763 l 497 741 l 497 671 l 465 642 l 435 581 l 415 571 l 415 563 l 424 558 l 415 558 l 406 545 l 406 528 l 381 499 l 381 491 l 386 486 l 381 486 l 375 473 l 364 463 l 389 460 l 394 454 l 407 468 l 453 473 l 461 480 l 461 473 l 478 473 l 525 480 l 583 499 l 590 491 l 599 502 l 612 552 l 664 618 l 669 649 l 695 685 l 695 698 l 704 698 l 713 710 l 729 752 l 747 763 l 747 770 l 741 776 l 754 776 l 764 788 l 759 823 l 776 852 l 784 849 l 818 895 l 818 913 l 872 969 l 878 969 l 896 985 l 896 1005 l 906 1016 l 924 1012 l 936 1012 l 966 974 l 955 907 l 966 895 l 950 874 l 920 849 l 924 842 l 901 823 l 896 788 l 878 757 l 872 763 l 845 741 l 845 671 l 813 642 l 784 581 l 764 571 l 764 563 l 773 558 l 764 558 l 754 545 l 754 528 l 729 499 l 729 491 l 734 486 l 729 486 l 723 473 l 704 454 l 713 449 l 704 449 l 709 443 l 709 425 l 702 407 l 702 391 l 666 365 l 655 365 l 645 342 l 645 338 l 636 330 l 636 309 m 305 352 l 299 352 l 297 347 l 297 338 l 287 330 l 287 309 l 264 269 l 267 269 l 301 250 l 355 258 l 359 260 l 359 274 l 401 269 l 401 260 l 413 250 l 446 250 l 468 292 l 468 304 l 487 309 l 493 309 l 509 345 l 474 352 l 461 352 l 443 337 l 389 337 l 383 347 l 372 330 l 355 347 l 318 338 l 305 352 "},"Ê":{"x_min":22,"x_max":784.28125,"ha":766,"o":"m 767 773 l 784 758 l 781 747 l 767 736 l 738 739 l 713 755 l 711 765 l 738 781 l 767 773 m 738 712 l 738 694 l 685 655 l 645 619 l 613 604 l 574 611 l 564 604 l 504 497 l 504 480 l 467 438 l 520 397 l 539 339 l 558 272 l 545 247 l 545 229 l 574 203 l 628 192 l 675 192 l 733 133 l 733 72 l 719 30 l 703 17 l 648 -2 l 610 -32 l 574 -32 l 490 17 l 466 22 l 473 68 l 447 97 l 447 110 l 478 144 l 469 194 l 469 244 l 451 300 l 421 339 l 396 354 l 367 385 l 321 385 l 302 375 l 245 389 l 223 375 l 213 360 l 213 301 l 223 283 l 215 236 l 230 165 l 223 144 l 232 122 l 275 89 l 329 60 l 383 69 l 400 68 l 409 60 l 409 42 l 378 17 l 336 17 l 284 -12 l 120 -12 l 108 -2 l 41 -2 l 22 12 l 22 44 l 108 110 l 120 133 l 126 189 l 133 208 l 120 244 l 114 258 l 138 314 l 128 375 l 138 468 l 128 486 l 133 513 l 133 644 l 138 674 l 128 709 l 104 731 l 72 731 l 41 762 l 41 791 l 59 805 l 119 817 l 120 820 l 223 810 l 250 818 l 284 818 l 318 799 l 341 791 l 347 773 l 347 762 l 318 747 l 302 728 l 299 708 l 275 691 l 256 702 l 247 700 l 241 691 l 241 652 l 247 644 l 269 644 l 278 637 l 278 633 l 269 625 l 245 625 l 238 616 l 238 555 l 230 526 l 238 486 l 247 476 l 292 486 l 356 486 l 396 561 l 396 591 l 403 599 l 396 644 l 400 665 l 414 674 l 425 688 l 425 702 l 436 712 l 469 721 l 475 739 l 485 773 l 495 793 l 547 793 l 581 820 l 636 791 l 659 786 l 685 750 l 688 736 l 705 721 l 738 712 "},")":{"x_min":279,"x_max":546,"ha":766,"o":"m 546 542 l 546 287 l 503 80 l 446 -38 l 375 -149 l 340 -161 l 291 -161 l 279 -136 l 279 -86 l 422 94 l 469 202 l 479 311 l 503 361 l 492 420 l 503 433 l 492 479 l 503 494 l 469 637 l 422 760 l 326 881 l 302 927 l 315 941 l 364 927 l 375 892 l 479 749 l 546 542 "},"Å":{"x_min":38,"x_max":709.609375,"ha":766,"o":"m 697 298 l 709 252 l 696 153 l 696 86 l 690 68 l 690 56 l 706 42 l 698 3 l 684 10 l 641 -16 l 624 -16 l 617 -8 l 583 -16 l 528 -1 l 492 -19 l 472 -19 l 450 7 l 417 -12 l 383 -19 l 331 -1 l 227 -17 l 146 -17 l 119 -24 l 81 -12 l 51 10 l 44 56 l 38 58 l 38 68 l 83 84 l 105 105 l 143 105 l 165 121 l 191 250 l 191 297 l 186 347 l 186 436 l 196 463 l 196 587 l 211 625 l 211 672 l 172 718 l 151 734 l 116 734 l 64 753 l 54 770 l 54 782 l 108 826 l 116 824 l 238 824 l 289 824 l 364 824 l 417 824 l 644 824 l 660 811 l 677 782 l 684 745 l 684 716 l 692 680 l 692 640 l 696 603 l 706 585 l 698 550 l 655 532 l 598 550 l 583 575 l 589 592 l 601 611 l 593 661 l 589 705 l 580 713 l 547 700 l 506 708 l 489 700 l 469 705 l 437 723 l 427 723 l 420 718 l 402 718 l 346 742 l 329 736 l 291 689 l 291 643 l 291 569 l 281 550 l 289 505 l 315 482 l 353 482 l 388 491 l 402 500 l 417 537 l 432 555 l 435 587 l 484 631 l 489 631 l 506 605 l 528 585 l 528 547 l 534 523 l 541 519 l 534 473 l 544 447 l 566 415 l 566 402 l 544 375 l 529 307 l 492 272 l 457 272 l 429 316 l 427 333 l 398 372 l 338 383 l 318 380 l 301 362 l 292 316 l 284 287 l 284 223 l 299 124 l 338 103 l 399 116 l 416 116 l 435 147 l 465 130 l 506 130 l 523 121 l 547 124 l 571 150 l 589 272 l 627 330 l 633 338 l 644 333 l 679 327 l 697 298 m 506 217 l 526 194 l 523 182 l 508 171 l 487 171 l 472 186 l 472 197 l 489 217 l 506 217 "},"ø":{"x_min":52,"x_max":708,"ha":766,"o":"m 708 38 l 708 30 l 684 19 l 661 -9 l 621 -35 l 560 -35 l 549 -47 l 514 -41 l 474 -16 l 448 -22 l 424 -44 l 386 -27 l 341 -35 l 289 -35 l 269 -16 l 229 -25 l 195 -25 l 175 -41 l 84 -16 l 66 -9 l 60 1 l 66 30 l 106 75 l 106 119 l 133 172 l 123 269 l 133 316 l 111 416 l 84 441 l 60 447 l 52 491 l 52 530 l 84 552 l 160 563 l 193 555 l 225 530 l 258 534 l 280 547 l 303 574 l 341 569 l 351 574 l 459 563 l 486 558 l 492 499 l 521 511 l 552 555 l 581 549 l 599 563 l 635 558 l 684 508 l 678 477 l 642 436 l 635 404 l 604 354 l 602 313 l 602 129 l 602 91 l 599 77 l 599 66 l 607 57 l 650 57 l 669 48 l 702 48 l 708 38 m 313 104 l 329 125 l 329 141 l 307 172 l 307 316 l 315 394 l 307 409 l 278 412 l 258 441 l 238 491 l 217 438 l 195 422 l 180 333 l 193 308 l 193 269 l 168 240 l 163 222 l 193 184 l 193 169 l 178 125 l 184 113 l 198 57 l 293 57 l 304 66 l 313 104 m 503 225 l 524 280 l 524 338 l 497 369 l 495 397 l 486 427 l 462 422 l 420 380 l 402 388 l 394 333 l 405 234 l 378 144 l 402 58 l 456 51 l 495 58 l 495 63 l 506 88 l 517 184 l 503 225 "},"â":{"x_min":76,"x_max":661,"ha":766,"o":"m 639 253 l 661 200 l 661 116 l 611 16 l 587 -1 l 554 -7 l 530 -39 l 519 -39 l 502 -22 l 460 -33 l 423 -25 l 331 -39 l 258 -39 l 214 -17 l 164 -17 l 140 -30 l 119 -22 l 104 -4 l 104 27 l 140 54 l 179 54 l 209 88 l 203 155 l 209 187 l 209 248 l 221 272 l 213 308 l 213 424 l 184 454 l 104 484 l 76 516 l 76 542 l 114 572 l 146 589 l 323 589 l 336 598 l 364 589 l 423 598 l 460 590 l 502 563 l 521 577 l 546 572 l 639 499 l 645 422 l 645 383 l 606 311 l 609 293 l 639 253 m 515 339 l 521 351 l 509 432 l 494 448 l 443 448 l 432 459 l 423 449 l 413 422 l 406 422 l 403 424 l 391 454 l 374 459 l 342 449 l 323 441 l 311 413 l 311 348 l 317 330 l 328 330 l 374 314 l 406 328 l 432 314 l 449 328 l 497 328 l 515 339 m 541 124 l 554 172 l 549 194 l 509 228 l 467 228 l 411 234 l 331 219 l 317 205 l 310 181 l 310 126 l 303 82 l 310 71 l 342 77 l 394 62 l 440 62 l 449 71 l 460 68 l 478 41 l 483 46 l 486 46 l 541 91 l 541 124 "},"}":{"x_min":225.65625,"x_max":614.53125,"ha":766,"o":"m 420 819 l 450 817 l 420 776 l 400 785 l 420 819 m 595 383 l 614 333 l 595 301 l 549 275 l 500 264 l 500 147 l 486 139 l 491 131 l 508 71 l 503 49 l 486 28 l 503 6 l 503 -32 l 508 -71 l 474 -146 l 421 -175 l 398 -205 l 343 -205 l 309 -193 l 292 -213 l 280 -202 l 261 -205 l 237 -205 l 225 -175 l 242 -130 l 320 -130 l 326 -123 l 356 -110 l 356 -123 l 402 -127 l 421 -102 l 421 -35 l 421 22 l 426 39 l 421 74 l 398 108 l 420 125 l 414 150 l 420 208 l 420 250 l 405 290 l 449 314 l 519 342 l 476 361 l 471 401 l 415 442 l 431 522 l 437 586 l 426 628 l 442 683 l 426 736 l 474 762 l 465 794 l 460 826 l 453 830 l 465 842 l 431 842 l 391 878 l 377 893 l 356 900 l 331 878 l 292 866 l 271 858 l 237 903 l 242 936 l 242 955 l 271 966 l 331 961 l 372 948 l 455 901 l 489 890 l 521 828 l 508 750 l 497 714 l 517 689 l 508 642 l 520 593 l 507 567 l 507 426 l 541 397 l 595 383 "},"Ä":{"x_min":23,"x_max":806.578125,"ha":766,"o":"m 806 -74 l 806 -85 l 783 -103 l 767 -96 l 752 -80 l 723 -96 l 718 -106 l 729 -141 l 694 -149 l 661 -160 l 612 -152 l 604 -141 l 594 -88 l 576 -33 l 552 -6 l 458 -6 l 424 4 l 222 -13 l 204 -27 l 167 -33 l 158 -41 l 170 -77 l 175 -88 l 167 -112 l 107 -169 l 76 -169 l 23 -106 l 23 36 l 69 116 l 78 127 l 113 116 l 158 136 l 209 202 l 224 258 l 215 330 l 224 369 l 233 415 l 233 513 l 242 541 l 234 563 l 258 616 l 246 694 l 253 719 l 246 736 l 239 741 l 141 749 l 130 767 l 141 805 l 158 814 l 193 820 l 209 827 l 250 820 l 269 826 l 394 826 l 430 826 l 440 829 l 593 829 l 659 810 l 670 794 l 670 773 l 631 747 l 615 741 l 593 709 l 593 561 l 584 552 l 576 486 l 560 436 l 587 272 l 594 245 l 584 183 l 594 133 l 639 97 l 683 89 l 712 51 l 718 16 l 729 7 l 729 -33 l 757 -74 l 767 -77 l 803 -56 l 806 -74 m 487 322 l 495 415 l 484 444 l 494 470 l 494 691 l 476 718 l 451 718 l 424 738 l 394 741 l 375 736 l 340 680 l 340 513 l 324 480 l 324 407 l 312 363 l 327 327 l 327 293 l 327 194 l 307 161 l 307 116 l 352 100 l 375 125 l 389 127 l 421 107 l 443 100 l 458 115 l 475 165 l 475 255 l 479 266 l 487 322 "},"¸":{"x_min":79,"x_max":638.21875,"ha":766,"o":"m 274 758 l 289 738 l 284 702 l 243 644 l 232 616 l 209 604 l 178 613 l 120 641 l 112 649 l 112 758 l 141 783 l 166 791 l 198 813 l 220 808 l 244 773 l 274 758 m 620 738 l 638 691 l 635 662 l 591 622 l 544 604 l 519 606 l 464 669 l 464 747 l 487 770 l 534 791 l 583 780 l 620 738 m 625 347 l 632 289 l 615 251 l 591 236 l 477 236 l 459 251 l 321 236 l 292 246 l 255 246 l 238 255 l 215 251 l 181 208 l 181 186 l 198 156 l 206 115 l 244 69 l 302 57 l 381 57 l 408 66 l 462 66 l 544 159 l 583 159 l 606 125 l 601 80 l 571 41 l 481 -21 l 443 -35 l 424 -51 l 351 -51 l 329 -57 l 307 -53 l 281 -35 l 235 -24 l 209 -13 l 126 69 l 92 153 l 79 216 l 79 319 l 117 420 l 124 447 l 178 505 l 190 523 l 243 552 l 266 581 l 332 574 l 383 574 l 410 567 l 462 567 l 506 530 l 526 523 l 596 430 l 601 375 l 625 347 m 508 330 l 519 354 l 489 427 l 453 452 l 321 470 l 281 450 l 250 438 l 227 422 l 206 354 l 215 335 l 284 335 l 321 335 l 386 335 l 453 335 l 487 316 l 508 330 "},"a":{"x_min":60.96875,"x_max":723.890625,"ha":766,"o":"m 713 166 l 723 152 l 713 63 l 705 58 l 705 38 l 675 8 l 675 -2 l 595 -14 l 577 -2 l 570 -10 l 522 21 l 506 51 l 492 38 l 452 33 l 422 8 l 386 8 l 375 -2 l 326 -2 l 321 2 l 315 -2 l 285 -14 l 271 -2 l 269 -10 l 269 -1 l 239 -1 l 231 -10 l 215 8 l 163 2 l 108 58 l 95 58 l 95 67 l 78 80 l 84 97 l 73 119 l 60 152 l 78 184 l 66 207 l 73 244 l 103 258 l 138 309 l 149 322 l 172 322 l 199 330 l 199 338 l 149 352 l 149 364 l 144 371 l 120 420 l 120 449 l 113 473 l 113 502 l 133 529 l 125 534 l 138 545 l 133 563 l 144 563 l 149 571 l 163 581 l 172 581 l 179 576 l 227 610 l 239 600 l 243 606 l 290 619 l 345 610 l 349 606 l 357 610 l 433 619 l 433 608 l 492 608 l 518 593 l 510 589 l 534 581 l 547 581 l 570 545 l 577 541 l 570 541 l 563 534 l 586 510 l 595 473 l 595 232 l 599 202 l 595 202 l 586 197 l 599 172 l 607 166 l 615 166 l 615 157 l 628 149 l 666 166 l 695 172 l 713 172 l 713 166 m 476 438 l 498 426 l 498 460 l 481 486 l 458 486 l 438 499 l 438 513 l 370 513 l 357 529 l 297 529 l 285 515 l 261 521 l 250 499 l 261 473 l 256 469 l 281 420 l 239 382 l 201 377 l 209 355 l 297 355 l 310 377 l 315 377 l 321 371 l 321 364 l 326 371 l 370 382 l 381 408 l 400 408 l 446 401 l 458 426 l 476 438 m 476 197 l 487 213 l 468 213 l 446 232 l 452 240 l 464 269 l 468 261 l 468 274 l 452 280 l 452 274 l 375 258 l 340 258 l 340 261 l 321 261 l 315 258 l 261 258 l 250 244 l 243 249 l 243 240 l 239 232 l 231 240 l 215 240 l 209 232 l 199 232 l 193 213 l 201 202 l 193 178 l 199 136 l 215 119 l 231 119 l 243 107 l 256 107 l 256 111 l 261 119 l 310 119 l 370 111 l 391 136 l 416 136 l 452 172 l 446 178 l 464 197 l 476 197 "},"—":{"x_min":32.84375,"x_max":743.34375,"ha":766,"o":"m 729 378 l 743 378 l 735 283 l 729 240 l 705 208 l 675 197 l 658 197 l 646 185 l 641 185 l 634 191 l 629 185 l 535 205 l 511 197 l 498 208 l 476 197 l 416 205 l 397 185 l 362 191 l 303 205 l 286 191 l 269 203 l 121 203 l 70 228 l 50 251 l 41 294 l 41 314 l 32 325 l 61 378 l 114 415 l 168 415 l 190 420 l 198 426 l 261 408 l 269 404 l 279 404 l 286 408 l 315 415 l 487 415 l 541 404 l 558 411 l 658 411 l 683 404 l 694 391 l 701 394 l 713 383 l 727 394 l 729 391 l 724 386 l 729 378 "},"=":{"x_min":51.609375,"x_max":715.8125,"ha":766,"o":"m 709 443 l 709 425 l 702 407 l 702 391 l 667 365 l 656 365 l 644 338 l 602 330 l 602 336 l 580 347 l 561 338 l 561 336 l 542 336 l 542 338 l 473 352 l 461 352 l 443 337 l 388 337 l 383 347 l 372 330 l 354 347 l 318 338 l 305 353 l 269 353 l 253 365 l 206 352 l 176 347 l 147 378 l 92 378 l 98 383 l 98 391 l 92 394 l 81 394 l 87 438 l 122 460 l 157 469 l 176 486 l 212 480 l 228 460 l 253 471 l 313 471 l 388 460 l 394 455 l 406 469 l 452 473 l 461 480 l 461 473 l 477 473 l 525 480 l 584 499 l 596 486 l 644 486 l 686 455 l 690 455 l 698 460 l 709 443 m 561 305 l 561 286 l 555 280 l 542 280 l 550 286 l 550 292 l 542 299 l 542 309 l 550 305 l 561 305 m 698 231 l 715 197 l 709 136 l 667 123 l 661 119 l 550 94 l 519 119 l 435 106 l 443 111 l 346 111 l 305 106 l 305 111 l 258 123 l 253 119 l 246 119 l 236 129 l 212 121 l 127 121 l 92 136 l 87 129 l 87 141 l 67 152 l 51 184 l 63 213 l 106 244 l 98 250 l 106 250 l 122 269 l 127 261 l 147 261 l 147 258 l 212 250 l 236 269 l 266 269 l 300 250 l 354 258 l 359 261 l 359 275 l 401 269 l 401 261 l 413 250 l 452 250 l 473 275 l 503 286 l 512 275 l 532 275 l 532 269 l 561 261 l 567 261 l 571 258 l 596 280 l 644 275 l 661 244 l 686 244 l 686 239 l 698 231 "},"N":{"x_min":13.828125,"x_max":779,"ha":766,"o":"m 513 619 l 513 614 l 504 611 l 501 628 l 504 628 l 513 619 m 529 494 l 541 404 l 535 404 l 529 378 l 517 368 l 495 408 l 525 500 l 529 494 m 773 765 l 779 770 l 779 783 l 737 700 l 732 700 l 719 689 l 719 675 l 690 681 l 653 681 l 632 669 l 632 628 l 653 590 l 632 566 l 624 536 l 636 525 l 618 464 l 632 372 l 618 359 l 618 283 l 607 283 l 602 278 l 602 264 l 618 251 l 612 247 l 624 235 l 624 179 l 618 174 l 636 150 l 636 126 l 644 107 l 653 54 l 644 41 l 648 36 l 648 17 l 624 -18 l 612 -18 l 607 -24 l 584 -24 l 541 -6 l 535 -13 l 535 -6 l 529 -1 l 517 -1 l 504 58 l 504 65 l 466 71 l 446 75 l 441 114 l 435 107 l 430 130 l 430 144 l 441 155 l 459 150 l 487 174 l 459 205 l 435 197 l 430 179 l 412 179 l 412 205 l 399 216 l 399 251 l 395 259 l 387 259 l 387 269 l 395 264 l 399 269 l 425 278 l 441 259 l 435 235 l 441 228 l 466 247 l 466 269 l 453 295 l 446 300 l 435 300 l 430 325 l 407 348 l 387 359 l 381 386 l 370 420 l 375 428 l 356 460 l 365 464 l 334 494 l 305 450 l 293 477 l 289 477 l 281 481 l 264 439 l 264 433 l 270 428 l 264 428 l 264 404 l 277 391 l 277 359 l 264 348 l 277 288 l 270 259 l 270 247 l 281 235 l 277 228 l 289 216 l 289 197 l 281 191 l 289 186 l 289 161 l 277 150 l 289 89 l 356 75 l 387 75 l 399 71 l 399 75 l 417 75 l 417 71 l 411 71 l 407 65 l 411 58 l 411 -13 l 381 -32 l 340 -24 l 215 -24 l 221 -18 l 150 -18 l 116 -32 l 81 -13 l 61 -18 l 32 -6 l 32 17 l 52 28 l 52 58 l 116 89 l 110 98 l 128 98 l 141 107 l 141 155 l 145 174 l 145 191 l 141 197 l 134 228 l 150 247 l 150 283 l 141 295 l 145 295 l 145 355 l 134 397 l 150 404 l 162 415 l 143 464 l 143 529 l 150 536 l 150 529 l 174 519 l 186 529 l 170 558 l 162 555 l 158 585 l 143 597 l 143 669 l 98 681 l 98 689 l 73 692 l 56 692 l 56 700 l 22 718 l 22 730 l 13 736 l 56 761 l 87 792 l 87 783 l 89 777 l 103 800 l 128 800 l 134 808 l 134 800 l 209 783 l 246 792 l 281 792 l 324 765 l 326 770 l 365 741 l 381 747 l 381 722 l 387 718 l 387 705 l 381 711 l 370 700 l 365 705 l 347 681 l 356 650 l 365 657 l 365 644 l 399 611 l 407 585 l 399 585 l 399 541 l 417 511 l 425 460 l 459 408 l 459 404 l 471 397 l 466 355 l 466 339 l 471 330 l 466 316 l 466 300 l 475 295 l 487 278 l 504 278 l 517 264 l 535 264 l 555 259 l 564 247 l 584 259 l 577 283 l 572 313 l 558 330 l 564 372 l 558 378 l 555 378 l 572 391 l 558 404 l 564 447 l 564 505 l 558 525 l 558 541 l 564 550 l 558 555 l 555 585 l 541 601 l 547 662 l 529 681 l 485 681 l 466 692 l 441 689 l 425 689 l 411 718 l 411 753 l 417 753 l 425 761 l 425 770 l 419 768 l 414 773 l 417 777 l 425 770 l 441 792 l 487 792 l 504 800 l 504 799 l 529 799 l 602 799 l 724 799 l 732 797 l 750 797 l 750 792 l 754 783 l 767 783 l 767 770 l 773 765 m 324 494 l 324 536 l 305 541 l 293 525 l 270 525 l 270 511 l 293 494 l 305 511 l 324 494 "},"ú":{"x_min":55.484375,"x_max":660.96875,"ha":766,"o":"m 644 216 l 660 167 l 646 144 l 651 86 l 644 68 l 617 38 l 554 -19 l 500 -38 l 354 -22 l 300 -36 l 209 -22 l 185 -8 l 173 16 l 173 30 l 233 68 l 252 73 l 281 123 l 281 179 l 271 194 l 290 231 l 279 260 l 269 277 l 269 352 l 246 380 l 246 397 l 271 426 l 269 444 l 252 460 l 218 455 l 190 423 l 185 374 l 125 319 l 103 322 l 73 344 l 65 355 l 65 460 l 55 488 l 63 520 l 84 555 l 175 591 l 221 587 l 252 574 l 287 587 l 300 594 l 357 584 l 424 602 l 460 591 l 489 569 l 499 558 l 499 520 l 478 481 l 426 452 l 409 446 l 393 423 l 393 377 l 435 341 l 505 349 l 535 330 l 582 322 l 606 284 l 632 274 l 644 216 m 535 127 l 543 161 l 481 229 l 463 229 l 424 202 l 391 197 l 372 191 l 369 167 l 375 155 l 380 94 l 399 75 l 409 75 l 424 80 l 463 73 l 520 102 l 535 127 "},"2":{"x_min":62.421875,"x_max":669.171875,"ha":766,"o":"m 661 668 l 669 661 l 646 610 l 652 571 l 612 418 l 557 388 l 505 341 l 486 313 l 473 301 l 424 301 l 395 280 l 359 271 l 312 230 l 280 219 l 243 187 l 246 180 l 252 172 l 295 165 l 315 139 l 389 139 l 437 97 l 455 97 l 477 125 l 525 152 l 571 211 l 598 235 l 632 230 l 661 172 l 661 88 l 625 45 l 632 11 l 628 5 l 594 5 l 576 -4 l 544 -7 l 514 -28 l 432 -28 l 413 -20 l 378 -20 l 334 11 l 282 11 l 232 59 l 198 54 l 144 3 l 122 -7 l 95 -1 l 70 24 l 62 80 l 70 115 l 95 147 l 104 187 l 114 205 l 141 224 l 149 235 l 154 263 l 195 292 l 214 295 l 258 332 l 272 341 l 287 369 l 287 388 l 295 396 l 326 388 l 334 382 l 361 388 l 395 418 l 418 424 l 462 467 l 516 510 l 531 568 l 526 591 l 503 616 l 497 643 l 443 708 l 315 708 l 269 688 l 246 691 l 235 691 l 217 661 l 209 618 l 243 541 l 228 516 l 168 480 l 149 485 l 89 554 l 97 646 l 107 702 l 152 738 l 168 764 l 246 807 l 300 814 l 318 819 l 427 819 l 459 796 l 505 791 l 595 749 l 612 735 l 617 691 l 635 674 l 661 668 "},"ü":{"x_min":73.390625,"x_max":615,"ha":766,"o":"m 615 176 l 615 147 l 601 97 l 527 19 l 484 -5 l 443 -19 l 415 -30 l 380 -30 l 369 -38 l 329 -11 l 293 -11 l 258 -19 l 236 -12 l 221 0 l 192 -2 l 174 -12 l 138 -2 l 110 -19 l 92 -5 l 73 25 l 81 77 l 92 86 l 136 86 l 155 77 l 174 80 l 190 97 l 182 164 l 203 228 l 190 264 l 190 305 l 198 336 l 185 385 l 185 441 l 171 463 l 136 481 l 110 488 l 89 516 l 92 544 l 146 597 l 252 597 l 276 610 l 307 608 l 329 591 l 398 591 l 409 587 l 415 579 l 409 544 l 414 499 l 391 460 l 394 444 l 394 433 l 372 415 l 364 415 l 355 430 l 355 470 l 346 479 l 337 479 l 317 449 l 317 415 l 345 394 l 342 368 l 360 368 l 380 377 l 411 360 l 470 360 l 489 366 l 527 336 l 563 325 l 549 301 l 574 282 l 606 244 l 615 176 m 461 115 l 481 211 l 470 226 l 445 244 l 400 232 l 369 255 l 334 247 l 315 255 l 291 264 l 282 226 l 291 171 l 282 141 l 310 97 l 326 97 l 342 103 l 418 103 l 426 91 l 448 88 l 461 97 l 461 115 "},"Z":{"x_min":116.890625,"x_max":650,"ha":766,"o":"m 642 316 l 650 305 l 650 219 l 629 184 l 620 158 l 629 94 l 624 81 l 620 33 l 578 16 l 547 22 l 535 33 l 524 22 l 518 27 l 492 8 l 501 3 l 471 3 l 471 8 l 460 22 l 441 8 l 405 16 l 400 8 l 400 -1 l 384 -9 l 384 -1 l 341 22 l 287 8 l 253 25 l 169 25 l 163 16 l 149 8 l 116 39 l 126 81 l 133 81 l 146 106 l 193 166 l 198 184 l 203 178 l 226 208 l 234 258 l 245 258 l 264 310 l 275 310 l 287 338 l 299 352 l 294 359 l 310 377 l 315 408 l 323 421 l 332 421 l 358 449 l 358 469 l 375 481 l 384 516 l 422 541 l 430 601 l 482 655 l 482 691 l 471 711 l 416 711 l 400 691 l 370 699 l 358 699 l 345 715 l 341 711 l 341 715 l 299 727 l 275 686 l 256 686 l 245 666 l 256 633 l 245 633 l 240 619 l 224 601 l 224 545 l 209 534 l 209 522 l 181 511 l 155 534 l 155 563 l 146 590 l 149 610 l 163 642 l 163 722 l 169 753 l 169 764 l 175 764 l 185 788 l 193 783 l 214 805 l 240 805 l 253 819 l 282 814 l 282 805 l 303 805 l 345 819 l 364 830 l 386 823 l 412 819 l 476 814 l 501 814 l 506 819 l 524 805 l 552 819 l 570 819 l 611 794 l 629 794 l 649 764 l 642 742 l 649 742 l 649 722 l 642 722 l 620 699 l 620 686 l 594 662 l 606 649 l 594 637 l 598 633 l 570 610 l 547 558 l 535 545 l 535 541 l 541 534 l 511 516 l 490 522 l 464 486 l 471 481 l 464 481 l 451 430 l 460 426 l 451 426 l 446 421 l 451 414 l 400 377 l 393 336 l 352 330 l 345 316 l 332 300 l 332 270 l 323 270 l 315 249 l 287 231 l 234 171 l 226 141 l 209 110 l 209 97 l 198 89 l 222 68 l 240 89 l 240 106 l 245 110 l 264 97 l 269 97 l 275 106 l 275 94 l 294 89 l 341 89 l 364 97 l 384 110 l 400 106 l 400 94 l 430 81 l 451 81 l 460 89 l 511 97 l 518 106 l 560 149 l 570 171 l 570 208 l 582 244 l 578 270 l 570 287 l 570 305 l 598 336 l 606 336 l 611 330 l 624 338 l 649 336 l 649 322 l 642 316 "},"u":{"x_min":-4,"x_max":725,"ha":766,"o":"m 725 63 l 725 16 l 719 8 l 719 -1 l 716 -1 l 708 -14 l 678 -14 l 672 -9 l 656 -9 l 626 -28 l 607 -28 l 607 -22 l 555 -14 l 525 -1 l 478 -1 l 478 8 l 458 27 l 395 22 l 395 16 l 370 3 l 365 3 l 359 8 l 335 -9 l 259 -28 l 251 -33 l 204 3 l 175 3 l 175 16 l 153 22 l 128 22 l 134 27 l 119 38 l 119 123 l 103 171 l 116 196 l 116 420 l 103 449 l 98 481 l 84 499 l 53 502 l 38 494 l 16 502 l -4 537 l -4 564 l 6 593 l 27 602 l 43 599 l 73 605 l 76 598 l 93 577 l 93 579 l 87 584 l 93 590 l 98 581 l 103 594 l 153 572 l 183 572 l 175 564 l 199 552 l 212 541 l 204 534 l 215 510 l 202 449 l 202 227 l 202 128 l 241 106 l 247 110 l 247 106 l 264 97 l 289 94 l 310 106 l 318 97 l 335 97 l 389 152 l 419 188 l 424 240 l 449 249 l 449 275 l 453 275 l 471 309 l 465 348 l 478 359 l 478 394 l 484 438 l 513 469 l 484 501 l 375 501 l 352 516 l 359 558 l 407 575 l 478 575 l 501 558 l 517 564 l 555 564 l 577 545 l 577 365 l 577 213 l 577 219 l 577 196 l 590 141 l 590 135 l 617 123 l 635 123 l 647 106 l 661 94 l 690 94 l 702 80 l 719 80 l 725 63 "},"Ó":{"x_min":30,"x_max":735,"ha":766,"o":"m 677 823 l 735 759 l 735 741 l 677 704 l 643 704 l 615 674 l 599 672 l 576 636 l 576 569 l 544 533 l 525 462 l 517 452 l 501 375 l 468 348 l 443 208 l 399 150 l 399 80 l 414 44 l 414 17 l 399 17 l 380 36 l 335 25 l 297 -11 l 209 -11 l 178 -30 l 169 -27 l 95 22 l 70 28 l 40 72 l 30 109 l 30 175 l 70 208 l 109 222 l 171 205 l 199 165 l 193 128 l 191 119 l 191 109 l 204 100 l 232 109 l 281 175 l 302 230 l 302 309 l 280 397 l 264 422 l 228 543 l 186 633 l 178 654 l 150 685 l 144 712 l 136 722 l 98 718 l 55 735 l 45 749 l 47 759 l 62 782 l 90 802 l 141 808 l 155 815 l 193 808 l 228 815 l 292 802 l 329 773 l 329 749 l 297 727 l 281 722 l 264 702 l 264 654 l 291 598 l 291 555 l 299 516 l 353 452 l 364 450 l 383 452 l 416 499 l 438 523 l 443 561 l 438 595 l 468 665 l 441 712 l 435 718 l 401 718 l 378 755 l 378 785 l 383 794 l 405 794 l 424 782 l 450 794 l 495 802 l 539 820 l 578 808 l 646 823 l 677 823 "},"k":{"x_min":46.75,"x_max":727.4375,"ha":766,"o":"m 675 541 l 693 541 l 681 505 l 651 516 l 651 528 l 645 535 l 667 545 l 675 541 m 561 554 l 621 545 l 616 554 l 616 511 l 574 494 l 561 478 l 485 478 l 478 455 l 473 455 l 469 463 l 473 463 l 485 486 l 485 494 l 456 505 l 409 494 l 402 486 l 397 524 l 397 535 l 456 554 l 469 541 l 485 541 l 490 524 l 490 511 l 506 511 l 536 541 l 561 554 m 716 45 l 727 22 l 716 9 l 722 2 l 722 -1 l 716 2 l 705 -7 l 667 -7 l 587 -14 l 587 -7 l 500 -7 l 485 -14 l 485 -19 l 473 -33 l 456 -28 l 444 -28 l 402 16 l 397 54 l 430 54 l 450 75 l 461 75 l 461 100 l 450 144 l 444 144 l 428 160 l 428 191 l 402 205 l 409 244 l 397 258 l 389 287 l 378 299 l 350 283 l 354 275 l 350 275 l 338 251 l 319 251 l 313 244 l 296 227 l 296 214 l 290 214 l 284 208 l 284 197 l 269 197 l 267 205 l 254 191 l 254 149 l 267 130 l 267 123 l 254 114 l 267 75 l 354 63 l 373 54 l 373 9 l 367 -1 l 350 -28 l 296 -1 l 278 -14 l 254 -14 l 235 -33 l 191 -28 l 141 -28 l 100 -36 l 84 -36 l 46 22 l 53 45 l 71 63 l 76 58 l 87 71 l 152 83 l 177 107 l 171 114 l 165 114 l 165 130 l 171 130 l 182 152 l 182 205 l 191 208 l 177 222 l 177 251 l 171 269 l 177 269 l 182 299 l 182 336 l 177 386 l 177 404 l 191 404 l 202 426 l 194 486 l 207 500 l 194 516 l 202 571 l 194 577 l 182 589 l 194 665 l 177 710 l 113 717 l 113 721 l 59 740 l 59 764 l 87 788 l 117 783 l 122 783 l 129 777 l 141 785 l 223 785 l 231 777 l 241 777 l 241 752 l 248 746 l 254 752 l 248 717 l 235 690 l 248 661 l 241 618 l 241 480 l 254 476 l 241 438 l 231 420 l 235 391 l 241 386 l 254 386 l 261 330 l 278 316 l 308 305 l 330 316 l 330 324 l 354 336 l 397 377 l 418 415 l 444 415 l 450 420 l 456 386 l 409 336 l 428 275 l 461 269 l 469 264 l 478 264 l 498 240 l 506 166 l 544 144 l 555 107 l 574 83 l 621 71 l 626 63 l 645 83 l 667 75 l 697 71 l 709 71 l 722 54 l 716 45 "},"Ù":{"x_min":21.5,"x_max":749.796875,"ha":766,"o":"m 743 -5 l 749 -24 l 743 -83 l 743 -135 l 721 -166 l 698 -181 l 648 -173 l 615 -135 l 606 -116 l 623 -60 l 615 -33 l 503 -5 l 470 -19 l 424 -11 l 356 -11 l 307 -16 l 271 -2 l 250 -11 l 203 -11 l 144 -11 l 40 22 l 21 59 l 24 77 l 75 123 l 75 197 l 86 208 l 92 244 l 78 325 l 95 380 l 95 450 l 107 476 l 107 561 l 115 584 l 106 625 l 106 686 l 106 716 l 55 750 l 50 769 l 73 829 l 92 836 l 127 836 l 164 844 l 198 837 l 214 823 l 269 805 l 300 828 l 461 828 l 509 791 l 552 823 l 606 810 l 706 810 l 723 797 l 732 789 l 723 755 l 695 714 l 677 700 l 662 686 l 662 537 l 662 464 l 655 433 l 666 372 l 653 336 l 653 277 l 653 121 l 703 77 l 721 67 l 732 55 l 743 -5 m 332 500 l 344 591 l 332 616 l 324 672 l 307 705 l 271 741 l 260 714 l 233 694 l 206 633 l 218 519 l 211 458 l 205 361 l 205 194 l 214 186 l 236 182 l 258 168 l 266 121 l 277 121 l 291 123 l 291 171 l 300 194 l 324 219 l 324 291 l 315 344 l 326 397 l 318 455 l 332 473 l 332 500 m 563 529 l 579 605 l 570 643 l 563 700 l 552 716 l 509 750 l 478 723 l 452 694 l 452 653 l 441 611 l 441 587 l 441 402 l 441 352 l 427 300 l 444 277 l 444 241 l 432 194 l 453 168 l 453 112 l 486 97 l 527 97 l 546 112 l 552 130 l 543 208 l 552 226 l 552 277 l 570 300 l 577 325 l 570 365 l 577 397 l 577 455 l 563 529 "},"¢":{"x_min":57,"x_max":811,"ha":766,"o":"m 521 843 l 609 807 l 598 716 l 572 702 l 521 709 l 493 709 l 440 663 l 413 663 l 386 691 l 343 683 l 315 683 l 307 709 l 255 709 l 226 683 l 226 691 l 237 702 l 192 727 l 167 761 l 167 798 l 192 825 l 226 807 l 243 761 l 269 735 l 288 735 l 299 746 l 299 735 l 357 727 l 369 727 l 386 709 l 465 761 l 503 836 l 521 843 m 811 528 l 811 500 l 789 524 l 763 500 l 729 500 l 692 463 l 655 463 l 591 385 l 586 366 l 568 353 l 563 335 l 568 292 l 568 269 l 538 224 l 541 210 l 565 194 l 563 185 l 511 147 l 498 130 l 498 62 l 493 44 l 500 6 l 510 -11 l 498 -41 l 476 -25 l 456 -25 l 443 -36 l 443 -48 l 456 -61 l 482 -52 l 510 -88 l 503 -119 l 484 -132 l 468 -129 l 456 -99 l 443 -91 l 432 -99 l 427 -108 l 427 -167 l 432 -182 l 443 -192 l 468 -192 l 487 -174 l 498 -174 l 498 -200 l 476 -222 l 443 -203 l 383 -203 l 349 -258 l 312 -241 l 237 -284 l 200 -275 l 181 -266 l 133 -258 l 63 -200 l 57 -122 l 57 -63 l 76 -25 l 123 9 l 152 6 l 206 -25 l 237 -73 l 237 -86 l 224 -94 l 224 -104 l 237 -113 l 266 -111 l 277 -111 l 286 -99 l 286 -77 l 312 -73 l 322 -63 l 322 -27 l 342 -16 l 352 -5 l 352 74 l 309 155 l 303 185 l 309 219 l 303 230 l 276 248 l 265 266 l 265 303 l 209 357 l 209 419 l 164 463 l 97 471 l 69 481 l 58 497 l 66 528 l 84 555 l 120 569 l 239 569 l 258 561 l 328 561 l 364 536 l 404 528 l 430 552 l 446 552 l 468 566 l 555 577 l 582 558 l 680 581 l 718 574 l 747 545 l 783 552 l 811 528 m 468 416 l 493 419 l 493 432 l 450 460 l 391 471 l 367 444 l 354 444 l 328 468 l 317 463 l 312 419 l 320 394 l 337 388 l 354 394 l 360 388 l 364 360 l 357 353 l 337 351 l 337 341 l 359 310 l 359 274 l 391 230 l 427 213 l 432 258 l 459 303 l 459 342 l 450 391 l 468 416 "},"ß":{"x_min":35,"x_max":792.28125,"ha":766,"o":"m 769 80 l 792 69 l 766 36 l 756 7 l 696 -22 l 666 -13 l 578 -22 l 541 -10 l 450 -19 l 389 -1 l 367 30 l 362 78 l 354 86 l 354 89 l 362 99 l 413 99 l 437 110 l 481 110 l 492 122 l 487 161 l 474 180 l 450 183 l 443 189 l 477 194 l 484 208 l 484 255 l 506 316 l 514 322 l 514 335 l 487 346 l 437 395 l 402 395 l 378 365 l 332 365 l 302 322 l 278 125 l 272 118 l 272 51 l 240 4 l 193 -22 l 120 -22 l 68 7 l 59 33 l 35 62 l 35 136 l 51 180 l 75 189 l 126 173 l 160 180 l 189 211 l 189 349 l 212 377 l 206 421 l 180 468 l 160 475 l 138 500 l 122 536 l 122 688 l 132 707 l 178 749 l 206 767 l 241 802 l 284 810 l 315 830 l 354 833 l 529 833 l 557 836 l 598 822 l 647 822 l 707 822 l 729 810 l 746 780 l 746 725 l 702 694 l 666 694 l 647 707 l 632 702 l 612 671 l 624 616 l 615 516 l 615 463 l 615 244 l 617 208 l 606 189 l 617 125 l 647 104 l 705 97 l 737 78 l 769 80 m 514 610 l 523 656 l 511 710 l 506 710 l 495 707 l 477 680 l 462 674 l 450 688 l 450 718 l 413 738 l 354 744 l 338 736 l 296 736 l 272 718 l 229 671 l 222 627 l 231 616 l 231 530 l 266 489 l 370 489 l 405 463 l 432 463 l 484 500 l 514 555 l 521 588 l 514 610 "},"é":{"x_min":79.265625,"x_max":644.59375,"ha":766,"o":"m 577 788 l 584 715 l 566 696 l 547 694 l 533 677 l 533 614 l 515 614 l 482 644 l 468 644 l 454 622 l 454 614 l 425 619 l 404 601 l 373 601 l 361 624 l 361 662 l 350 674 l 324 662 l 316 651 l 316 638 l 332 622 l 332 614 l 326 614 l 305 619 l 290 638 l 277 633 l 267 614 l 253 601 l 248 614 l 248 641 l 233 658 l 190 658 l 157 712 l 149 759 l 157 791 l 212 833 l 243 852 l 269 847 l 284 836 l 305 836 l 321 762 l 326 755 l 340 730 l 359 724 l 376 730 l 389 778 l 410 765 l 433 762 l 433 799 l 493 844 l 523 838 l 577 788 m 630 585 l 644 566 l 641 541 l 616 521 l 566 511 l 553 521 l 544 521 l 535 505 l 544 449 l 535 419 l 553 391 l 553 296 l 547 283 l 517 292 l 493 347 l 487 354 l 433 354 l 418 319 l 396 301 l 399 272 l 381 269 l 370 258 l 367 240 l 344 225 l 335 211 l 335 149 l 324 140 l 284 140 l 269 122 l 284 59 l 272 31 l 253 19 l 204 31 l 186 21 l 90 21 l 82 39 l 82 51 l 98 67 l 152 67 l 176 97 l 223 106 l 235 168 l 230 205 l 212 217 l 178 217 l 157 269 l 170 307 l 155 435 l 155 511 l 133 528 l 90 528 l 79 539 l 82 558 l 104 569 l 136 566 l 176 550 l 235 575 l 248 575 l 261 550 l 280 533 l 288 505 l 267 459 l 233 430 l 233 406 l 258 372 l 277 333 l 287 333 l 307 316 l 332 292 l 356 292 l 359 316 l 378 351 l 400 383 l 386 415 l 410 429 l 415 477 l 396 521 l 404 539 l 421 553 l 444 550 l 468 533 l 487 539 l 498 560 l 533 560 l 566 585 l 630 585 m 616 56 l 616 41 l 595 36 l 569 16 l 530 23 l 490 23 l 478 31 l 454 16 l 425 19 l 417 39 l 417 51 l 433 65 l 475 65 l 482 69 l 475 112 l 482 141 l 507 168 l 507 187 l 492 222 l 492 258 l 515 255 l 533 225 l 547 177 l 547 141 l 535 124 l 541 100 l 596 67 l 605 67 l 616 56 m 196 425 l 196 444 l 190 444 l 178 427 l 180 425 l 196 425 "},"s":{"x_min":122,"x_max":646,"ha":766,"o":"m 646 244 l 646 196 l 641 152 l 641 135 l 598 94 l 598 80 l 594 88 l 541 33 l 481 21 l 476 16 l 432 2 l 421 -10 l 416 -1 l 399 -14 l 361 16 l 357 8 l 339 8 l 326 21 l 320 16 l 290 33 l 239 27 l 172 8 l 154 8 l 122 51 l 122 96 l 122 157 l 132 183 l 138 188 l 132 196 l 125 219 l 125 239 l 132 249 l 143 268 l 172 274 l 201 244 l 201 231 l 231 208 l 243 208 l 239 202 l 268 188 l 285 188 l 290 171 l 281 152 l 309 135 l 326 141 l 345 152 l 369 128 l 361 106 l 369 97 l 380 97 l 385 119 l 429 119 l 437 106 l 446 106 l 463 123 l 458 141 l 463 149 l 481 128 l 506 135 l 518 196 l 541 208 l 547 213 l 547 219 l 541 227 l 534 244 l 486 280 l 463 286 l 432 309 l 429 305 l 409 305 l 399 316 l 391 309 l 339 299 l 315 309 l 255 316 l 201 359 l 192 359 l 184 352 l 154 394 l 143 443 l 138 480 l 138 499 l 184 577 l 201 581 l 297 618 l 326 610 l 331 606 l 345 618 l 385 606 l 421 606 l 451 581 l 492 577 l 506 558 l 518 558 l 541 594 l 547 594 l 557 606 l 581 600 l 585 594 l 594 594 l 588 599 l 595 603 l 598 600 l 594 594 l 594 581 l 598 577 l 615 534 l 598 485 l 594 480 l 606 469 l 598 469 l 598 449 l 612 420 l 598 401 l 569 401 l 576 407 l 534 449 l 522 485 l 446 545 l 409 541 l 409 545 l 380 552 l 349 558 l 320 558 l 290 552 l 231 502 l 221 491 l 239 469 l 239 455 l 231 455 l 227 460 l 214 443 l 227 430 l 227 407 l 255 383 l 326 383 l 357 377 l 416 371 l 416 364 l 446 347 l 467 359 l 534 352 l 576 316 l 598 316 l 612 280 l 646 244 "},"B":{"x_min":79,"x_max":743.5,"ha":766,"o":"m 727 281 l 743 216 l 738 197 l 719 155 l 719 108 l 701 89 l 667 78 l 653 53 l 650 53 l 642 47 l 642 30 l 590 4 l 547 4 l 542 0 l 531 0 l 531 4 l 524 10 l 511 0 l 490 4 l 458 -12 l 446 0 l 400 4 l 362 13 l 275 13 l 270 10 l 163 10 l 139 4 l 134 10 l 122 0 l 87 39 l 109 69 l 122 69 l 134 83 l 169 78 l 186 78 l 186 69 l 199 59 l 240 78 l 256 94 l 254 100 l 256 100 l 270 138 l 265 173 l 256 202 l 270 216 l 270 354 l 255 421 l 255 458 l 265 469 l 265 504 l 270 513 l 256 523 l 245 579 l 256 633 l 240 680 l 254 694 l 254 703 l 240 716 l 194 686 l 175 694 l 163 703 l 122 699 l 122 703 l 105 710 l 79 741 l 79 771 l 105 793 l 139 808 l 150 808 l 155 802 l 163 808 l 180 814 l 180 820 l 205 814 l 215 802 l 240 808 l 275 802 l 303 820 l 341 808 l 387 814 l 387 808 l 412 808 l 422 817 l 490 817 l 511 808 l 542 788 l 590 788 l 590 783 l 599 775 l 599 771 l 613 759 l 621 764 l 621 771 l 653 746 l 650 741 l 667 730 l 667 723 l 659 716 l 673 703 l 673 686 l 701 655 l 719 621 l 714 572 l 714 553 l 708 553 l 678 481 l 653 469 l 650 452 l 650 433 l 659 421 l 653 415 l 714 354 l 714 301 l 727 281 m 599 523 l 608 547 l 608 590 l 590 624 l 583 633 l 590 638 l 586 644 l 580 635 l 583 633 l 571 633 l 547 680 l 524 675 l 518 669 l 490 675 l 490 694 l 458 686 l 412 680 l 370 703 l 358 694 l 352 664 l 346 664 l 346 651 l 331 621 l 331 516 l 324 516 l 324 499 l 330 487 l 332 462 l 346 452 l 387 458 l 400 444 l 416 465 l 452 465 l 535 465 l 553 481 l 578 487 l 578 499 l 599 523 m 637 167 l 650 197 l 650 281 l 630 301 l 625 294 l 613 305 l 613 311 l 571 354 l 561 354 l 524 372 l 476 372 l 435 383 l 422 391 l 405 380 l 370 372 l 341 391 l 330 383 l 330 366 l 310 354 l 324 341 l 315 336 l 310 336 l 315 324 l 324 319 l 315 272 l 330 216 l 330 124 l 341 92 l 430 92 l 535 92 l 590 100 l 595 108 l 595 130 l 613 161 l 621 161 l 637 167 "},"…":{"x_min":43.640625,"x_max":730.0625,"ha":766,"o":"m 664 283 l 692 250 l 711 234 l 711 207 l 719 205 l 730 174 l 711 123 l 711 94 l 705 94 l 701 70 l 701 54 l 646 27 l 612 3 l 586 3 l 582 -1 l 570 9 l 544 -1 l 541 -7 l 522 -1 l 492 27 l 486 22 l 467 22 l 451 45 l 435 106 l 421 114 l 427 114 l 427 130 l 421 196 l 451 250 l 492 283 l 503 283 l 522 300 l 563 313 l 570 305 l 582 305 l 586 316 l 664 283 m 284 277 l 312 245 l 332 228 l 332 202 l 338 199 l 351 169 l 332 118 l 332 89 l 326 89 l 321 65 l 321 48 l 266 22 l 232 -3 l 206 -3 l 204 -7 l 190 4 l 166 -7 l 161 -12 l 144 -7 l 114 22 l 107 16 l 89 16 l 72 38 l 55 99 l 43 108 l 45 108 l 45 125 l 45 189 l 72 245 l 114 277 l 123 277 l 144 294 l 183 306 l 190 300 l 204 300 l 206 310 l 284 277 "},"?":{"x_min":106.03125,"x_max":656.453125,"ha":766,"o":"m 652 572 l 656 572 l 615 502 l 580 469 l 516 404 l 495 394 l 479 394 l 443 372 l 432 360 l 438 316 l 449 300 l 449 269 l 427 225 l 342 225 l 338 232 l 326 232 l 310 261 l 301 269 l 313 283 l 313 305 l 301 316 l 289 336 l 289 349 l 297 349 l 301 372 l 313 392 l 326 392 l 332 404 l 348 404 l 383 464 l 402 464 l 414 480 l 438 494 l 473 500 l 495 534 l 495 572 l 492 578 l 487 625 l 467 655 l 438 666 l 438 675 l 418 694 l 313 694 l 289 705 l 258 675 l 250 675 l 229 655 l 272 637 l 301 601 l 297 584 l 289 578 l 301 563 l 289 555 l 297 546 l 289 546 l 284 529 l 279 534 l 258 517 l 229 517 l 206 500 l 195 500 l 178 517 l 149 502 l 111 529 l 106 578 l 111 578 l 118 601 l 130 675 l 170 722 l 170 736 l 224 771 l 255 783 l 258 789 l 284 797 l 338 805 l 360 819 l 406 814 l 449 805 l 461 797 l 521 789 l 533 771 l 567 771 l 615 698 l 634 650 l 652 637 l 644 578 l 652 572 m 504 89 l 516 75 l 509 46 l 492 17 l 487 10 l 467 10 l 467 17 l 449 17 l 427 -1 l 378 -9 l 367 -14 l 348 -14 l 310 10 l 289 2 l 250 28 l 250 71 l 255 64 l 272 100 l 348 166 l 367 192 l 372 192 l 383 179 l 402 179 l 457 149 l 461 152 l 469 141 l 476 147 l 479 141 l 473 136 l 495 111 l 504 94 l 504 89 "},"H":{"x_min":40.9375,"x_max":745.609375,"ha":766,"o":"m 740 752 l 745 701 l 697 680 l 672 688 l 669 680 l 638 677 l 655 641 l 630 610 l 630 491 l 621 459 l 615 452 l 627 436 l 621 409 l 615 380 l 604 356 l 621 338 l 615 277 l 609 272 l 621 258 l 621 252 l 615 248 l 627 229 l 615 216 l 615 193 l 609 167 l 618 163 l 618 72 l 650 66 l 669 66 l 697 86 l 732 53 l 726 16 l 702 -6 l 680 0 l 672 6 l 669 0 l 634 -12 l 634 -3 l 456 -3 l 436 16 l 436 41 l 433 46 l 461 66 l 467 66 l 473 59 l 521 97 l 521 86 l 525 78 l 538 78 l 550 108 l 544 127 l 544 144 l 555 158 l 545 216 l 555 229 l 545 248 l 555 288 l 550 338 l 545 330 l 545 344 l 525 350 l 508 350 l 503 374 l 477 391 l 473 385 l 427 380 l 407 350 l 389 369 l 397 374 l 355 385 l 313 380 l 301 380 l 279 350 l 266 360 l 272 369 l 272 374 l 258 385 l 240 374 l 240 338 l 240 235 l 230 229 l 237 229 l 237 223 l 230 223 l 225 205 l 225 174 l 237 149 l 237 78 l 253 66 l 266 53 l 295 66 l 318 59 l 327 66 l 327 72 l 349 53 l 349 10 l 313 -6 l 258 0 l 242 0 l 242 6 l 207 6 l 153 -6 l 111 -6 l 106 -12 l 64 10 l 60 16 l 60 66 l 111 72 l 147 53 l 177 59 l 170 127 l 166 138 l 166 158 l 170 158 l 170 174 l 161 187 l 170 235 l 161 248 l 166 301 l 170 313 l 170 330 l 161 344 l 153 338 l 153 391 l 177 409 l 166 429 l 170 436 l 147 447 l 161 459 l 161 491 l 166 494 l 166 508 l 161 513 l 142 543 l 166 572 l 161 598 l 142 616 l 161 663 l 136 688 l 102 711 l 70 711 l 64 719 l 51 719 l 40 741 l 47 771 l 76 797 l 111 797 l 118 791 l 131 807 l 131 802 l 191 791 l 199 799 l 285 799 l 339 799 l 343 791 l 355 791 l 349 784 l 368 771 l 373 766 l 378 766 l 383 779 l 397 779 l 403 784 l 403 779 l 407 771 l 444 802 l 489 797 l 495 791 l 503 797 l 655 797 l 685 791 l 697 802 l 723 791 l 732 761 l 740 752 m 521 494 l 532 508 l 532 537 l 515 569 l 532 602 l 525 610 l 508 621 l 503 645 l 521 680 l 489 694 l 477 688 l 473 680 l 414 706 l 389 719 l 389 732 l 368 741 l 368 701 l 349 701 l 339 688 l 329 694 l 301 701 l 285 680 l 253 680 l 253 671 l 258 651 l 250 610 l 258 598 l 252 580 l 252 520 l 258 491 l 301 482 l 339 469 l 359 465 l 373 482 l 427 482 l 436 465 l 473 465 l 515 500 l 521 494 m 285 633 l 285 621 l 272 627 l 272 658 l 285 671 l 285 658 l 279 658 l 272 651 l 285 633 m 279 555 l 279 543 l 272 543 l 272 561 l 279 555 "},"î":{"x_min":103.828125,"x_max":645.609375,"ha":766,"o":"m 630 372 l 645 251 l 630 189 l 591 85 l 550 39 l 527 16 l 490 -14 l 395 -14 l 381 -25 l 355 -25 l 338 -8 l 299 -19 l 264 -6 l 237 -6 l 185 41 l 167 47 l 149 82 l 128 103 l 121 155 l 103 241 l 112 280 l 112 341 l 136 407 l 158 450 l 163 485 l 182 502 l 212 510 l 240 546 l 267 555 l 299 575 l 318 575 l 327 566 l 348 575 l 355 583 l 395 575 l 485 563 l 531 516 l 547 516 l 591 444 l 630 372 m 563 211 l 585 269 l 573 291 l 544 391 l 501 460 l 436 460 l 410 485 l 291 499 l 267 468 l 210 418 l 201 327 l 181 298 l 181 280 l 191 244 l 191 211 l 212 139 l 227 139 l 267 85 l 327 49 l 373 49 l 412 49 l 425 54 l 446 54 l 457 59 l 485 94 l 495 94 l 527 115 l 539 158 l 563 211 "},"c":{"x_min":95,"x_max":658.8125,"ha":766,"o":"m 646 135 l 658 123 l 634 94 l 617 83 l 620 74 l 588 33 l 575 22 l 558 22 l 547 3 l 541 3 l 533 9 l 515 -7 l 492 -7 l 482 -28 l 456 -28 l 437 -36 l 415 -34 l 384 -50 l 367 -36 l 364 -45 l 351 -34 l 310 -34 l 190 41 l 172 58 l 130 135 l 126 130 l 109 150 l 114 152 l 114 166 l 109 174 l 102 244 l 95 287 l 95 294 l 109 305 l 109 342 l 114 377 l 160 455 l 178 469 l 172 476 l 178 476 l 190 499 l 220 516 l 227 535 l 233 543 l 227 549 l 232 554 l 236 545 l 244 545 l 250 554 l 315 571 l 321 565 l 338 577 l 375 589 l 381 583 l 384 596 l 384 589 l 397 583 l 451 577 l 468 577 l 482 565 l 503 571 l 547 529 l 552 529 l 558 535 l 588 510 l 588 499 l 592 494 l 604 494 l 598 485 l 630 455 l 630 438 l 642 426 l 630 408 l 634 404 l 642 404 l 620 348 l 620 342 l 630 336 l 617 336 l 575 299 l 533 305 l 515 316 l 503 305 l 487 313 l 482 330 l 482 336 l 473 342 l 473 377 l 515 426 l 511 438 l 473 463 l 468 480 l 415 499 l 375 505 l 338 480 l 310 469 l 291 469 l 266 446 l 227 404 l 227 394 l 207 377 l 215 371 l 215 355 l 207 355 l 207 336 l 227 250 l 232 244 l 227 244 l 227 205 l 255 150 l 278 150 l 310 106 l 338 94 l 381 70 l 421 74 l 463 100 l 468 100 l 473 94 l 487 130 l 498 130 l 541 174 l 533 179 l 604 205 l 652 191 l 652 152 l 646 135 "},"¶":{"x_min":60,"x_max":727.40625,"ha":766,"o":"m 716 82 l 727 51 l 716 21 l 648 -4 l 588 -14 l 318 -14 l 276 13 l 207 -8 l 183 9 l 183 21 l 193 33 l 218 77 l 253 69 l 294 99 l 324 154 l 336 284 l 299 327 l 239 351 l 158 351 l 109 369 l 109 428 l 95 478 l 72 516 l 60 604 l 79 688 l 114 739 l 125 776 l 204 799 l 253 829 l 412 829 l 552 829 l 667 834 l 721 794 l 727 766 l 697 739 l 643 739 l 613 725 l 558 739 l 546 725 l 555 662 l 551 641 l 551 624 l 551 538 l 551 406 l 570 363 l 560 303 l 560 221 l 560 138 l 584 113 l 613 99 l 716 82 m 432 534 l 452 558 l 441 651 l 441 719 l 427 739 l 389 730 l 381 707 l 381 474 l 408 455 l 427 474 l 432 534 m 452 160 l 443 252 l 443 369 l 401 382 l 401 332 l 383 210 l 408 123 l 414 123 l 452 160 "},"•":{"x_min":209.546875,"x_max":518.40625,"ha":766,"o":"m 506 354 l 518 324 l 498 272 l 498 243 l 492 243 l 490 219 l 490 202 l 435 177 l 400 153 l 375 153 l 370 147 l 357 158 l 332 147 l 329 141 l 310 147 l 281 177 l 274 172 l 255 172 l 239 194 l 223 255 l 209 264 l 215 264 l 215 280 l 209 345 l 239 401 l 281 433 l 291 433 l 310 450 l 351 462 l 357 456 l 370 456 l 375 467 l 451 433 l 498 383 l 498 358 l 506 354 "},"¥":{"x_min":44,"x_max":805.890625,"ha":766,"o":"m 781 764 l 805 733 l 797 640 l 795 630 l 786 625 l 778 625 l 740 705 l 721 713 l 694 707 l 680 693 l 694 652 l 677 616 l 658 579 l 615 558 l 579 566 l 563 611 l 531 625 l 531 649 l 536 660 l 533 680 l 503 705 l 443 685 l 443 591 l 433 561 l 433 476 l 425 429 l 433 400 l 433 333 l 440 252 l 425 147 l 425 130 l 430 111 l 476 77 l 498 68 l 526 39 l 550 39 l 550 22 l 509 9 l 443 -25 l 397 -25 l 381 -32 l 345 -32 l 324 -19 l 288 -30 l 215 -16 l 188 -30 l 118 -30 l 72 0 l 44 39 l 44 65 l 109 102 l 141 111 l 190 176 l 179 269 l 198 305 l 190 361 l 196 415 l 196 450 l 188 468 l 198 558 l 188 594 l 188 669 l 160 698 l 100 698 l 67 764 l 67 808 l 76 820 l 126 820 l 144 828 l 198 828 l 204 833 l 245 825 l 285 833 l 395 823 l 509 823 l 524 828 l 573 819 l 615 819 l 699 781 l 716 779 l 724 764 l 732 755 l 769 764 l 781 764 m 379 333 l 395 372 l 387 415 l 395 433 l 379 494 l 379 561 l 370 597 l 376 642 l 353 680 l 340 680 l 332 660 l 336 647 l 336 602 l 321 566 l 332 529 l 320 505 l 320 226 l 307 188 l 315 161 l 307 123 l 315 111 l 336 105 l 365 115 l 365 170 l 370 186 l 376 241 l 370 282 l 379 333 m 563 1147 l 571 1127 l 547 1075 l 517 1075 l 465 1027 l 425 983 l 387 953 l 395 927 l 365 898 l 356 869 l 334 849 l 288 875 l 280 869 l 266 869 l 217 951 l 250 977 l 255 1013 l 300 1088 l 329 1102 l 387 1183 l 506 1248 l 533 1199 l 558 1177 l 571 1147 l 563 1147 "},"(":{"x_min":300.421875,"x_max":586,"ha":766,"o":"m 586 941 l 586 881 l 514 807 l 514 784 l 429 700 l 406 518 l 378 493 l 378 296 l 397 260 l 397 237 l 383 227 l 406 202 l 421 128 l 465 21 l 560 -86 l 575 -150 l 575 -175 l 538 -197 l 429 -86 l 421 -39 l 358 45 l 326 213 l 300 371 l 326 577 l 372 685 l 465 857 l 551 941 l 586 941 "},"U":{"x_min":38.109375,"x_max":744,"ha":766,"o":"m 744 758 l 744 715 l 680 702 l 661 715 l 629 702 l 611 686 l 627 578 l 627 511 l 625 511 l 609 480 l 620 439 l 620 360 l 629 349 l 623 349 l 623 261 l 611 208 l 629 185 l 629 167 l 625 167 l 620 142 l 611 142 l 601 129 l 601 111 l 590 97 l 570 39 l 549 22 l 541 27 l 531 2 l 524 8 l 519 2 l 500 -13 l 465 -22 l 446 -44 l 430 -44 l 430 -38 l 413 -22 l 383 -33 l 353 -22 l 318 -22 l 287 -9 l 287 -1 l 252 2 l 228 16 l 206 75 l 206 80 l 168 123 l 152 173 l 152 305 l 176 331 l 147 391 l 164 426 l 152 511 l 164 511 l 164 546 l 152 578 l 157 582 l 152 590 l 152 611 l 157 619 l 152 625 l 157 633 l 147 655 l 147 698 l 126 727 l 104 711 l 87 722 l 46 727 l 51 733 l 46 741 l 38 777 l 46 777 l 62 795 l 68 789 l 87 789 l 98 800 l 98 795 l 122 783 l 157 795 l 164 789 l 168 789 l 180 800 l 215 789 l 223 795 l 215 800 l 244 789 l 258 800 l 304 795 l 341 777 l 341 722 l 334 715 l 269 702 l 269 711 l 240 711 l 223 680 l 228 643 l 240 633 l 235 611 l 212 582 l 215 578 l 206 564 l 228 542 l 215 480 l 215 430 l 206 408 l 212 401 l 223 372 l 215 331 l 212 331 l 212 287 l 223 275 l 215 269 l 228 258 l 215 244 l 228 208 l 244 214 l 240 208 l 244 203 l 258 203 l 258 185 l 266 179 l 252 167 l 258 150 l 258 136 l 295 119 l 329 111 l 329 107 l 341 96 l 430 96 l 465 107 l 500 150 l 489 158 l 500 173 l 524 173 l 549 203 l 541 208 l 535 219 l 549 232 l 541 240 l 535 293 l 524 305 l 524 349 l 531 339 l 541 383 l 541 414 l 554 426 l 541 444 l 541 469 l 535 486 l 541 491 l 535 499 l 531 542 l 535 542 l 541 546 l 524 578 l 531 601 l 526 597 l 522 601 l 524 607 l 531 601 l 549 633 l 541 662 l 531 672 l 524 691 l 500 711 l 453 711 l 413 715 l 400 741 l 405 744 l 405 758 l 413 758 l 430 789 l 465 789 l 477 800 l 489 800 l 500 789 l 531 795 l 549 800 l 560 800 l 560 795 l 595 771 l 611 783 l 655 783 l 666 795 l 684 795 l 696 789 l 718 783 l 744 758 m 506 275 l 512 269 l 481 258 l 477 293 l 506 280 l 506 275 "},"Ñ":{"x_min":54.46875,"x_max":686.21875,"ha":766,"o":"m 678 625 l 686 617 l 680 589 l 651 581 l 631 481 l 609 460 l 579 463 l 525 517 l 515 611 l 506 644 l 461 672 l 454 694 l 415 727 l 378 750 l 352 750 l 307 730 l 206 625 l 167 453 l 167 407 l 160 378 l 172 304 l 195 240 l 198 222 l 233 203 l 226 175 l 233 153 l 276 117 l 323 92 l 334 78 l 360 81 l 406 116 l 443 116 l 533 222 l 539 275 l 552 286 l 607 296 l 631 292 l 645 275 l 645 246 l 629 220 l 629 128 l 585 100 l 579 81 l 552 60 l 530 14 l 515 4 l 469 -3 l 440 -21 l 350 -12 l 315 -12 l 293 6 l 241 6 l 152 83 l 98 190 l 98 203 l 76 228 l 61 314 l 54 333 l 64 383 l 64 453 l 72 500 l 78 553 l 135 675 l 206 755 l 241 765 l 285 802 l 329 820 l 424 811 l 533 783 l 578 805 l 612 811 l 631 805 l 659 775 l 659 718 l 634 680 l 649 625 l 649 620 l 664 620 l 667 625 l 678 625 "},"F":{"x_min":59.78125,"x_max":715.390625,"ha":766,"o":"m 690 542 l 715 499 l 699 446 l 680 428 l 633 452 l 633 499 l 627 524 l 615 536 l 615 554 l 639 589 l 627 597 l 604 621 l 604 663 l 585 680 l 552 680 l 539 718 l 521 718 l 492 694 l 475 708 l 408 708 l 402 688 l 372 671 l 360 677 l 344 701 l 344 663 l 348 657 l 348 650 l 337 641 l 326 621 l 344 585 l 326 536 l 331 491 l 326 491 l 318 481 l 337 469 l 348 459 l 356 464 l 356 459 l 360 452 l 366 459 l 386 464 l 395 452 l 408 464 l 402 469 l 408 469 l 424 507 l 467 520 l 467 560 l 475 585 l 479 589 l 467 616 l 479 641 l 492 641 l 487 643 l 495 650 l 498 645 l 492 641 l 509 621 l 509 602 l 498 589 l 527 554 l 527 520 l 514 499 l 514 330 l 521 301 l 527 236 l 521 236 l 514 240 l 503 229 l 475 229 l 475 240 l 467 248 l 456 248 l 456 272 l 450 278 l 456 278 l 463 284 l 463 289 l 450 295 l 456 313 l 463 349 l 443 374 l 424 380 l 414 369 l 386 369 l 356 356 l 337 361 l 331 361 l 326 369 l 307 319 l 318 308 l 307 295 l 317 278 l 317 205 l 307 197 l 318 187 l 318 119 l 348 82 l 467 82 l 465 83 l 469 86 l 475 86 l 467 77 l 484 66 l 498 41 l 475 -5 l 344 -5 l 337 -13 l 331 -13 l 318 -2 l 238 -2 l 95 -2 l 81 36 l 95 54 l 89 72 l 136 86 l 136 77 l 178 72 l 196 86 l 196 77 l 201 72 l 242 108 l 242 158 l 255 174 l 261 197 l 261 216 l 245 229 l 245 319 l 238 349 l 247 428 l 238 452 l 238 589 l 219 621 l 225 677 l 212 701 l 196 701 l 129 694 l 123 688 l 112 701 l 95 701 l 59 750 l 65 750 l 78 779 l 95 797 l 112 797 l 136 805 l 242 805 l 296 814 l 307 802 l 348 821 l 391 808 l 463 808 l 475 802 l 492 802 l 487 808 l 495 810 l 498 808 l 492 802 l 503 791 l 521 808 l 521 802 l 593 802 l 633 784 l 639 791 l 680 723 l 680 710 l 675 706 l 680 701 l 686 680 l 680 680 l 675 663 l 675 645 l 686 632 l 680 627 l 699 589 l 690 554 l 686 549 l 690 542 "},":":{"x_min":215,"x_max":505.890625,"ha":766,"o":"m 481 491 l 495 473 l 495 383 l 481 360 l 467 360 l 451 322 l 446 330 l 438 322 l 404 310 l 386 306 l 381 300 l 381 293 l 361 306 l 349 306 l 349 310 l 291 317 l 291 322 l 285 330 l 281 349 l 269 349 l 239 391 l 239 473 l 252 500 l 269 516 l 261 522 l 297 552 l 326 558 l 344 564 l 369 577 l 435 558 l 467 522 l 481 491 m 492 123 l 505 111 l 497 51 l 492 22 l 463 -22 l 451 -33 l 409 -38 l 381 -62 l 349 -56 l 326 -44 l 320 -52 l 303 -33 l 297 -38 l 272 -13 l 272 -1 l 252 8 l 239 27 l 221 45 l 227 51 l 215 64 l 215 89 l 221 89 l 227 94 l 221 97 l 243 141 l 252 150 l 269 152 l 297 203 l 303 203 l 309 197 l 375 240 l 386 240 l 400 227 l 404 231 l 409 213 l 430 208 l 430 203 l 458 189 l 481 166 l 492 123 "},"Û":{"x_min":16.546875,"x_max":849.359375,"ha":766,"o":"m 425 755 l 425 739 l 414 728 l 399 728 l 399 758 l 401 762 l 425 755 m 835 744 l 849 721 l 843 707 l 807 683 l 794 672 l 783 616 l 762 606 l 752 610 l 741 624 l 737 656 l 729 665 l 723 665 l 714 646 l 714 597 l 700 572 l 689 470 l 698 441 l 689 383 l 698 347 l 689 301 l 700 219 l 689 188 l 695 127 l 704 121 l 747 110 l 789 60 l 799 22 l 799 12 l 747 -14 l 634 -14 l 598 -25 l 556 -14 l 539 0 l 493 7 l 414 -21 l 359 -21 l 342 -32 l 318 -32 l 298 -12 l 253 -12 l 225 -24 l 174 -24 l 128 -24 l 110 -30 l 79 -22 l 41 0 l 24 36 l 45 92 l 95 121 l 125 188 l 117 272 l 125 301 l 114 378 l 125 407 l 114 488 l 120 508 l 120 680 l 110 700 l 27 739 l 16 765 l 30 810 l 107 829 l 128 820 l 162 829 l 199 817 l 225 823 l 250 813 l 287 829 l 301 829 l 324 794 l 345 773 l 345 739 l 305 712 l 253 707 l 218 672 l 232 597 l 240 588 l 240 572 l 223 560 l 223 536 l 246 486 l 250 480 l 275 499 l 305 475 l 353 475 l 373 450 l 399 452 l 416 468 l 435 462 l 473 425 l 495 422 l 514 368 l 528 357 l 553 350 l 561 339 l 561 322 l 556 316 l 556 304 l 571 291 l 553 255 l 563 244 l 574 245 l 588 261 l 588 336 l 588 372 l 598 403 l 587 450 l 587 475 l 592 526 l 592 569 l 598 619 l 580 656 l 580 680 l 574 702 l 563 712 l 539 718 l 493 755 l 487 776 l 495 802 l 517 822 l 563 822 l 587 838 l 625 830 l 680 838 l 781 810 l 807 765 l 835 744 m 452 245 l 452 314 l 438 336 l 401 350 l 365 372 l 327 383 l 292 367 l 235 367 l 217 347 l 217 301 l 228 263 l 210 160 l 232 117 l 345 117 l 362 123 l 396 123 l 443 170 l 450 182 l 425 216 l 452 245 "},"*":{"x_min":117,"x_max":683.8125,"ha":766,"o":"m 675 599 l 683 575 l 643 569 l 624 550 l 588 564 l 572 575 l 560 575 l 560 589 l 546 599 l 543 599 l 530 589 l 513 606 l 505 606 l 500 575 l 513 537 l 505 491 l 476 455 l 476 436 l 438 425 l 395 416 l 383 447 l 378 455 l 370 484 l 364 491 l 378 514 l 370 558 l 370 569 l 383 580 l 364 599 l 293 564 l 252 564 l 229 569 l 209 569 l 201 558 l 149 599 l 146 599 l 128 628 l 117 619 l 117 642 l 128 672 l 128 701 l 193 714 l 217 728 l 269 728 l 217 785 l 223 791 l 223 799 l 187 808 l 201 821 l 193 864 l 187 864 l 187 883 l 193 883 l 193 913 l 190 910 l 181 916 l 187 919 l 193 913 l 201 938 l 201 955 l 217 951 l 239 951 l 246 955 l 246 942 l 277 924 l 335 883 l 341 889 l 370 852 l 364 847 l 383 840 l 400 840 l 406 847 l 430 861 l 430 883 l 446 913 l 446 930 l 454 924 l 484 955 l 476 960 l 476 969 l 500 980 l 543 960 l 594 969 l 606 951 l 606 924 l 588 830 l 554 821 l 543 756 l 554 744 l 594 744 l 594 733 l 614 720 l 620 720 l 624 728 l 675 678 l 677 678 l 677 667 l 675 667 l 675 672 l 667 678 l 667 636 l 677 619 l 675 599 "},"°":{"x_min":117.203125,"x_max":687,"ha":766,"o":"m 687 777 l 687 721 l 675 705 l 662 632 l 662 619 l 645 610 l 637 601 l 637 584 l 615 558 l 620 555 l 601 535 l 555 499 l 547 480 l 495 467 l 454 447 l 441 447 l 450 449 l 438 461 l 367 461 l 313 461 l 301 480 l 258 494 l 217 535 l 183 566 l 163 597 l 152 597 l 129 619 l 134 627 l 124 644 l 117 674 l 124 735 l 124 746 l 129 752 l 124 760 l 134 796 l 134 869 l 158 910 l 158 922 l 163 922 l 175 959 l 183 959 l 188 963 l 188 977 l 193 977 l 217 1006 l 277 1062 l 313 1068 l 318 1072 l 349 1082 l 419 1082 l 450 1096 l 485 1091 l 514 1062 l 518 1068 l 526 1068 l 539 1055 l 555 1055 l 555 1041 l 578 1018 l 585 1024 l 620 977 l 615 971 l 637 941 l 649 927 l 645 922 l 667 898 l 675 881 l 675 872 l 678 869 l 667 855 l 678 838 l 678 799 l 687 777 m 555 746 l 573 783 l 555 826 l 544 838 l 547 860 l 539 872 l 531 872 l 526 922 l 485 946 l 485 950 l 460 959 l 460 963 l 438 971 l 408 993 l 412 988 l 384 977 l 378 971 l 370 977 l 354 961 l 294 961 l 264 934 l 247 910 l 242 872 l 223 849 l 235 808 l 245 770 l 245 699 l 264 680 l 264 669 l 318 588 l 349 584 l 349 579 l 412 579 l 450 601 l 466 601 l 479 588 l 495 610 l 490 613 l 531 656 l 531 674 l 526 680 l 544 699 l 555 709 l 555 746 "},"V":{"x_min":13.546875,"x_max":747.109375,"ha":766,"o":"m 723 822 l 747 772 l 743 736 l 737 733 l 669 719 l 658 733 l 647 733 l 628 707 l 612 707 l 589 672 l 593 651 l 570 628 l 570 602 l 562 598 l 562 561 l 547 537 l 547 530 l 552 525 l 538 514 l 534 469 l 510 410 l 517 404 l 517 386 l 493 357 l 500 350 l 487 339 l 487 328 l 493 319 l 482 308 l 482 267 l 459 224 l 459 211 l 470 197 l 459 188 l 464 181 l 464 145 l 452 145 l 441 132 l 441 73 l 433 73 l 430 42 l 381 7 l 370 -5 l 352 -5 l 292 67 l 303 78 l 298 97 l 310 109 l 298 120 l 286 211 l 271 229 l 281 249 l 286 253 l 269 272 l 269 278 l 271 285 l 256 301 l 256 339 l 243 361 l 250 369 l 250 375 l 243 380 l 234 404 l 238 410 l 222 447 l 222 530 l 195 586 l 195 602 l 195 646 l 167 672 l 167 678 l 162 681 l 167 681 l 174 689 l 174 701 l 169 697 l 164 701 l 167 707 l 174 701 l 174 736 l 138 750 l 73 733 l 61 736 l 49 750 l 45 742 l 19 772 l 19 802 l 13 808 l 33 822 l 33 831 l 45 844 l 66 849 l 204 849 l 326 849 l 354 822 l 354 750 l 326 736 l 271 742 l 256 742 l 250 736 l 264 719 l 264 664 l 256 658 l 264 651 l 286 598 l 286 549 l 298 543 l 315 543 l 323 525 l 331 520 l 325 508 l 325 460 l 325 357 l 352 301 l 356 278 l 391 285 l 410 314 l 420 375 l 410 429 l 433 439 l 433 494 l 441 492 l 446 492 l 459 530 l 475 555 l 487 569 l 482 572 l 482 642 l 487 642 l 493 646 l 493 664 l 500 664 l 506 672 l 506 678 l 493 681 l 487 723 l 482 742 l 446 742 l 433 753 l 430 750 l 404 784 l 404 802 l 420 831 l 452 836 l 500 836 l 606 836 l 612 840 l 658 840 l 723 822 "},"å":{"x_min":60.859375,"x_max":601.390625,"ha":766,"o":"m 601 374 l 601 326 l 584 289 l 557 259 l 519 259 l 410 259 l 385 245 l 341 252 l 318 227 l 292 245 l 283 247 l 269 239 l 220 230 l 214 227 l 211 194 l 220 187 l 247 184 l 283 138 l 283 99 l 295 99 l 310 125 l 318 125 l 324 116 l 324 68 l 332 57 l 357 53 l 364 60 l 364 77 l 374 90 l 391 93 l 410 82 l 443 116 l 446 114 l 461 114 l 468 125 l 468 161 l 458 169 l 497 189 l 519 174 l 557 187 l 582 172 l 594 149 l 586 119 l 531 50 l 432 -7 l 385 -25 l 310 -17 l 246 -17 l 222 13 l 168 41 l 97 126 l 86 163 l 78 216 l 60 254 l 84 350 l 84 393 l 104 421 l 114 455 l 141 468 l 149 484 l 157 516 l 192 543 l 220 543 l 246 580 l 310 601 l 385 601 l 410 580 l 450 580 l 494 540 l 521 533 l 530 513 l 530 487 l 562 461 l 601 374 m 455 369 l 503 369 l 503 374 l 494 388 l 486 421 l 461 455 l 446 455 l 418 484 l 374 477 l 337 502 l 300 491 l 211 449 l 174 400 l 174 363 l 220 357 l 238 369 l 266 356 l 310 356 l 346 332 l 358 344 l 372 365 l 410 365 l 440 377 l 455 369 m 231 106 l 234 108 l 234 125 l 228 161 l 220 161 l 220 116 l 231 106 "}," ":{"x_min":0,"x_max":0,"ha":766},"0":{"x_min":65.1875,"x_max":701.9375,"ha":766,"o":"m 692 536 l 701 445 l 666 217 l 647 177 l 635 158 l 627 122 l 590 78 l 581 50 l 508 0 l 432 -19 l 408 -36 l 383 -36 l 329 -45 l 310 -19 l 269 -19 l 239 4 l 204 10 l 190 57 l 163 106 l 138 121 l 95 224 l 72 381 l 65 410 l 72 468 l 72 514 l 149 678 l 227 773 l 276 808 l 389 820 l 393 826 l 438 817 l 511 791 l 565 779 l 617 779 l 623 770 l 623 762 l 599 756 l 590 756 l 583 750 l 590 728 l 617 708 l 652 625 l 674 585 l 692 536 m 595 363 l 595 436 l 583 529 l 565 558 l 557 604 l 520 672 l 466 700 l 353 712 l 329 706 l 304 686 l 269 672 l 266 660 l 230 604 l 230 567 l 204 539 l 178 474 l 178 307 l 183 261 l 203 227 l 203 181 l 244 142 l 269 103 l 299 77 l 353 77 l 400 97 l 454 89 l 535 168 l 567 211 l 567 282 l 595 322 l 595 363 m 339 468 l 339 459 l 324 459 l 326 477 l 329 477 l 339 468 m 339 328 l 345 320 l 329 289 l 321 282 l 310 278 l 287 286 l 281 300 l 292 328 l 302 345 l 326 336 l 339 328 "},"”":{"x_min":89.40625,"x_max":659,"ha":766,"o":"m 342 1049 l 342 1006 l 337 1006 l 327 950 l 327 885 l 324 891 l 312 866 l 303 866 l 276 823 l 280 820 l 261 799 l 266 793 l 232 757 l 195 727 l 147 716 l 123 716 l 94 770 l 109 823 l 118 823 l 123 832 l 136 843 l 127 846 l 139 857 l 139 872 l 152 872 l 166 885 l 166 900 l 171 907 l 152 910 l 147 916 l 139 916 l 136 929 l 127 934 l 118 934 l 113 953 l 104 963 l 109 968 l 104 974 l 89 1003 l 100 1049 l 118 1078 l 118 1088 l 139 1099 l 157 1118 l 161 1113 l 195 1137 l 209 1137 l 219 1127 l 253 1134 l 253 1127 l 255 1123 l 269 1123 l 266 1118 l 280 1108 l 290 1108 l 290 1102 l 307 1094 l 318 1094 l 318 1078 l 337 1046 l 342 1049 m 659 1049 l 659 1006 l 656 1006 l 645 950 l 645 885 l 641 891 l 631 866 l 620 866 l 593 823 l 598 820 l 578 799 l 583 793 l 549 757 l 512 727 l 465 716 l 441 716 l 412 770 l 427 823 l 436 823 l 441 832 l 453 843 l 446 846 l 456 857 l 456 872 l 469 872 l 484 885 l 484 900 l 489 907 l 469 910 l 465 916 l 456 916 l 453 929 l 446 934 l 436 934 l 433 953 l 422 963 l 427 968 l 422 974 l 408 1003 l 418 1049 l 436 1078 l 436 1088 l 456 1099 l 474 1118 l 478 1113 l 512 1137 l 526 1137 l 535 1127 l 570 1134 l 570 1127 l 574 1123 l 587 1123 l 583 1118 l 598 1108 l 607 1108 l 607 1102 l 626 1094 l 636 1094 l 636 1078 l 656 1046 l 659 1049 "},"¾":{"x_min":122,"x_max":646,"ha":766,"o":"m 646 244 l 646 196 l 641 152 l 641 135 l 598 94 l 598 80 l 594 88 l 541 33 l 481 21 l 476 16 l 432 2 l 421 -10 l 416 -1 l 399 -14 l 361 16 l 357 8 l 339 8 l 326 21 l 320 16 l 290 33 l 239 27 l 172 8 l 154 8 l 122 51 l 122 96 l 122 157 l 132 183 l 138 188 l 132 196 l 125 219 l 125 239 l 132 249 l 143 268 l 172 274 l 201 244 l 201 231 l 231 208 l 243 208 l 239 202 l 268 188 l 285 188 l 290 171 l 281 152 l 309 135 l 326 141 l 345 152 l 369 128 l 361 106 l 369 97 l 380 97 l 385 119 l 429 119 l 437 106 l 446 106 l 463 123 l 458 141 l 463 149 l 481 128 l 506 135 l 518 196 l 541 208 l 547 213 l 547 219 l 541 227 l 534 244 l 486 280 l 463 286 l 432 309 l 429 305 l 409 305 l 399 316 l 391 309 l 339 299 l 315 309 l 255 316 l 201 359 l 192 359 l 184 352 l 154 394 l 143 443 l 138 480 l 138 499 l 184 577 l 201 581 l 297 618 l 326 610 l 331 606 l 345 618 l 385 606 l 421 606 l 451 581 l 492 577 l 506 558 l 518 558 l 541 594 l 547 594 l 557 606 l 581 600 l 585 594 l 594 594 l 588 599 l 595 603 l 598 600 l 594 594 l 594 581 l 598 577 l 615 534 l 598 485 l 594 480 l 606 469 l 598 469 l 598 449 l 612 420 l 598 401 l 569 401 l 576 407 l 534 449 l 522 485 l 446 545 l 409 541 l 409 545 l 380 552 l 349 558 l 320 558 l 290 552 l 231 502 l 221 491 l 239 469 l 239 455 l 231 455 l 227 460 l 214 443 l 227 430 l 227 407 l 255 383 l 326 383 l 357 377 l 416 371 l 416 364 l 446 347 l 467 359 l 534 352 l 576 316 l 598 316 l 612 280 l 646 244 "},"ö":{"x_min":69.484375,"x_max":706.609375,"ha":766,"o":"m 693 -71 l 706 -89 l 697 -126 l 655 -179 l 642 -189 l 627 -187 l 585 -108 l 596 -64 l 578 -33 l 555 -16 l 518 -16 l 495 -28 l 408 -28 l 369 -22 l 135 -22 l 81 7 l 69 39 l 72 62 l 79 71 l 114 62 l 133 71 l 167 108 l 167 255 l 161 339 l 161 433 l 143 467 l 97 505 l 79 526 l 79 558 l 133 587 l 183 574 l 201 587 l 250 581 l 288 574 l 332 581 l 372 563 l 378 558 l 378 541 l 364 526 l 360 488 l 323 488 l 307 497 l 296 497 l 282 485 l 282 442 l 261 405 l 269 328 l 253 303 l 261 247 l 279 229 l 279 208 l 253 179 l 269 136 l 296 94 l 323 78 l 345 78 l 369 94 l 393 86 l 424 100 l 427 100 l 440 62 l 482 97 l 493 108 l 493 182 l 482 226 l 490 272 l 500 294 l 487 330 l 499 358 l 499 405 l 487 429 l 482 461 l 460 489 l 414 494 l 408 502 l 408 552 l 417 563 l 469 571 l 487 581 l 555 569 l 598 578 l 635 569 l 669 563 l 677 544 l 672 502 l 655 488 l 636 488 l 622 467 l 622 383 l 617 368 l 590 339 l 596 303 l 607 290 l 598 234 l 607 150 l 607 113 l 617 100 l 635 100 l 653 80 l 653 68 l 693 42 l 693 -71 "},"i":{"x_min":113.21875,"x_max":696.25,"ha":766,"o":"m 477 756 l 482 703 l 444 675 l 435 675 l 430 677 l 422 676 l 369 676 l 327 676 l 327 746 l 327 764 l 318 759 l 316 769 l 324 764 l 341 794 l 347 794 l 365 810 l 370 808 l 376 808 l 412 824 l 461 799 l 477 756 m 684 56 l 696 44 l 688 22 l 675 -2 l 645 -17 l 587 -22 l 587 -17 l 563 -2 l 539 -8 l 459 -8 l 452 -17 l 438 -2 l 408 -17 l 357 -17 l 321 -33 l 302 -22 l 291 -8 l 286 -13 l 184 -13 l 184 -2 l 179 1 l 173 -2 l 141 1 l 125 9 l 113 44 l 120 85 l 149 105 l 184 105 l 201 115 l 286 115 l 350 115 l 350 153 l 340 174 l 327 174 l 332 183 l 340 183 l 344 177 l 362 208 l 357 213 l 370 303 l 360 327 l 360 436 l 362 436 l 376 491 l 376 497 l 357 513 l 340 511 l 302 474 l 291 491 l 272 511 l 238 511 l 226 497 l 196 497 l 173 527 l 179 535 l 173 539 l 162 557 l 167 601 l 184 601 l 184 613 l 244 601 l 251 605 l 251 601 l 357 588 l 370 588 l 376 582 l 386 595 l 433 588 l 461 539 l 461 402 l 461 347 l 461 303 l 455 281 l 455 189 l 463 161 l 476 122 l 476 118 l 488 105 l 517 112 l 553 118 l 636 118 l 670 112 l 688 82 l 684 62 l 684 56 "},"Õ":{"x_min":33,"x_max":744,"ha":766,"o":"m 744 45 l 744 13 l 713 -1 l 672 -9 l 637 -9 l 627 -1 l 607 -4 l 580 -20 l 539 -14 l 510 -9 l 433 -1 l 407 63 l 410 89 l 425 97 l 470 89 l 482 91 l 498 109 l 479 152 l 456 190 l 433 248 l 410 275 l 407 301 l 400 310 l 392 310 l 349 227 l 330 219 l 301 174 l 295 152 l 272 127 l 281 115 l 335 77 l 346 27 l 338 13 l 301 -9 l 219 -1 l 201 7 l 121 7 l 71 -9 l 46 -1 l 33 27 l 33 69 l 61 91 l 103 83 l 136 83 l 165 97 l 191 133 l 201 180 l 229 202 l 244 222 l 256 277 l 281 293 l 291 304 l 301 339 l 327 369 l 330 401 l 346 418 l 338 459 l 298 508 l 253 591 l 246 627 l 188 730 l 170 747 l 103 747 l 82 759 l 64 759 l 61 764 l 110 794 l 207 802 l 229 808 l 313 808 l 346 808 l 349 808 l 379 764 l 379 747 l 361 730 l 324 741 l 281 722 l 281 712 l 327 674 l 335 666 l 330 644 l 330 633 l 355 613 l 379 563 l 381 561 l 415 588 l 425 601 l 425 616 l 452 644 l 456 680 l 470 694 l 470 709 l 456 718 l 419 718 l 402 805 l 419 820 l 470 805 l 493 823 l 552 823 l 563 829 l 592 823 l 609 805 l 643 811 l 680 811 l 698 815 l 709 815 l 724 796 l 724 749 l 713 730 l 696 722 l 637 722 l 618 718 l 574 662 l 536 583 l 516 555 l 498 508 l 456 459 l 452 418 l 498 310 l 570 200 l 601 115 l 618 97 l 664 97 l 696 89 l 713 89 l 744 45 "},"þ":{"x_min":27.109375,"x_max":717,"ha":766,"o":"m 707 360 l 717 322 l 717 272 l 710 219 l 701 203 l 699 173 l 676 144 l 676 107 l 655 65 l 652 36 l 642 28 l 595 22 l 546 -13 l 489 -21 l 405 -13 l 380 -1 l 375 7 l 350 33 l 346 67 l 328 80 l 307 78 l 307 7 l 296 -4 l 252 -4 l 234 -13 l 187 -8 l 97 -8 l 72 -1 l 35 -1 l 27 14 l 35 44 l 62 78 l 111 100 l 129 125 l 136 155 l 144 175 l 152 183 l 165 175 l 183 147 l 183 125 l 206 103 l 247 80 l 263 83 l 266 103 l 266 115 l 252 128 l 226 130 l 208 150 l 208 203 l 187 217 l 144 217 l 136 228 l 136 264 l 145 283 l 145 351 l 154 386 l 146 415 l 117 453 l 117 471 l 84 492 l 57 492 l 38 546 l 38 569 l 54 582 l 162 591 l 187 579 l 283 569 l 289 533 l 263 492 l 274 458 l 294 464 l 315 497 l 317 529 l 338 561 l 388 583 l 469 591 l 489 607 l 529 601 l 571 583 l 595 579 l 650 541 l 663 536 l 677 511 l 686 480 l 699 453 l 707 360 m 614 203 l 619 239 l 619 357 l 587 404 l 578 442 l 546 478 l 500 500 l 459 489 l 424 456 l 375 456 l 366 426 l 350 378 l 345 350 l 380 294 l 356 248 l 369 173 l 388 144 l 392 115 l 410 83 l 426 78 l 489 65 l 534 115 l 565 119 l 587 136 l 595 180 l 614 203 "},"]":{"x_min":206.953125,"x_max":577.328125,"ha":766,"o":"m 561 642 l 577 584 l 561 555 l 561 449 l 547 348 l 532 324 l 554 285 l 554 126 l 552 120 l 563 69 l 555 30 l 549 24 l 558 13 l 558 -30 l 563 -80 l 552 -100 l 555 -118 l 561 -132 l 567 -161 l 547 -227 l 492 -227 l 420 -245 l 355 -245 l 337 -242 l 284 -242 l 234 -242 l 206 -180 l 238 -100 l 323 -100 l 409 -61 l 397 -38 l 456 45 l 454 55 l 429 97 l 451 141 l 438 170 l 448 238 l 453 255 l 453 280 l 440 351 l 454 423 l 438 469 l 460 507 l 460 581 l 451 632 l 472 677 l 453 729 l 456 759 l 456 817 l 424 835 l 454 866 l 454 866 l 360 866 l 323 860 l 285 842 l 219 900 l 226 935 l 226 977 l 287 996 l 355 996 l 405 977 l 424 966 l 479 982 l 544 974 l 555 950 l 575 918 l 561 741 l 552 707 l 561 642 "},"m":{"x_min":18.921875,"x_max":780.390625,"ha":766,"o":"m 774 68 l 780 39 l 764 3 l 734 -9 l 698 0 l 618 0 l 515 0 l 509 -9 l 509 -1 l 469 3 l 449 3 l 437 -9 l 355 3 l 350 -9 l 321 3 l 310 27 l 312 51 l 331 58 l 350 68 l 355 64 l 389 94 l 386 97 l 389 97 l 402 123 l 389 152 l 386 171 l 397 184 l 389 188 l 402 213 l 380 257 l 402 309 l 409 316 l 402 321 l 389 338 l 389 377 l 386 382 l 419 420 l 419 430 l 414 438 l 409 430 l 397 444 l 389 461 l 326 480 l 321 486 l 279 461 l 255 430 l 250 391 l 236 391 l 219 348 l 232 274 l 232 123 l 242 106 l 242 94 l 236 89 l 266 80 l 291 58 l 279 22 l 279 -1 l 195 -9 l 166 -14 l 123 -14 l 123 -4 l 37 -4 l 18 36 l 40 73 l 52 61 l 63 68 l 94 94 l 117 89 l 135 89 l 149 106 l 143 110 l 152 128 l 152 227 l 160 257 l 166 305 l 166 348 l 149 371 l 160 413 l 172 444 l 166 450 l 160 473 l 135 499 l 113 486 l 72 510 l 72 516 l 63 522 l 54 522 l 47 541 l 43 545 l 89 590 l 117 594 l 129 581 l 135 590 l 149 577 l 166 577 l 211 552 l 223 534 l 232 541 l 242 528 l 279 552 l 284 572 l 291 563 l 321 590 l 342 590 l 350 594 l 360 581 l 380 590 l 437 522 l 449 522 l 461 534 l 486 528 l 515 545 l 515 558 l 568 577 l 598 581 l 675 552 l 669 545 l 685 534 l 694 486 l 706 473 l 694 364 l 675 299 l 694 249 l 694 110 l 706 75 l 739 68 l 745 75 l 745 80 l 774 68 m 620 359 l 634 407 l 620 426 l 609 455 l 604 450 l 598 450 l 587 461 l 579 480 l 538 499 l 521 491 l 521 473 l 515 450 l 503 450 l 509 444 l 492 426 l 486 426 l 461 377 l 461 352 l 443 316 l 473 274 l 469 268 l 469 260 l 456 207 l 456 188 l 437 152 l 473 110 l 469 106 l 469 89 l 473 80 l 473 75 l 521 89 l 533 64 l 538 64 l 557 75 l 579 75 l 604 89 l 604 94 l 598 110 l 591 166 l 618 196 l 618 213 l 604 292 l 627 338 l 618 352 l 620 359 "},"8":{"x_min":49.25,"x_max":701.796875,"ha":766,"o":"m 695 275 l 701 249 l 678 147 l 658 103 l 632 68 l 621 33 l 574 12 l 449 -27 l 430 -35 l 280 -21 l 253 -12 l 222 -12 l 196 12 l 144 19 l 119 64 l 68 119 l 49 244 l 79 361 l 132 433 l 132 469 l 86 575 l 86 652 l 115 704 l 133 744 l 177 785 l 207 794 l 250 831 l 280 831 l 308 843 l 350 835 l 378 843 l 485 817 l 526 811 l 568 794 l 621 764 l 658 760 l 664 757 l 664 744 l 640 728 l 632 719 l 650 664 l 650 616 l 664 590 l 664 572 l 640 527 l 610 491 l 604 444 l 640 405 l 647 378 l 686 343 l 695 330 l 695 275 m 539 561 l 553 619 l 542 637 l 507 655 l 507 664 l 516 672 l 526 677 l 526 689 l 523 691 l 474 714 l 413 730 l 398 719 l 310 711 l 259 701 l 225 683 l 204 619 l 244 527 l 267 516 l 368 499 l 398 511 l 496 511 l 507 543 l 539 561 m 592 194 l 599 229 l 579 255 l 579 295 l 561 319 l 553 322 l 516 353 l 468 353 l 444 378 l 389 378 l 376 372 l 353 353 l 332 350 l 310 368 l 278 368 l 241 339 l 213 333 l 194 314 l 180 293 l 199 213 l 194 200 l 194 173 l 209 173 l 209 211 l 229 211 l 240 200 l 240 173 l 244 164 l 259 155 l 294 164 l 313 147 l 321 136 l 343 136 l 368 116 l 444 103 l 496 103 l 531 153 l 555 155 l 568 167 l 592 194 "},"R":{"x_min":18.78125,"x_max":729,"ha":766,"o":"m 729 51 l 729 39 l 718 28 l 694 28 l 690 22 l 690 8 l 651 8 l 634 22 l 617 8 l 547 28 l 547 39 l 516 80 l 516 124 l 514 129 l 514 185 l 514 275 l 503 287 l 512 293 l 503 300 l 492 300 l 501 305 l 492 310 l 475 310 l 475 330 l 440 353 l 427 353 l 432 359 l 393 377 l 386 383 l 381 377 l 356 372 l 344 383 l 296 377 l 285 391 l 263 377 l 247 365 l 247 348 l 247 258 l 247 208 l 252 203 l 252 129 l 265 124 l 265 89 l 280 75 l 316 80 l 316 66 l 381 66 l 393 51 l 393 22 l 370 -1 l 339 17 l 310 17 l 296 3 l 296 -1 l 263 17 l 237 8 l 190 3 l 71 3 l 55 8 l 43 22 l 48 28 l 37 39 l 48 58 l 55 64 l 97 75 l 149 95 l 173 95 l 190 124 l 190 153 l 195 158 l 193 167 l 193 280 l 203 287 l 186 300 l 186 330 l 178 336 l 190 359 l 190 408 l 186 413 l 178 499 l 167 511 l 173 552 l 186 572 l 178 601 l 149 625 l 144 633 l 144 656 l 161 666 l 144 686 l 135 680 l 97 680 l 55 699 l 48 699 l 43 691 l 18 733 l 29 783 l 103 794 l 135 794 l 144 789 l 154 789 l 161 794 l 221 800 l 225 803 l 310 803 l 310 794 l 351 794 l 370 800 l 381 800 l 402 776 l 414 776 l 427 794 l 469 783 l 516 776 l 541 764 l 571 764 l 590 744 l 595 750 l 601 744 l 593 741 l 639 672 l 639 662 l 647 656 l 663 558 l 651 529 l 661 511 l 651 511 l 634 469 l 609 455 l 617 450 l 601 450 l 593 430 l 547 394 l 541 401 l 521 377 l 521 359 l 533 348 l 533 330 l 541 322 l 552 305 l 558 310 l 563 275 l 575 240 l 571 203 l 575 197 l 581 185 l 573 172 l 573 97 l 601 80 l 622 75 l 634 64 l 639 68 l 663 80 l 661 89 l 680 89 l 690 80 l 694 89 l 718 64 l 723 68 l 729 51 m 552 633 l 563 643 l 547 662 l 541 656 l 533 656 l 512 672 l 512 686 l 492 686 l 462 711 l 446 686 l 386 691 l 364 680 l 344 699 l 335 686 l 310 672 l 292 672 l 283 666 l 283 469 l 326 480 l 339 469 l 351 450 l 373 438 l 373 430 l 386 444 l 424 461 l 457 461 l 469 480 l 512 486 l 533 502 l 541 541 l 558 545 l 558 582 l 552 590 l 552 633 "},"á":{"x_min":87.421875,"x_max":616,"ha":766,"o":"m 601 368 l 616 333 l 603 284 l 603 219 l 603 155 l 586 108 l 541 59 l 516 -11 l 498 -20 l 462 -20 l 378 -42 l 332 -42 l 283 -36 l 234 -11 l 215 6 l 183 16 l 110 117 l 107 147 l 98 163 l 98 236 l 87 255 l 92 291 l 107 322 l 98 365 l 107 394 l 98 438 l 147 534 l 150 560 l 207 610 l 210 621 l 261 652 l 283 672 l 324 672 l 370 699 l 416 713 l 456 713 l 528 790 l 586 772 l 609 735 l 609 672 l 616 665 l 616 655 l 577 637 l 528 621 l 498 619 l 482 602 l 490 566 l 482 541 l 482 526 l 498 508 l 532 508 l 547 488 l 552 458 l 589 426 l 601 368 m 508 183 l 508 294 l 508 333 l 498 365 l 416 464 l 308 464 l 264 444 l 183 358 l 183 244 l 191 213 l 183 176 l 193 133 l 215 117 l 219 91 l 229 73 l 264 62 l 289 30 l 362 30 l 381 44 l 401 44 l 427 65 l 450 65 l 462 73 l 492 128 l 508 183 "},"×":{"x_min":44,"x_max":743,"ha":766,"o":"m 743 412 l 743 397 l 697 363 l 652 351 l 614 293 l 625 240 l 633 227 l 614 180 l 612 165 l 612 150 l 661 97 l 702 89 l 724 62 l 732 36 l 729 14 l 694 -10 l 549 -10 l 527 -19 l 469 -3 l 452 -1 l 433 27 l 433 62 l 452 78 l 487 78 l 513 100 l 513 161 l 531 239 l 527 255 l 492 284 l 449 284 l 430 275 l 378 275 l 358 264 l 269 264 l 199 319 l 152 383 l 139 418 l 144 444 l 139 480 l 139 516 l 130 533 l 130 545 l 152 572 l 139 633 l 149 674 l 130 709 l 113 722 l 95 718 l 72 718 l 44 768 l 44 791 l 58 804 l 144 804 l 167 797 l 250 808 l 293 797 l 299 791 l 288 736 l 269 718 l 242 718 l 232 702 l 232 561 l 234 545 l 234 418 l 239 397 l 313 348 l 351 356 l 375 351 l 386 351 l 415 378 l 460 378 l 479 407 l 484 425 l 512 452 l 512 500 l 524 514 l 515 555 l 521 577 l 533 591 l 527 666 l 527 686 l 503 712 l 405 722 l 397 736 l 433 773 l 438 791 l 457 805 l 506 797 l 521 805 l 552 794 l 575 808 l 625 793 l 661 793 l 686 773 l 694 756 l 686 736 l 667 718 l 640 718 l 628 699 l 628 588 l 628 491 l 648 459 l 675 441 l 721 425 l 743 412 "},"o":{"x_min":117.203125,"x_max":687,"ha":766,"o":"m 687 288 l 687 232 l 675 214 l 662 142 l 662 130 l 645 120 l 637 112 l 637 94 l 615 68 l 620 64 l 601 46 l 555 8 l 547 -9 l 495 -21 l 454 -44 l 441 -44 l 450 -38 l 438 -30 l 367 -30 l 313 -30 l 301 -9 l 258 3 l 217 46 l 183 75 l 163 107 l 152 107 l 129 130 l 134 136 l 124 153 l 117 185 l 124 245 l 124 259 l 129 261 l 124 270 l 134 306 l 134 378 l 158 421 l 158 431 l 163 431 l 175 470 l 183 470 l 188 473 l 188 486 l 193 486 l 217 516 l 277 572 l 313 578 l 318 582 l 349 592 l 419 592 l 450 607 l 485 601 l 514 572 l 518 578 l 526 578 l 539 564 l 555 564 l 555 552 l 578 529 l 585 534 l 620 486 l 615 480 l 637 450 l 649 439 l 645 431 l 667 408 l 675 392 l 675 384 l 678 378 l 667 365 l 678 349 l 678 310 l 687 288 m 555 259 l 573 293 l 555 336 l 544 349 l 547 372 l 539 384 l 531 384 l 526 431 l 485 456 l 485 461 l 460 470 l 460 473 l 438 480 l 412 499 l 384 486 l 378 480 l 370 486 l 354 471 l 294 471 l 264 444 l 247 421 l 242 384 l 223 360 l 235 317 l 245 281 l 245 209 l 264 189 l 264 180 l 318 97 l 349 94 l 349 89 l 412 89 l 450 112 l 466 112 l 479 97 l 495 120 l 490 124 l 531 167 l 531 185 l 526 189 l 555 220 l 555 259 "},"5":{"x_min":94,"x_max":721,"ha":766,"o":"m 713 722 l 713 720 l 707 716 l 695 716 l 695 727 l 710 727 l 713 722 m 721 476 l 721 473 l 713 466 l 695 466 l 692 470 l 692 481 l 700 484 l 718 481 l 721 476 m 664 727 l 664 722 l 655 716 l 630 720 l 622 727 l 538 702 l 500 716 l 484 708 l 446 708 l 413 684 l 375 684 l 346 708 l 309 708 l 292 702 l 263 720 l 240 713 l 231 702 l 235 677 l 250 652 l 237 617 l 231 611 l 231 591 l 245 574 l 318 587 l 341 597 l 383 597 l 393 606 l 419 606 l 438 591 l 481 584 l 503 560 l 538 555 l 628 457 l 640 415 l 645 352 l 654 333 l 654 241 l 640 176 l 609 102 l 527 9 l 500 -8 l 432 -8 l 408 -8 l 383 -33 l 304 -19 l 292 -8 l 240 0 l 212 25 l 186 25 l 146 73 l 122 112 l 110 165 l 94 189 l 94 226 l 114 258 l 129 271 l 174 271 l 186 277 l 240 258 l 274 213 l 271 189 l 245 161 l 250 150 l 271 133 l 282 142 l 294 142 l 303 133 l 294 112 l 331 94 l 358 111 l 391 97 l 430 123 l 458 115 l 481 139 l 500 139 l 530 183 l 538 231 l 555 264 l 555 372 l 487 438 l 455 455 l 419 444 l 395 447 l 393 457 l 393 466 l 386 473 l 375 473 l 372 452 l 367 447 l 358 447 l 346 476 l 318 476 l 271 452 l 240 420 l 212 410 l 198 397 l 174 399 l 133 428 l 119 466 l 127 526 l 119 603 l 133 680 l 127 694 l 141 788 l 164 808 l 222 808 l 304 825 l 395 825 l 410 829 l 484 816 l 522 823 l 601 810 l 630 770 l 622 738 l 655 732 l 664 727 m 422 183 l 422 171 l 395 171 l 386 179 l 367 171 l 354 176 l 346 197 l 367 197 l 375 189 l 386 189 l 404 208 l 419 205 l 422 183 "},"õ":{"x_min":22.109375,"x_max":732.953125,"ha":766,"o":"m 719 107 l 732 66 l 727 12 l 716 -8 l 697 -25 l 615 -25 l 583 -22 l 534 -33 l 507 -22 l 472 -33 l 428 -13 l 415 1 l 441 41 l 407 86 l 392 133 l 351 168 l 318 141 l 303 139 l 296 139 l 288 130 l 316 94 l 316 65 l 282 9 l 264 -5 l 215 1 l 173 -5 l 58 12 l 22 33 l 24 57 l 64 83 l 106 88 l 133 102 l 190 144 l 212 155 l 282 244 l 296 277 l 286 316 l 264 336 l 231 383 l 269 447 l 223 455 l 180 511 l 180 529 l 170 538 l 110 521 l 64 521 l 58 533 l 64 568 l 106 586 l 160 586 l 196 594 l 242 583 l 316 583 l 332 574 l 351 557 l 329 521 l 340 480 l 387 455 l 371 436 l 371 427 l 389 412 l 458 466 l 458 511 l 398 538 l 398 557 l 381 566 l 379 566 l 379 574 l 398 566 l 436 597 l 482 588 l 507 601 l 580 586 l 667 601 l 700 583 l 722 546 l 700 494 l 673 476 l 591 465 l 579 473 l 561 468 l 536 441 l 527 402 l 470 357 l 452 351 l 425 309 l 428 283 l 464 241 l 498 223 l 519 191 l 531 158 l 558 97 l 596 104 l 664 120 l 719 107 "},"7":{"x_min":73.03125,"x_max":658,"ha":766,"o":"m 633 794 l 658 759 l 658 639 l 630 572 l 619 533 l 603 522 l 587 500 l 584 485 l 503 397 l 473 351 l 432 275 l 404 179 l 404 144 l 413 126 l 404 89 l 394 72 l 394 36 l 374 -12 l 342 -30 l 307 -18 l 288 0 l 274 46 l 284 92 l 284 136 l 284 185 l 294 217 l 300 255 l 320 290 l 346 366 l 366 380 l 394 425 l 429 469 l 461 491 l 503 546 l 512 625 l 478 646 l 421 675 l 388 686 l 364 712 l 277 698 l 233 639 l 214 583 l 203 540 l 169 460 l 143 450 l 97 460 l 89 478 l 83 528 l 94 590 l 83 628 l 89 675 l 73 719 l 86 775 l 115 796 l 151 796 l 179 777 l 233 783 l 288 813 l 342 813 l 401 803 l 443 775 l 484 766 l 522 775 l 552 766 l 579 775 l 609 797 l 633 794 "},"K":{"x_min":38.1875,"x_max":708,"ha":766,"o":"m 708 71 l 708 0 l 695 -22 l 683 -10 l 594 -10 l 589 0 l 570 -19 l 506 -6 l 458 -6 l 400 15 l 352 -6 l 345 -6 l 340 0 l 324 -19 l 294 -12 l 256 6 l 253 6 l 239 -6 l 227 6 l 204 -6 l 125 -6 l 67 0 l 50 6 l 45 40 l 45 59 l 74 71 l 87 85 l 121 77 l 133 77 l 155 101 l 163 193 l 175 210 l 168 257 l 155 271 l 168 287 l 163 312 l 175 326 l 168 399 l 163 428 l 177 458 l 177 513 l 168 560 l 174 571 l 174 706 l 149 723 l 87 710 l 74 710 l 74 719 l 50 723 l 38 752 l 45 771 l 87 791 l 125 778 l 198 796 l 222 791 l 227 791 l 234 796 l 256 791 l 270 791 l 275 796 l 298 808 l 298 815 l 324 815 l 324 808 l 315 808 l 310 802 l 358 784 l 362 791 l 393 749 l 393 735 l 387 741 l 376 723 l 332 732 l 264 700 l 244 602 l 244 428 l 253 403 l 270 368 l 282 379 l 282 399 l 310 403 l 329 438 l 332 451 l 340 468 l 358 493 l 381 507 l 387 513 l 387 529 l 436 568 l 441 579 l 441 598 l 446 598 l 452 602 l 452 616 l 464 616 l 482 645 l 471 671 l 482 694 l 482 706 l 471 719 l 430 719 l 422 735 l 436 766 l 464 794 l 530 794 l 552 808 l 582 796 l 641 808 l 708 796 l 701 791 l 708 784 l 708 719 l 695 688 l 672 723 l 629 719 l 629 706 l 594 694 l 589 694 l 577 680 l 577 677 l 582 671 l 547 632 l 547 616 l 518 598 l 506 598 l 471 554 l 452 536 l 458 529 l 441 513 l 446 507 l 413 451 l 404 415 l 400 408 l 430 368 l 436 374 l 436 368 l 458 356 l 518 235 l 577 167 l 577 149 l 594 137 l 624 107 l 618 101 l 641 96 l 701 77 l 708 71 m 518 101 l 522 118 l 476 162 l 436 196 l 413 210 l 387 235 l 387 251 l 393 271 l 400 318 l 387 356 l 381 356 l 362 318 l 358 326 l 324 307 l 315 287 l 303 271 l 298 276 l 282 247 l 264 239 l 264 222 l 270 196 l 270 149 l 256 137 l 264 131 l 275 85 l 282 88 l 345 88 l 362 96 l 413 71 l 413 59 l 422 59 l 430 53 l 458 85 l 464 87 l 506 87 l 518 101 "},",":{"x_min":240.984375,"x_max":553,"ha":766,"o":"m 553 178 l 553 123 l 550 123 l 536 53 l 536 -28 l 530 -19 l 519 -50 l 506 -50 l 472 -106 l 477 -110 l 453 -136 l 460 -142 l 418 -187 l 370 -226 l 313 -239 l 283 -239 l 245 -171 l 264 -106 l 275 -106 l 283 -92 l 295 -80 l 287 -75 l 300 -62 l 300 -45 l 318 -45 l 335 -28 l 335 -6 l 341 -1 l 318 2 l 313 10 l 300 10 l 295 27 l 287 33 l 275 33 l 269 57 l 258 70 l 264 74 l 258 82 l 240 118 l 253 178 l 275 213 l 275 227 l 300 239 l 324 263 l 329 257 l 370 287 l 389 287 l 401 274 l 444 282 l 444 274 l 446 269 l 465 269 l 460 263 l 477 251 l 490 251 l 490 243 l 511 234 l 524 234 l 524 213 l 550 174 l 553 178 "},"d":{"x_min":95.28125,"x_max":723.546875,"ha":766,"o":"m 715 59 l 723 17 l 674 -19 l 639 -19 l 626 -33 l 603 -27 l 598 -19 l 579 -19 l 575 -27 l 533 -27 l 515 -6 l 509 -13 l 509 -19 l 479 -6 l 461 17 l 438 -6 l 415 -6 l 383 -49 l 355 -44 l 348 -44 l 338 -33 l 326 -44 l 284 -44 l 288 -35 l 279 -27 l 230 -27 l 212 3 l 201 17 l 195 10 l 161 46 l 161 54 l 166 59 l 136 106 l 111 136 l 118 166 l 111 175 l 95 214 l 102 222 l 98 228 l 98 316 l 106 348 l 111 365 l 124 377 l 118 386 l 130 394 l 130 426 l 142 438 l 142 447 l 136 450 l 142 450 l 152 480 l 166 500 l 171 494 l 230 546 l 256 558 l 284 558 l 313 578 l 367 567 l 389 567 l 389 558 l 415 556 l 433 556 l 433 536 l 443 525 l 479 529 l 493 546 l 493 558 l 495 556 l 504 558 l 504 567 l 493 578 l 493 597 l 473 619 l 493 649 l 473 680 l 457 692 l 438 692 l 433 690 l 355 690 l 318 736 l 342 797 l 348 789 l 360 808 l 402 797 l 443 797 l 450 789 l 461 789 l 473 799 l 521 799 l 550 783 l 565 752 l 565 657 l 565 597 l 555 578 l 568 494 l 564 450 l 564 438 l 568 433 l 568 348 l 564 343 l 564 336 l 575 325 l 568 264 l 582 251 l 582 214 l 582 119 l 603 100 l 639 100 l 651 84 l 685 84 l 703 71 l 715 59 m 473 228 l 479 269 l 459 314 l 459 394 l 450 421 l 415 426 l 383 463 l 360 469 l 296 476 l 267 455 l 250 421 l 236 421 l 224 391 l 206 372 l 195 348 l 204 300 l 204 222 l 224 175 l 242 175 l 267 152 l 267 144 l 300 89 l 296 84 l 338 84 l 342 95 l 348 95 l 360 119 l 378 123 l 389 144 l 415 150 l 457 191 l 457 205 l 467 228 l 473 228 "},"¨":{"x_min":30,"x_max":708.203125,"ha":766,"o":"m 428 969 l 428 960 l 413 960 l 413 972 l 421 972 l 428 969 m 648 988 l 664 950 l 659 916 l 659 905 l 627 883 l 569 872 l 529 872 l 482 900 l 472 932 l 482 983 l 509 1006 l 558 1038 l 586 1035 l 630 992 l 648 988 m 694 237 l 708 149 l 691 63 l 653 -10 l 635 -20 l 593 -20 l 576 -24 l 485 -24 l 449 -24 l 413 -28 l 365 -24 l 282 -24 l 253 -20 l 230 -22 l 212 -30 l 173 -20 l 126 -25 l 109 -39 l 84 -36 l 45 5 l 30 41 l 30 63 l 111 100 l 163 100 l 184 126 l 195 181 l 195 332 l 195 602 l 199 636 l 190 703 l 173 723 l 92 723 l 62 760 l 62 796 l 84 824 l 101 834 l 129 834 l 150 869 l 147 889 l 114 938 l 126 974 l 147 1006 l 201 1045 l 264 1045 l 282 1029 l 302 988 l 324 960 l 282 880 l 240 857 l 230 846 l 235 834 l 256 822 l 430 822 l 467 796 l 517 805 l 544 822 l 593 813 l 672 802 l 691 794 l 705 778 l 705 650 l 705 536 l 680 516 l 653 518 l 630 552 l 620 621 l 618 632 l 604 668 l 584 703 l 555 727 l 467 727 l 447 710 l 421 713 l 403 730 l 359 730 l 324 710 l 311 691 l 311 648 l 302 552 l 294 524 l 308 478 l 324 463 l 418 478 l 438 499 l 449 589 l 482 607 l 498 602 l 519 566 l 519 474 l 519 443 l 533 393 l 533 352 l 539 332 l 521 268 l 501 246 l 464 255 l 447 292 l 436 352 l 421 377 l 408 385 l 349 393 l 302 377 l 294 368 l 308 284 q 299 298 306 298 l 293 284 q 292 242 286 270 l 299 199 l 299 174 l 292 147 l 292 136 l 321 86 l 418 86 l 467 91 l 527 86 l 550 86 l 581 100 l 620 224 l 645 260 l 653 286 l 672 302 l 700 295 l 708 277 l 694 237 "},"Ô":{"x_min":47.640625,"x_max":718.453125,"ha":766,"o":"m 703 484 l 718 383 l 692 343 l 664 308 l 664 258 l 655 240 l 574 158 l 546 153 l 522 132 l 529 100 l 557 74 l 571 68 l 577 50 l 577 11 l 522 -21 l 492 -19 l 467 -8 l 401 -8 l 339 -24 l 309 -6 l 271 -19 l 186 -9 l 166 22 l 174 55 l 193 74 l 237 74 l 258 103 l 245 142 l 204 179 l 166 194 l 110 232 l 92 261 l 73 319 l 47 364 l 58 481 l 141 605 l 176 625 l 228 630 l 255 658 l 301 666 l 320 688 l 318 704 l 285 727 l 245 704 l 222 704 l 196 741 l 196 778 l 228 796 l 282 791 l 329 781 l 364 794 l 410 794 l 426 799 l 445 796 q 467 847 459 847 q 473 808 473 847 l 500 808 l 519 794 l 566 788 l 577 781 l 589 759 l 583 741 l 574 725 l 519 725 l 500 708 l 449 716 l 437 704 l 449 666 l 464 653 l 509 653 l 546 622 l 594 613 l 631 577 l 653 569 l 672 540 l 683 510 l 703 484 m 603 308 l 623 346 l 623 397 l 609 420 l 609 463 l 598 481 l 594 475 l 574 475 l 566 481 l 538 557 l 492 557 l 481 566 l 455 600 l 439 600 l 439 537 l 426 502 l 437 438 l 426 364 l 403 316 l 429 224 l 467 224 l 511 235 l 552 269 l 603 308 m 346 282 l 356 352 l 337 383 l 329 438 l 344 455 l 344 502 l 329 521 l 329 581 l 320 593 l 294 600 l 258 575 l 228 549 l 228 540 l 209 519 l 198 519 l 181 502 l 176 484 l 147 438 l 141 391 l 147 386 l 157 380 l 163 364 l 147 343 l 147 316 l 163 278 l 222 225 l 252 222 l 307 205 l 339 235 l 339 253 l 346 282 "},"E":{"x_min":43.890625,"x_max":719,"ha":766,"o":"m 719 258 l 719 244 l 713 244 l 697 196 l 697 80 l 690 68 l 690 45 l 681 51 l 678 22 l 670 3 l 661 -9 l 636 3 l 594 3 l 588 8 l 553 -9 l 530 -14 l 512 -1 l 457 -9 l 310 -9 l 286 -14 l 245 -14 l 209 -22 l 190 -1 l 178 -14 l 136 -9 l 114 -9 l 79 -14 l 68 8 l 56 8 l 43 27 l 56 75 l 84 97 l 126 89 l 204 97 l 215 111 l 209 119 l 233 152 l 233 260 l 238 300 l 245 306 l 245 310 l 238 317 l 229 339 l 229 601 l 229 685 l 220 702 l 174 702 l 167 698 l 120 698 l 126 702 l 79 711 l 60 711 l 49 744 l 68 776 l 98 794 l 209 794 l 215 799 l 305 776 l 335 783 l 427 783 l 447 794 l 475 794 l 487 776 l 512 771 l 530 771 l 542 783 l 553 771 l 581 788 l 630 783 l 670 763 l 678 744 l 690 685 l 690 633 l 699 619 l 699 546 l 713 522 l 690 499 l 670 502 l 640 558 l 636 601 l 623 633 l 630 637 l 630 649 l 623 655 l 610 680 l 588 698 l 576 698 l 572 715 l 553 733 l 547 727 l 517 752 l 521 758 l 498 758 l 487 743 l 427 743 l 415 722 l 365 722 l 357 715 l 357 711 l 345 711 l 345 715 l 321 715 l 297 702 l 297 546 l 286 529 l 297 491 l 316 460 l 352 455 l 352 450 l 387 450 l 403 480 l 425 480 l 447 499 l 447 542 l 453 542 l 463 564 l 463 577 l 482 582 l 493 582 l 517 558 l 521 564 l 521 534 l 530 491 l 534 450 l 517 420 l 517 348 l 521 322 l 530 293 l 530 274 l 463 244 l 447 287 l 447 359 l 427 383 l 425 377 l 411 393 l 305 393 l 280 365 l 294 330 l 294 274 l 286 260 l 286 188 l 310 158 l 305 123 l 297 119 l 321 95 l 387 89 l 403 75 l 447 89 l 475 95 l 493 95 l 493 89 l 542 75 l 553 95 l 581 111 l 581 129 l 588 129 l 602 158 l 609 171 l 609 207 l 636 239 l 636 274 l 648 287 l 648 306 l 681 306 l 681 310 l 684 317 l 690 310 l 681 306 l 690 300 l 706 300 l 719 258 "},"Y":{"x_min":32.5625,"x_max":733,"ha":766,"o":"m 733 797 l 733 762 l 708 752 l 666 741 l 638 710 l 626 710 l 610 694 l 613 677 l 613 657 l 589 657 l 580 641 l 568 627 l 568 602 l 555 590 l 572 569 l 550 555 l 539 543 l 539 530 l 513 537 l 507 530 l 507 521 l 501 521 l 495 477 l 485 438 l 485 416 l 478 409 l 478 399 l 471 404 l 450 375 l 450 339 l 441 339 l 430 308 l 441 240 l 441 187 l 450 180 l 465 144 l 485 139 l 495 128 l 580 128 l 602 108 l 613 108 l 610 102 l 626 59 l 618 41 l 618 30 l 610 30 l 602 16 l 495 6 l 465 6 l 461 11 l 453 7 l 390 0 l 373 -5 l 373 0 l 364 7 l 352 -5 l 335 7 l 329 7 l 324 0 l 324 7 l 318 11 l 313 7 l 313 0 l 293 0 l 293 7 l 259 11 l 196 11 l 186 7 l 170 24 l 144 59 l 170 108 l 186 128 l 293 128 l 327 132 l 327 211 l 343 240 l 352 252 l 335 289 l 343 330 l 352 361 l 335 416 l 329 422 l 324 447 l 293 465 l 283 465 l 289 469 l 277 491 l 277 508 l 264 521 l 270 525 l 264 530 l 270 537 l 264 543 l 259 569 l 241 580 l 215 633 l 174 694 l 115 710 l 106 723 l 51 735 l 55 741 l 32 766 l 38 797 l 38 808 l 128 824 l 215 824 l 241 844 l 313 822 l 329 815 l 335 797 l 335 784 l 359 766 l 364 771 l 390 741 l 390 735 l 378 723 l 335 723 l 301 688 l 301 641 l 318 621 l 335 580 l 359 561 l 395 543 l 441 590 l 453 590 l 471 616 l 471 621 l 465 627 l 478 641 l 471 657 l 485 671 l 478 677 l 501 710 l 501 723 l 471 751 l 435 751 l 419 784 l 425 802 l 425 808 l 441 829 l 686 829 l 686 827 l 698 822 l 733 797 "},"\"":{"x_min":232.46875,"x_max":595,"ha":766,"o":"m 340 916 l 398 842 l 386 832 l 364 768 l 340 743 l 326 660 l 340 636 l 340 586 l 326 574 l 340 563 l 340 538 l 315 516 l 266 516 l 243 674 l 255 735 l 232 768 l 255 916 l 340 916 m 589 902 l 595 852 l 595 600 l 577 563 l 589 552 l 566 516 l 552 502 l 503 502 l 481 586 l 492 649 l 446 866 l 481 902 l 517 916 l 589 902 "},"ê":{"x_min":73.140625,"x_max":663.609375,"ha":766,"o":"m 373 537 l 393 521 l 375 483 l 340 465 l 289 460 l 280 433 l 289 411 l 318 392 l 321 369 l 266 358 l 254 330 l 254 292 l 285 263 l 263 205 l 255 144 l 265 114 l 265 54 l 282 39 l 292 39 l 315 64 l 352 64 l 364 84 l 374 84 l 374 42 l 389 33 l 380 -4 l 362 -18 l 326 -18 l 289 -18 l 263 -22 l 138 -22 l 92 -6 l 89 8 l 92 36 l 111 52 l 146 52 l 161 46 l 171 46 l 197 81 l 197 271 l 217 311 l 190 447 l 179 467 l 165 478 l 143 475 l 124 460 l 107 462 l 81 505 l 73 534 l 81 561 l 97 580 l 154 575 l 228 575 l 243 583 l 274 563 l 315 572 l 373 566 l 373 537 m 650 108 l 663 64 l 660 39 l 617 -22 l 573 -39 l 527 -39 l 510 -30 l 489 -30 l 437 72 l 427 114 l 429 139 l 429 150 l 408 179 l 401 205 l 389 216 l 362 208 l 321 237 l 301 258 l 315 301 l 389 311 l 401 319 l 408 327 l 420 355 l 406 386 l 427 401 l 437 447 l 429 480 l 437 516 l 465 545 l 473 572 l 492 580 l 552 590 l 591 563 l 606 561 l 660 497 l 655 462 l 628 395 l 617 386 l 565 392 l 552 395 l 543 395 l 491 372 l 491 322 l 458 308 l 446 292 l 446 271 l 465 255 l 492 283 l 497 283 l 505 274 l 497 234 l 505 200 l 519 175 l 519 132 l 534 100 l 538 78 l 546 69 l 580 81 l 601 108 l 601 117 l 635 117 l 650 108 m 419 58 l 419 46 l 416 42 l 406 42 l 401 46 l 408 61 l 419 58 "},"Ï":{"x_min":32.78125,"x_max":740.28125,"ha":766,"o":"m 695 88 l 740 27 l 734 -4 l 680 -51 l 658 -49 l 641 -31 l 571 -31 l 552 -39 l 441 -19 l 417 13 l 417 62 l 425 71 l 498 96 l 506 109 l 517 146 l 532 167 l 526 216 l 526 282 l 535 318 l 531 346 l 531 421 l 526 440 l 532 477 l 526 490 l 531 554 l 541 571 l 532 597 l 535 600 l 531 624 l 517 638 l 517 693 l 495 711 l 435 693 l 427 685 l 404 690 l 370 718 l 307 711 l 261 703 l 251 674 l 244 627 l 244 606 l 251 600 l 251 590 l 226 560 l 232 513 l 245 490 l 245 347 l 253 318 l 253 266 l 239 238 l 239 118 l 269 99 l 288 77 l 326 62 l 344 13 l 341 -1 l 324 -11 l 277 -22 l 223 -42 l 177 -28 l 162 -19 l 141 -28 l 61 -28 l 32 24 l 43 63 l 61 80 l 95 80 l 117 118 l 136 124 l 146 138 l 146 254 l 139 271 l 139 346 l 133 366 l 144 417 l 136 485 l 147 524 l 136 577 l 147 610 l 147 679 l 133 699 l 113 711 l 76 721 l 60 740 l 60 776 l 60 790 l 79 804 l 114 796 l 141 807 l 199 814 l 219 810 l 241 796 l 303 803 l 381 803 l 396 810 l 444 810 l 453 819 l 487 810 l 495 803 l 615 803 l 666 796 l 723 773 l 734 749 l 732 737 l 669 702 l 649 702 l 641 693 l 651 646 l 643 568 l 648 542 l 648 417 l 648 366 l 658 338 l 658 321 l 643 309 l 655 257 l 643 221 l 631 207 l 651 109 l 672 96 l 695 88 "},"„":{"x_min":89.40625,"x_max":641,"ha":766,"o":"m 641 155 l 641 111 l 636 111 l 627 55 l 627 -9 l 622 -3 l 611 -28 l 603 -28 l 575 -72 l 579 -74 l 560 -97 l 565 -99 l 531 -138 l 494 -169 l 446 -179 l 424 -179 l 393 -124 l 408 -72 l 417 -72 l 424 -62 l 435 -51 l 426 -48 l 438 -39 l 438 -22 l 451 -22 l 465 -9 l 465 6 l 470 11 l 451 14 l 446 20 l 438 20 l 435 33 l 426 39 l 417 39 l 412 58 l 403 68 l 408 72 l 388 108 l 399 155 l 417 183 l 417 194 l 438 205 l 456 223 l 460 216 l 494 242 l 508 242 l 518 232 l 552 239 l 552 232 l 554 228 l 569 228 l 565 223 l 579 214 l 589 214 l 589 208 l 606 200 l 617 200 l 617 183 l 636 152 l 641 155 m 341 155 l 341 111 l 336 111 l 326 55 l 326 -9 l 323 -3 l 312 -28 l 303 -28 l 276 -72 l 280 -74 l 261 -97 l 266 -99 l 232 -138 l 195 -169 l 146 -179 l 123 -179 l 94 -124 l 109 -72 l 118 -72 l 123 -62 l 135 -51 l 127 -48 l 138 -39 l 138 -22 l 151 -22 l 165 -9 l 165 6 l 170 11 l 151 14 l 146 20 l 138 20 l 135 33 l 127 39 l 118 39 l 113 58 l 104 68 l 109 72 l 89 108 l 100 155 l 118 183 l 118 194 l 138 205 l 156 223 l 160 216 l 195 242 l 209 242 l 218 232 l 253 239 l 253 232 l 255 228 l 269 228 l 266 223 l 280 214 l 290 214 l 290 208 l 307 200 l 318 200 l 318 183 l 336 152 l 341 155 "},"Â":{"x_min":41,"x_max":743.84375,"ha":766,"o":"m 738 685 l 743 680 l 741 661 l 732 653 l 713 658 l 703 669 l 703 680 l 713 688 l 738 685 m 684 344 l 713 186 l 689 120 l 658 59 l 605 3 l 542 -19 l 493 -33 l 458 -22 l 351 -22 l 332 -11 l 294 -19 l 261 -19 l 239 -27 l 193 -16 l 131 -16 l 49 6 l 41 22 l 49 55 l 72 73 l 121 77 l 162 105 l 180 130 l 185 181 l 193 200 l 187 250 l 187 403 l 196 433 l 180 523 l 196 587 l 188 627 l 199 680 l 196 698 l 158 723 l 126 713 l 57 723 l 41 741 l 41 761 l 103 808 l 124 808 l 150 792 l 170 805 l 215 799 l 279 799 l 297 810 l 329 810 l 343 823 l 395 810 l 415 826 l 467 810 l 511 810 l 599 744 l 630 733 l 652 727 l 671 713 l 671 594 l 661 538 l 616 468 l 616 433 l 649 403 l 684 403 l 689 389 l 684 344 m 524 622 l 534 625 l 534 653 l 528 653 l 504 630 l 477 627 l 462 640 l 449 672 l 425 672 l 407 650 l 359 666 l 359 694 l 289 705 l 282 694 l 282 602 l 282 561 l 289 491 l 304 475 l 354 475 l 395 491 l 430 484 l 499 511 l 499 529 l 485 561 l 513 616 l 524 622 m 576 208 l 580 252 l 534 319 l 504 325 l 475 356 l 444 365 l 407 347 l 384 372 l 367 375 l 354 363 l 294 363 l 285 319 l 285 244 l 276 194 l 285 120 l 301 111 l 367 111 l 403 115 l 425 111 l 449 111 l 462 129 l 493 129 l 511 147 l 544 161 l 576 208 "},"´":{"x_min":103.828125,"x_max":685,"ha":766,"o":"m 685 532 l 685 503 l 670 483 l 675 433 l 670 407 l 648 378 l 637 360 l 599 336 l 591 316 l 591 310 l 581 322 l 576 344 l 563 360 l 521 360 l 513 400 l 527 447 l 513 465 l 467 471 l 458 471 l 458 473 l 449 481 l 447 481 l 438 464 l 389 464 l 368 462 l 349 436 l 349 378 l 337 360 l 337 289 l 346 272 l 341 251 l 337 244 l 337 208 l 354 183 l 327 133 l 322 94 l 341 70 l 412 70 l 436 42 l 436 7 l 400 -22 l 304 -22 l 277 -22 l 202 -22 l 183 -16 l 158 -24 l 128 -10 l 112 22 l 112 50 l 147 92 l 150 110 l 181 128 l 199 122 l 213 133 l 202 168 l 219 197 l 228 242 l 219 261 l 224 304 l 224 452 l 213 465 l 202 476 l 144 483 l 113 503 l 103 523 l 109 541 l 173 588 l 264 588 l 338 588 l 519 588 l 539 597 l 576 586 l 620 586 l 685 532 m 563 948 l 572 927 l 547 876 l 517 876 l 466 827 l 425 784 l 387 755 l 395 730 l 365 699 l 357 669 l 335 651 l 289 677 l 281 669 l 267 669 l 218 752 l 251 777 l 256 814 l 301 889 l 330 902 l 387 982 l 506 1049 l 534 1000 l 558 977 l 572 948 l 563 948 "},"Í":{"x_min":15.828125,"x_max":872,"ha":766,"o":"m 372 625 l 372 614 l 359 602 l 342 605 l 336 619 l 342 643 l 350 651 l 369 643 l 372 625 m 752 619 l 768 584 l 768 566 l 752 555 l 717 564 l 715 575 l 720 622 l 715 637 l 726 651 l 752 633 l 752 619 m 872 759 l 872 744 l 843 717 l 824 717 l 803 733 l 775 728 l 768 722 l 720 705 l 695 714 l 654 707 l 633 680 l 633 614 l 613 555 l 613 411 l 633 383 l 626 333 l 626 184 l 614 158 l 648 106 l 663 95 l 698 95 l 720 139 l 742 139 l 750 123 l 745 103 l 726 86 l 757 30 l 739 28 l 687 -23 l 641 -23 l 543 -23 l 523 -16 l 497 -22 l 457 -22 l 421 -9 l 406 3 l 406 11 l 396 22 l 363 12 l 344 19 l 323 11 l 298 -5 l 263 -5 l 244 -14 l 160 -14 l 40 -14 l 15 30 l 21 55 l 51 68 l 80 74 l 123 106 l 123 172 l 133 202 l 141 297 l 127 342 l 143 408 l 135 472 l 143 500 l 133 577 l 141 587 l 135 611 l 124 625 l 133 678 l 133 689 l 78 736 l 42 741 l 24 761 l 24 782 l 105 816 l 143 808 l 195 800 l 211 819 l 302 805 l 336 759 l 377 750 l 396 728 l 351 704 l 314 708 l 298 717 l 265 714 l 236 680 l 236 669 l 260 643 l 255 630 l 229 614 l 229 494 l 236 475 l 278 475 l 298 458 l 336 472 l 363 463 l 380 472 l 421 458 l 499 472 l 518 494 l 518 529 l 530 545 l 523 625 l 497 648 l 514 689 l 511 704 l 442 714 l 408 723 l 424 741 l 424 782 l 460 814 l 494 805 l 514 808 l 523 816 l 551 814 l 560 805 l 614 814 l 630 805 l 665 805 l 698 789 l 739 777 l 752 764 l 799 764 l 824 779 l 861 772 l 872 759 m 775 372 l 775 355 l 760 345 l 734 374 l 723 422 l 742 439 l 752 439 l 768 422 l 775 372 m 516 208 l 530 258 l 511 351 l 497 365 l 434 365 l 406 382 l 314 382 l 298 372 l 271 372 l 233 380 l 226 372 l 214 327 l 226 299 l 214 222 l 226 208 l 236 155 l 231 139 l 231 111 l 252 83 l 320 74 l 363 83 l 377 78 l 396 46 l 408 46 l 442 74 l 507 86 l 516 119 l 516 208 "},"ì":{"x_min":64,"x_max":691,"ha":766,"o":"m 691 526 l 691 499 l 684 491 l 647 499 l 617 488 l 588 461 l 544 461 l 536 444 l 544 423 l 555 407 l 564 399 l 581 405 l 590 405 l 615 359 l 615 316 l 609 294 l 615 247 l 609 219 l 600 202 l 600 165 l 609 144 l 601 100 l 612 70 l 634 52 l 669 47 l 680 36 l 674 16 l 627 -8 l 609 -19 l 573 3 l 481 3 l 464 25 l 464 33 l 515 55 l 555 136 l 533 238 l 528 251 l 528 288 l 528 302 l 558 322 l 564 349 l 564 358 l 552 367 l 509 344 l 489 261 l 489 223 l 446 179 l 454 130 l 420 94 l 410 52 l 410 25 l 373 -11 l 348 -8 l 329 33 l 313 80 l 321 102 l 313 127 l 279 197 l 279 277 l 258 306 l 227 333 l 227 341 l 218 349 l 203 333 l 190 277 l 172 261 l 152 261 l 138 274 l 146 322 l 135 378 l 169 378 l 172 372 l 175 372 l 180 378 l 169 396 l 180 415 l 198 415 l 212 388 l 212 378 l 214 372 l 227 386 l 227 415 l 172 452 l 162 455 l 143 482 l 135 491 l 100 491 l 78 526 l 81 555 l 100 572 l 143 558 l 203 558 l 218 566 l 233 566 l 253 535 l 276 417 l 309 388 l 309 333 l 321 305 l 321 229 l 345 176 l 355 168 l 373 168 l 403 219 l 430 234 l 438 287 l 454 306 l 461 362 l 472 378 l 481 378 l 490 380 l 490 447 l 503 465 l 498 510 l 500 528 l 526 547 l 573 552 l 598 566 l 651 547 l 674 544 l 691 526 m 253 22 l 253 3 l 244 -3 l 169 -3 l 127 16 l 100 0 l 72 9 l 64 19 l 64 39 l 118 80 l 133 127 l 133 191 l 143 219 l 154 234 l 164 231 l 175 202 l 190 183 l 180 108 l 187 83 l 253 22 "},"Ú":{"x_min":56,"x_max":730,"ha":766,"o":"m 709 318 l 730 277 l 730 175 l 702 96 l 667 59 l 658 38 l 649 18 l 607 11 l 573 -9 l 490 -9 l 412 27 l 386 -3 l 321 -10 l 256 -10 l 225 16 l 225 53 l 258 91 l 303 103 l 312 248 l 312 335 l 312 525 l 318 563 l 313 613 l 299 702 l 264 714 l 245 727 l 201 719 l 196 719 l 183 706 l 183 682 l 155 650 l 165 552 l 155 524 l 125 520 l 103 513 l 65 531 l 56 618 l 56 793 l 76 813 l 173 813 l 256 807 l 269 815 l 310 815 l 326 831 l 359 810 l 376 820 l 446 807 l 498 788 l 506 732 l 432 713 l 417 693 l 417 602 l 406 563 l 406 496 l 438 468 l 475 482 l 509 475 l 544 480 l 581 461 l 637 449 l 694 396 l 709 318 m 618 193 l 618 271 l 604 342 l 588 367 l 532 388 l 487 382 l 427 353 l 410 263 l 418 193 l 418 149 l 430 124 l 498 99 l 547 91 l 570 116 l 598 116 l 618 193 "},"|":{"x_min":294,"x_max":394.71875,"ha":766,"o":"m 392 122 l 394 113 l 389 100 l 387 100 l 387 66 l 384 52 l 392 21 l 392 -3 l 384 -20 l 381 -34 l 372 -34 l 369 -46 l 367 -47 l 367 -53 l 358 -53 l 355 -55 l 338 -58 l 323 -39 l 321 -20 l 313 5 l 313 33 l 310 33 l 315 41 l 310 60 l 318 73 l 310 91 l 310 127 l 315 141 l 304 163 l 315 191 l 310 210 l 310 237 l 304 238 l 313 263 l 313 284 l 315 299 l 304 318 l 310 324 l 303 342 l 303 369 l 304 369 l 308 391 l 310 391 l 310 409 l 308 411 l 308 467 l 310 493 l 304 499 l 313 536 l 298 578 l 294 577 l 294 589 l 315 616 l 313 632 l 299 641 l 299 651 l 303 651 l 303 669 l 294 680 l 303 698 l 303 757 l 303 778 l 298 807 l 298 816 l 308 828 l 313 849 l 310 852 l 310 908 l 313 908 l 315 927 l 332 941 l 337 941 l 352 905 l 358 905 l 350 871 l 355 866 l 347 842 l 347 823 l 352 810 l 350 788 l 350 773 l 362 746 l 362 738 l 372 724 l 358 691 l 358 688 l 362 682 l 358 669 l 352 663 l 359 644 l 358 641 l 367 618 l 364 607 l 362 577 l 366 577 l 366 499 l 359 446 l 359 438 l 372 418 l 367 409 l 372 396 l 369 374 l 375 369 l 369 348 l 372 327 l 369 327 l 364 277 l 381 243 l 372 225 l 378 219 l 375 210 l 384 196 l 381 185 l 387 180 l 389 173 l 384 152 l 387 147 l 392 122 "},"§":{"x_min":125,"x_max":602,"ha":766,"o":"m 602 438 l 602 306 l 569 243 l 563 207 l 529 221 l 517 168 l 512 126 l 534 90 l 539 58 l 534 21 l 510 -58 l 465 -119 l 407 -144 l 393 -161 l 353 -144 l 332 -142 l 300 -133 l 279 -131 l 261 -131 l 243 -117 l 231 -92 l 210 -94 l 173 -72 l 173 13 l 219 87 l 261 99 l 286 99 l 310 64 l 334 67 l 364 10 l 381 -6 l 431 -6 l 431 46 l 431 69 l 413 107 l 364 157 l 357 201 l 326 274 l 289 297 l 279 329 l 279 360 l 249 385 l 199 403 l 164 393 l 144 438 l 125 460 l 125 593 l 157 607 l 141 642 l 164 674 l 193 698 l 210 730 l 210 770 l 236 752 l 212 799 l 201 846 l 236 940 l 263 957 l 255 979 l 295 1000 l 347 1013 l 386 1013 l 420 1008 l 456 985 l 517 907 l 510 866 l 492 828 l 467 810 l 432 821 l 407 846 l 407 897 l 450 940 l 450 952 l 432 968 l 381 940 l 364 952 l 340 952 l 292 940 l 312 907 l 288 889 l 288 854 l 298 810 l 298 752 l 321 764 l 340 735 l 413 680 l 448 656 l 486 613 l 478 579 l 500 560 l 549 545 l 558 502 l 552 468 l 602 438 m 456 244 l 500 360 l 474 438 l 381 557 l 404 545 l 364 595 l 323 595 l 321 630 l 298 622 l 255 622 l 243 610 l 243 515 l 315 449 l 340 417 l 334 385 l 362 368 l 407 299 l 413 263 l 456 244 "},"Ý":{"x_min":109,"x_max":685,"ha":766,"o":"m 685 415 l 685 377 l 670 322 l 653 294 l 642 203 l 607 155 l 587 88 l 568 30 l 541 22 l 503 -13 l 466 -19 l 438 -38 l 389 -30 l 378 -38 l 329 -22 l 289 -22 l 266 -1 l 217 12 l 180 44 l 152 66 l 121 133 l 109 175 l 109 203 l 152 267 l 178 267 l 239 258 l 266 228 l 287 183 l 305 161 l 305 133 l 332 100 l 351 80 l 420 100 l 449 100 l 466 135 l 517 135 l 538 165 l 544 203 l 577 239 l 577 319 l 568 330 l 541 322 l 503 358 l 394 358 l 378 365 l 353 360 l 343 360 l 324 389 l 324 420 l 348 443 l 402 443 l 432 458 l 484 458 l 514 438 l 544 458 l 575 458 l 586 474 l 575 523 l 552 552 l 560 585 l 541 627 l 511 671 l 503 688 l 495 694 l 462 694 l 451 701 l 401 701 l 381 677 l 359 707 l 338 699 l 305 656 l 278 644 l 258 616 l 242 571 l 242 552 l 212 510 l 178 486 l 152 486 l 143 505 l 133 610 l 141 624 l 129 671 l 129 765 l 133 785 l 168 811 l 192 811 l 229 780 l 313 794 l 383 830 l 397 829 l 424 802 l 460 813 l 484 811 l 517 780 l 552 767 l 618 712 l 630 644 l 640 599 l 667 555 l 670 523 l 677 499 l 677 425 l 685 415 "},"b":{"x_min":24.171875,"x_max":646,"ha":766,"o":"m 646 342 l 646 317 l 633 275 l 633 214 l 620 205 l 627 185 l 599 131 l 599 119 l 515 28 l 478 3 l 461 3 l 450 -7 l 438 -7 l 433 -13 l 433 -7 l 383 -7 l 381 -13 l 367 -1 l 351 -1 l 290 41 l 278 54 l 206 10 l 181 10 l 166 54 l 178 83 l 173 114 l 173 131 l 179 144 l 179 197 l 173 205 l 181 222 l 173 251 l 166 258 l 166 359 l 178 372 l 173 404 l 178 404 l 178 421 l 173 427 l 178 427 l 181 447 l 173 469 l 173 566 l 163 596 l 163 674 l 152 680 l 135 698 l 71 705 l 40 722 l 29 741 l 24 771 l 71 826 l 101 817 l 232 817 l 271 765 l 260 718 l 271 637 l 258 627 l 258 558 l 250 558 l 242 555 l 256 541 l 256 536 l 250 529 l 266 517 l 278 517 l 300 545 l 310 541 l 321 571 l 373 590 l 389 601 l 457 590 l 503 596 l 509 601 l 509 606 l 533 596 l 550 566 l 550 541 l 558 536 l 567 517 l 575 525 l 588 511 l 579 506 l 604 495 l 604 476 l 627 439 l 627 377 l 639 359 l 646 355 l 639 348 l 646 342 m 539 244 l 547 264 l 533 300 l 528 305 l 515 336 l 528 359 l 509 391 l 509 439 l 478 450 l 461 481 l 438 500 l 427 481 l 373 481 l 373 495 l 355 495 l 343 481 l 343 476 l 321 450 l 300 404 l 296 404 l 266 359 l 260 336 l 256 336 l 266 325 l 260 317 l 256 317 l 266 305 l 260 300 l 250 275 l 256 258 l 256 208 l 296 150 l 312 144 l 355 100 l 383 94 l 403 83 l 433 94 l 473 114 l 473 124 l 478 131 l 486 131 l 492 153 l 528 197 l 533 214 l 539 244 "},"q":{"x_min":98,"x_max":737.9375,"ha":766,"o":"m 701 -141 l 737 -165 l 724 -218 l 708 -238 l 708 -250 l 677 -263 l 653 -250 l 637 -254 l 637 -250 l 631 -242 l 624 -250 l 583 -254 l 560 -269 l 534 -263 l 529 -254 l 522 -263 l 487 -254 l 485 -263 l 446 -263 l 424 -269 l 404 -269 l 394 -254 l 358 -250 l 336 -225 l 336 -201 l 340 -196 l 340 -177 l 346 -177 l 353 -173 l 346 -173 l 346 -161 l 353 -161 l 353 -165 l 358 -173 l 370 -161 l 386 -161 l 394 -152 l 430 -136 l 441 -147 l 476 -152 l 487 -99 l 487 -83 l 492 -83 l 501 -62 l 501 -56 l 492 -52 l 476 -32 l 485 -27 l 485 -21 l 458 -9 l 430 -9 l 404 -32 l 386 -38 l 370 -56 l 376 -62 l 346 -56 l 336 -44 l 276 -44 l 233 -32 l 163 51 l 149 80 l 144 89 l 139 107 l 128 107 l 121 129 l 115 136 l 108 189 l 103 214 l 103 232 l 108 240 l 98 250 l 98 353 l 103 348 l 108 359 l 108 378 l 115 378 l 128 401 l 139 414 l 139 439 l 144 439 l 157 461 l 209 511 l 221 511 l 227 516 l 286 553 l 304 541 l 326 553 l 365 541 l 412 546 l 424 522 l 454 516 l 470 511 l 501 535 l 560 535 l 563 511 l 576 486 l 572 444 l 576 439 l 583 409 l 576 409 l 563 383 l 576 365 l 576 336 l 589 317 l 589 293 l 583 300 l 576 240 l 589 228 l 583 179 l 583 172 l 593 159 l 589 159 l 576 58 l 589 46 l 589 22 l 601 -27 l 593 -56 l 593 -88 l 601 -130 l 637 -141 l 669 -130 l 691 -136 l 701 -136 l 701 -141 m 476 203 l 487 275 l 476 287 l 476 293 l 454 300 l 446 293 l 433 305 l 441 310 l 430 322 l 446 339 l 433 365 l 430 383 l 430 401 l 394 409 l 376 426 l 376 450 l 358 469 l 346 455 l 315 461 l 286 421 l 269 421 l 227 392 l 227 305 l 203 280 l 203 214 l 221 172 l 250 136 l 246 129 l 256 119 l 256 107 l 282 94 l 282 97 l 286 107 l 304 78 l 381 78 l 394 89 l 386 94 l 400 119 l 433 136 l 433 159 l 458 185 l 476 189 l 476 203 "},"Ö":{"x_min":41.046875,"x_max":747.4375,"ha":766,"o":"m 742 9 l 747 2 l 735 -136 l 690 -167 l 661 -167 l 633 -136 l 623 -97 l 615 -46 l 615 -28 l 563 -7 l 373 -7 l 341 -19 l 298 -17 l 215 -17 l 169 -8 l 133 -17 l 65 2 l 41 30 l 45 77 l 62 86 l 114 94 l 139 123 l 139 199 l 154 249 l 154 355 l 149 396 l 160 463 l 149 505 l 141 569 l 154 594 l 154 630 l 144 649 l 155 705 l 125 727 l 79 741 l 71 749 l 71 770 l 125 816 l 141 818 l 178 805 l 250 816 l 264 823 l 299 818 l 336 791 l 347 773 l 344 752 l 305 732 l 290 705 l 253 693 l 244 680 l 252 639 l 252 574 l 252 396 l 236 365 l 244 296 l 244 249 l 236 231 l 236 141 l 253 115 l 269 102 l 290 105 l 307 120 l 398 94 l 435 112 l 481 102 l 501 112 l 530 149 l 530 260 l 530 371 l 544 388 l 539 426 l 517 457 l 532 494 l 544 510 l 532 557 l 525 574 l 544 621 l 539 652 l 520 680 l 514 705 l 490 723 l 456 727 l 456 743 l 460 749 l 460 755 l 450 768 l 441 788 l 490 805 l 531 805 l 558 793 l 698 810 l 716 805 l 747 760 l 735 705 l 718 685 l 661 668 l 652 657 l 652 605 l 680 596 l 678 584 l 650 549 l 644 505 l 633 485 l 623 428 l 633 355 l 632 335 l 632 255 l 632 133 l 661 112 l 687 102 l 729 55 l 742 9 "},"z":{"x_min":78.546875,"x_max":641,"ha":766,"o":"m 641 80 l 641 75 l 624 59 l 624 33 l 592 -14 l 538 -1 l 517 -9 l 492 -33 l 467 -33 l 451 -12 l 375 -12 l 362 -52 l 345 -74 l 332 -69 l 332 -22 l 281 -22 l 243 -27 l 214 -62 l 209 -56 l 196 -33 l 196 -14 l 193 -9 l 179 -22 l 141 -27 l 133 -14 l 108 -14 l 94 -1 l 84 -1 l 84 22 l 78 59 l 84 59 l 89 68 l 94 94 l 138 141 l 133 150 l 149 153 l 166 153 l 193 184 l 221 214 l 238 227 l 230 232 l 243 232 l 272 261 l 272 269 l 269 275 l 281 288 l 310 300 l 340 339 l 400 401 l 400 408 l 446 430 l 446 444 l 463 449 l 506 499 l 506 502 l 467 510 l 458 499 l 446 497 l 420 497 l 272 497 l 238 497 l 226 473 l 230 469 l 221 455 l 221 353 l 214 331 l 209 322 l 196 322 l 193 309 l 179 293 l 172 288 l 172 281 l 154 281 l 162 288 l 149 300 l 133 322 l 133 426 l 138 455 l 149 469 l 149 534 l 162 545 l 154 552 l 179 577 l 184 572 l 193 577 l 209 594 l 221 594 l 226 590 l 238 600 l 260 586 l 310 586 l 451 586 l 474 577 l 492 577 l 497 582 l 586 582 l 586 577 l 592 572 l 606 572 l 612 541 l 612 510 l 581 485 l 563 480 l 534 444 l 534 426 l 527 426 l 521 420 l 521 408 l 492 408 l 474 377 l 487 359 l 474 331 l 458 331 l 432 300 l 429 275 l 386 258 l 370 219 l 345 214 l 321 202 l 315 184 l 297 167 l 315 119 l 326 106 l 362 119 l 362 111 l 375 97 l 391 106 l 400 123 l 416 119 l 420 111 l 429 111 l 432 119 l 432 129 l 437 123 l 446 129 l 446 141 l 467 111 l 509 111 l 521 167 l 534 167 l 547 179 l 547 227 l 586 288 l 606 288 l 628 269 l 641 250 l 641 129 l 624 119 l 624 106 l 628 97 l 641 80 "},"ã":{"x_min":103.828125,"x_max":685,"ha":766,"o":"m 685 532 l 685 503 l 670 483 l 675 433 l 670 407 l 648 378 l 637 360 l 599 336 l 591 316 l 591 310 l 581 322 l 576 344 l 563 360 l 521 360 l 513 400 l 527 447 l 513 465 l 467 471 l 458 471 l 458 473 l 449 481 l 447 481 l 438 464 l 389 464 l 368 462 l 349 436 l 349 378 l 337 360 l 337 289 l 346 272 l 341 251 l 337 244 l 337 208 l 354 183 l 327 133 l 322 94 l 341 70 l 412 70 l 436 42 l 436 7 l 400 -22 l 304 -22 l 277 -22 l 202 -22 l 183 -16 l 158 -24 l 128 -10 l 112 22 l 112 50 l 147 92 l 150 110 l 181 128 l 199 122 l 213 133 l 202 168 l 219 197 l 228 242 l 219 261 l 224 304 l 224 452 l 213 465 l 202 476 l 144 483 l 113 503 l 103 523 l 109 541 l 173 588 l 264 588 l 338 588 l 519 588 l 539 597 l 576 586 l 620 586 l 685 532 "},"æ":{"x_min":50,"x_max":758,"ha":766,"o":"m 758 33 l 758 22 l 748 8 l 614 -16 l 562 2 l 539 22 l 513 16 l 460 -19 l 414 -4 l 386 -12 l 360 -4 l 321 -4 l 307 16 l 321 58 l 329 63 l 329 78 l 345 97 l 342 122 l 363 139 l 363 176 l 326 172 l 315 197 l 280 192 l 246 161 l 246 108 l 252 92 l 280 62 l 280 22 l 250 -10 l 206 2 l 152 -12 l 133 -22 l 112 -19 l 78 16 l 73 45 l 50 78 l 50 125 l 69 144 l 86 139 l 103 125 l 105 107 l 144 78 l 157 78 l 170 95 l 170 117 l 178 139 l 184 150 l 178 169 l 193 228 l 233 258 l 247 290 l 239 363 q 214 425 232 425 q 179 406 202 425 l 161 438 l 152 444 l 112 425 l 97 429 l 92 487 l 103 533 l 127 569 l 144 580 l 195 560 l 203 545 l 239 527 l 269 505 l 286 499 l 292 480 l 303 461 q 310 430 308 449 q 329 391 313 412 l 313 377 l 313 366 l 331 339 l 351 339 l 360 348 l 360 394 l 375 438 l 360 459 l 360 484 l 334 508 l 321 526 l 318 555 l 397 577 l 424 569 l 432 560 l 483 552 l 506 524 l 506 505 l 474 499 l 466 480 l 466 403 l 457 394 l 432 391 l 420 363 l 420 346 l 466 346 l 494 358 l 510 385 l 521 480 l 552 513 l 575 557 l 587 569 l 648 569 l 700 524 l 706 469 l 700 444 l 658 412 l 581 412 l 557 374 l 550 322 l 550 292 l 577 230 l 575 208 l 560 194 l 560 179 l 577 172 l 592 150 l 598 117 l 631 97 l 648 78 l 688 120 l 721 120 l 732 107 l 737 51 l 758 33 m 178 502 l 193 516 l 184 533 l 170 533 l 167 513 l 178 502 m 348 267 l 351 267 l 351 283 l 342 283 l 340 275 l 348 267 m 539 132 l 550 169 l 513 179 l 513 187 l 510 205 l 459 217 l 437 219 l 429 217 l 404 194 l 404 168 l 429 144 l 413 108 l 429 80 q 481 61 440 61 l 486 61 l 510 95 l 533 95 l 541 100 l 539 132 "},"É":{"x_min":64,"x_max":735.328125,"ha":766,"o":"m 719 761 l 735 733 l 729 698 l 710 672 l 672 705 l 667 708 l 650 694 l 650 538 l 664 513 l 656 481 l 638 438 l 646 343 l 630 291 l 630 255 l 638 226 l 638 176 l 653 130 l 719 59 l 719 19 l 699 -12 l 684 -26 l 638 -26 l 620 -32 l 565 -24 l 508 -30 l 481 -24 l 430 22 l 416 28 l 408 36 l 408 47 l 435 65 l 490 83 l 525 133 l 525 176 l 538 194 l 534 236 l 519 272 l 526 307 l 519 344 l 541 391 l 555 465 l 546 494 l 568 533 l 574 549 l 571 561 l 541 561 l 514 542 l 506 486 l 465 433 l 470 415 l 438 391 l 427 355 l 411 333 l 398 287 l 381 250 l 375 194 l 336 165 l 318 83 l 310 73 l 313 59 l 336 47 l 339 30 l 339 22 l 281 -19 l 230 -15 l 135 -15 l 89 -15 l 76 -5 l 64 12 l 64 55 l 89 78 l 135 86 l 147 115 l 147 170 l 141 182 l 141 208 l 171 241 l 147 282 l 158 343 l 144 397 l 157 513 l 157 579 l 163 616 l 155 640 l 143 649 l 143 713 l 101 718 l 72 752 l 76 779 l 89 792 l 247 792 l 275 782 l 295 782 l 302 773 l 295 733 l 281 700 l 246 661 l 253 602 l 245 574 l 245 523 l 253 511 l 238 481 l 238 438 l 253 420 l 253 397 l 229 344 l 229 325 l 238 316 l 238 300 l 207 269 l 209 252 l 230 232 l 255 234 l 318 297 l 326 344 l 344 372 l 339 415 l 373 447 l 381 486 l 411 520 l 420 602 l 465 677 l 470 700 l 462 723 l 455 733 l 484 780 l 529 794 l 511 821 l 460 821 l 419 800 l 389 792 l 353 805 l 326 829 l 247 842 l 220 842 l 193 875 l 173 902 l 173 947 l 152 969 l 163 995 l 198 1022 l 272 1022 l 290 1001 l 290 966 l 275 947 l 275 937 l 307 902 l 367 908 l 386 914 l 438 914 l 490 950 l 490 1002 l 546 1047 l 591 1024 l 628 1002 l 645 950 l 645 894 l 645 864 l 630 847 l 638 829 l 664 817 l 698 817 l 719 761 "},"~":{"x_min":61,"x_max":666.703125,"ha":766,"o":"m 653 406 l 666 386 l 661 327 l 638 316 l 649 302 l 646 290 l 631 286 l 593 261 l 563 255 l 555 226 l 546 230 l 525 214 l 495 214 l 487 205 l 465 217 l 440 205 l 424 200 l 406 217 l 398 217 l 375 208 l 352 230 l 323 244 l 307 290 l 289 302 l 295 322 l 271 322 l 258 333 l 240 322 l 228 336 l 209 333 l 208 316 l 208 244 l 173 214 l 163 214 l 149 200 l 141 214 l 119 205 l 86 226 l 81 217 l 71 261 l 61 277 l 78 294 l 89 338 l 110 357 l 110 364 l 133 400 l 163 406 l 169 400 l 190 438 l 232 456 l 278 456 l 310 440 l 348 440 l 375 423 l 372 402 l 395 391 l 389 372 l 406 359 l 418 372 l 438 327 l 463 338 l 481 327 l 487 346 l 508 346 l 511 368 l 503 380 l 506 394 l 516 394 l 512 409 l 527 416 l 549 438 l 624 429 l 653 406 "},"³":{"x_min":113.21875,"x_max":696.25,"ha":766,"o":"m 477 756 l 482 703 l 444 675 l 435 675 l 430 677 l 422 676 l 369 676 l 327 676 l 327 746 l 327 764 l 318 759 l 316 769 l 324 764 l 341 794 l 347 794 l 365 810 l 370 808 l 376 808 l 412 824 l 461 799 l 477 756 m 684 56 l 696 44 l 688 22 l 675 -2 l 645 -17 l 587 -22 l 587 -17 l 563 -2 l 539 -8 l 459 -8 l 452 -17 l 438 -2 l 408 -17 l 357 -17 l 321 -33 l 302 -22 l 291 -8 l 286 -13 l 184 -13 l 184 -2 l 179 1 l 173 -2 l 141 1 l 125 9 l 113 44 l 120 85 l 149 105 l 184 105 l 201 115 l 286 115 l 350 115 l 350 153 l 340 174 l 327 174 l 332 183 l 340 183 l 344 177 l 362 208 l 357 213 l 370 303 l 360 327 l 360 436 l 362 436 l 376 491 l 376 497 l 357 513 l 340 511 l 302 474 l 291 491 l 272 511 l 238 511 l 226 497 l 196 497 l 173 527 l 179 535 l 173 539 l 162 557 l 167 601 l 184 601 l 184 613 l 244 601 l 251 605 l 251 601 l 357 588 l 370 588 l 376 582 l 386 595 l 433 588 l 461 539 l 461 402 l 461 347 l 461 303 l 455 281 l 455 189 l 463 161 l 476 122 l 476 118 l 488 105 l 517 112 l 553 118 l 636 118 l 670 112 l 688 82 l 684 62 l 684 56 "},"¡":{"x_min":30,"x_max":735,"ha":766,"o":"m 529 1066 l 618 1030 l 607 939 l 581 924 l 529 930 l 501 930 l 449 886 l 422 886 l 396 913 l 352 905 l 323 905 l 315 931 l 264 931 l 234 905 l 234 913 l 244 924 l 201 950 l 176 983 l 176 1020 l 201 1047 l 234 1030 l 253 983 l 278 957 l 296 957 l 308 969 l 308 957 l 367 950 l 378 950 l 396 931 l 473 983 l 512 1059 l 529 1066 m 677 823 l 735 759 l 735 741 l 677 704 l 643 704 l 615 674 l 599 672 l 576 636 l 576 569 l 544 533 l 525 462 l 517 452 l 501 375 l 468 348 l 443 208 l 399 150 l 399 80 l 414 44 l 414 17 l 399 17 l 380 36 l 335 25 l 297 -10 l 209 -10 l 178 -29 l 169 -26 l 95 22 l 70 28 l 40 72 l 30 109 l 30 175 l 70 208 l 109 222 l 171 205 l 199 165 l 193 128 l 191 119 l 191 109 l 204 100 l 232 109 l 281 175 l 302 230 l 302 309 l 280 397 l 264 422 l 228 543 l 186 633 l 178 654 l 150 685 l 144 712 l 136 722 l 98 718 l 55 735 l 45 749 l 47 759 l 62 782 l 90 802 l 141 808 l 155 815 l 193 808 l 228 815 l 292 802 l 329 773 l 329 749 l 297 727 l 281 722 l 264 702 l 264 654 l 291 598 l 291 555 l 299 516 l 353 452 l 364 450 l 383 452 l 416 499 l 438 523 l 443 561 l 438 595 l 468 665 l 441 712 l 435 718 l 401 718 l 378 755 l 378 785 l 383 794 l 405 794 l 424 782 l 450 794 l 495 802 l 539 820 l 578 808 l 646 823 l 677 823 "},"[":{"x_min":187.828125,"x_max":558.0625,"ha":766,"o":"m 530 1001 l 558 936 l 526 855 l 441 855 l 441 855 l 353 817 l 367 796 l 320 714 l 320 616 l 332 589 l 324 521 l 319 502 l 319 478 l 332 409 l 319 336 l 334 291 l 312 251 l 312 179 l 321 127 l 299 83 l 321 30 l 312 0 l 312 -60 l 353 -90 l 479 -90 l 547 -144 l 539 -178 l 539 -221 l 477 -242 l 407 -235 l 358 -219 l 339 -208 l 286 -226 l 223 -216 l 207 -194 l 196 -160 l 196 16 l 209 47 l 202 112 l 187 173 l 202 202 l 202 305 l 217 409 l 231 433 l 215 472 l 202 613 l 209 635 l 215 682 l 207 717 l 207 741 l 220 770 l 202 836 l 220 886 l 196 918 l 217 981 l 269 981 l 343 1001 l 408 1001 l 427 995 l 479 1001 l 530 1001 "},"L":{"x_min":-0.25,"x_max":740.453125,"ha":766,"o":"m 735 103 l 740 59 l 692 -13 l 598 -13 l 579 -22 l 503 -13 l 484 -13 l 482 -20 l 427 -20 l 391 -6 l 378 -20 l 279 -20 l 279 -13 l 266 0 l 261 -6 l 237 -13 l 231 -20 l 219 -6 l 201 -21 l 106 -21 l 84 -6 l 35 -19 l 16 -19 l 6 6 l 12 10 l 12 16 l 0 30 l 6 30 l 12 72 l 16 89 l 164 89 l 183 97 l 190 103 l 201 89 l 231 97 l 243 97 l 253 108 l 247 175 l 243 180 l 253 194 l 247 229 l 247 272 l 253 289 l 253 422 l 266 447 l 253 491 l 272 499 l 266 508 l 266 520 l 279 530 l 266 549 l 261 616 l 253 633 l 253 651 l 261 645 l 283 688 l 283 706 l 266 719 l 243 723 l 219 710 l 207 720 l 136 720 l 113 706 l 113 710 l 100 719 l 84 719 l 84 723 l 58 723 l 24 706 l 6 732 l 12 735 l 12 749 l 0 762 l 12 772 l 6 779 l 12 779 l 16 796 l 35 807 l 35 802 l 54 796 l 66 791 l 84 791 l 86 796 l 130 805 l 237 805 l 247 814 l 291 807 l 321 796 l 324 802 l 324 796 l 362 784 l 372 784 l 401 807 l 503 796 l 539 779 l 539 766 l 544 762 l 544 735 l 520 723 l 510 706 l 484 710 l 482 706 l 482 700 l 443 719 l 367 719 l 362 723 l 358 723 l 358 598 l 358 469 l 370 465 l 370 391 l 383 361 l 383 339 l 378 339 l 367 289 l 372 284 l 362 272 l 355 229 l 349 223 l 367 197 l 362 150 l 362 132 l 383 97 l 468 97 l 539 89 l 557 103 l 569 103 l 590 127 l 625 144 l 625 252 l 625 284 l 614 301 l 620 308 l 620 327 l 638 344 l 638 375 l 666 391 l 697 400 l 721 375 l 721 357 l 735 344 l 727 314 l 727 308 l 721 301 l 735 289 l 735 248 l 740 240 l 727 229 l 735 180 l 735 158 l 727 164 l 727 127 l 735 103 "}," ":{"x_min":0,"x_max":0,"ha":766},"%":{"x_min":3,"x_max":772.96875,"ha":766,"o":"m 749 190 l 772 165 l 756 147 l 749 97 l 713 51 l 692 0 l 649 -57 l 612 -80 l 495 -116 l 446 -109 l 419 -91 l 393 -85 l 357 -30 l 353 0 l 353 118 l 375 161 l 375 200 l 365 208 l 355 202 l 324 147 l 302 118 l 295 92 l 258 51 l 250 4 l 228 -10 l 201 -57 l 198 -80 l 149 -141 l 129 -187 l 84 -218 l 47 -213 l 24 -181 l 38 -124 l 79 -57 l 92 -19 l 128 30 l 177 133 l 268 258 l 268 314 l 286 339 l 277 348 l 256 348 l 212 310 l 155 281 l 111 299 l 60 299 l 32 339 l 3 397 l 3 508 l 19 535 l 30 585 l 50 624 l 76 647 l 111 692 l 183 721 l 220 712 l 250 728 l 258 728 l 269 710 l 283 700 l 302 710 l 332 710 l 357 731 l 386 731 l 427 747 l 465 786 l 495 783 l 528 805 l 569 821 l 609 850 l 623 855 l 653 850 l 672 821 l 683 758 l 628 683 l 594 603 l 566 572 l 558 530 l 547 499 l 528 488 l 512 458 l 485 433 l 468 413 l 474 386 l 444 356 l 444 336 l 450 328 l 495 328 l 542 350 l 653 350 l 700 304 l 713 301 l 737 267 l 749 190 m 520 672 l 530 680 l 530 689 l 523 695 l 520 695 l 511 689 l 511 672 l 520 672 m 250 494 l 267 535 l 267 572 l 218 627 l 204 624 l 149 585 l 133 544 l 102 516 l 92 438 l 105 407 l 120 407 l 133 422 l 147 422 l 163 416 l 181 416 l 250 494 m 419 599 l 441 616 l 441 635 l 414 638 l 402 627 l 393 597 l 377 581 l 377 523 l 329 452 l 324 416 l 293 394 l 293 348 l 302 342 l 324 354 l 332 365 l 339 386 l 332 413 l 368 433 l 373 449 l 411 488 l 433 523 l 433 555 l 409 572 l 409 588 l 419 599 m 427 255 l 430 286 l 422 295 l 411 295 l 402 283 l 393 239 l 409 239 l 427 255 m 611 175 l 620 219 l 609 239 l 574 244 l 547 208 l 511 115 l 504 72 l 530 49 l 547 49 l 563 67 l 574 110 l 611 136 l 611 175 "},"P":{"x_min":54.546875,"x_max":758.078125,"ha":766,"o":"m 748 598 l 758 544 l 740 491 l 724 459 l 724 441 l 698 419 l 694 424 l 680 407 l 669 407 l 658 377 l 646 364 l 620 364 l 598 351 l 604 347 l 544 333 l 489 333 l 451 322 l 415 322 l 409 316 l 383 327 l 362 322 l 355 298 l 355 277 l 372 260 l 355 242 l 355 238 l 362 230 l 355 230 l 343 207 l 351 199 l 343 194 l 362 170 l 367 109 l 397 80 l 443 86 l 457 66 l 487 73 l 503 86 l 521 73 l 533 73 l 541 27 l 528 13 l 528 -3 l 511 -27 l 487 -24 l 432 -11 l 393 -16 l 381 -26 l 285 -26 l 279 -16 l 275 -24 l 251 -27 l 237 -16 l 173 -24 l 160 -11 l 147 -24 l 114 -16 l 84 -3 l 72 -3 l 66 19 l 54 19 l 60 35 l 60 56 l 90 73 l 84 80 l 95 80 l 102 73 l 106 80 l 126 92 l 160 86 l 185 109 l 215 97 l 215 92 l 245 92 l 251 122 l 251 136 l 256 136 l 261 141 l 261 158 l 271 158 l 271 327 l 271 557 l 285 580 l 279 610 l 275 618 l 275 671 l 285 691 l 285 700 l 261 713 l 256 720 l 245 709 l 233 720 l 220 700 l 191 709 l 191 713 l 185 720 l 173 709 l 130 713 l 106 727 l 90 756 l 90 769 l 126 791 l 118 800 l 173 791 l 178 786 l 201 800 l 279 800 l 351 791 l 383 774 l 402 781 l 432 800 l 451 791 l 473 786 l 591 769 l 617 744 l 646 756 l 647 755 q 650 751 649 752 l 656 744 l 661 738 l 674 713 l 704 700 l 698 696 l 718 660 l 710 653 l 726 635 l 748 598 m 634 497 l 664 532 l 664 544 l 658 544 l 652 574 l 652 599 l 639 610 l 617 641 l 609 660 l 591 648 l 587 653 l 544 664 l 533 682 l 498 700 l 451 682 l 432 713 l 415 698 l 362 698 l 362 677 l 355 641 l 355 610 l 362 557 l 362 455 l 381 424 l 397 419 l 498 419 l 521 424 l 544 412 l 579 450 l 591 450 l 598 441 l 630 459 l 630 467 l 634 497 "},"À":{"x_min":35,"x_max":726.296875,"ha":766,"o":"m 709 57 l 726 11 l 718 0 l 680 -20 l 652 -41 l 620 -36 l 552 -20 l 500 -28 l 452 -28 l 389 21 l 373 27 l 373 38 l 393 54 l 457 64 l 472 82 l 472 188 l 457 201 l 356 201 l 326 219 l 297 216 l 244 128 l 252 105 l 335 41 l 338 29 l 315 18 l 292 -9 l 243 -9 l 225 -20 l 175 -20 l 154 -28 l 111 -17 l 89 -17 l 47 2 l 35 35 l 35 57 l 84 82 l 119 91 l 163 160 l 173 252 l 193 291 l 193 324 l 212 372 l 220 417 l 263 541 l 284 647 l 301 680 l 307 741 l 381 819 l 402 811 l 418 788 l 454 763 l 481 677 l 511 627 l 499 575 l 499 520 l 528 481 l 538 391 l 543 352 l 554 306 l 577 263 l 591 196 l 606 160 l 629 138 l 680 96 l 692 93 l 709 57 m 418 309 l 438 335 l 438 365 l 409 410 l 409 435 l 409 484 l 402 537 l 383 575 l 373 575 l 356 538 l 344 519 l 329 473 l 329 429 l 315 383 l 301 309 l 315 299 l 356 306 l 398 299 l 418 309 "},"_":{"x_min":-76.21875,"x_max":854.78125,"ha":766,"o":"m 841 -150 l 854 -150 l 841 -237 l 816 -269 l 786 -282 l 770 -282 l 758 -293 l 752 -293 l 745 -286 l 740 -293 l 646 -271 l 567 -282 l 555 -269 l 532 -282 l 472 -271 l 453 -290 l 307 -290 l 247 -271 l 230 -286 l 212 -276 l -4 -276 l -54 -249 l -76 -226 l -63 -150 l -10 -112 l 43 -112 l 63 -106 l 72 -99 l 95 -106 l 206 -118 l 212 -123 l 223 -123 l 230 -118 l 261 -112 l 541 -112 l 651 -123 l 669 -116 l 770 -116 l 794 -123 l 805 -135 l 812 -131 l 824 -144 l 838 -131 l 841 -135 l 835 -141 l 841 -150 "},"ñ":{"x_min":57.0625,"x_max":658.390625,"ha":766,"o":"m 647 173 l 658 161 l 651 121 l 642 78 l 603 53 l 567 7 l 549 -2 l 474 -13 l 424 -33 l 369 -33 l 342 -38 l 293 -33 l 233 10 l 193 17 l 160 33 l 126 100 l 108 110 l 73 205 l 57 232 l 84 415 l 103 441 l 106 462 l 204 541 l 260 560 l 282 566 l 303 583 l 352 583 l 369 591 l 394 584 l 406 569 l 478 552 l 538 516 l 560 480 l 567 453 l 578 436 l 569 415 l 584 383 l 575 350 l 523 317 l 495 317 l 469 333 l 458 360 l 429 389 l 424 444 l 406 462 l 383 450 l 348 455 l 318 444 l 285 455 l 252 424 l 229 424 l 212 405 l 204 353 l 212 304 l 231 278 l 231 267 l 212 242 l 222 211 l 222 200 l 185 192 l 185 161 l 212 121 l 229 118 l 307 60 l 342 72 l 360 92 l 406 92 l 420 83 l 492 121 l 538 176 l 567 203 l 598 200 l 633 176 l 647 173 "},"+":{"x_min":84,"x_max":713,"ha":766,"o":"m 713 325 l 713 278 l 653 232 l 546 243 l 489 232 l 465 232 l 440 194 l 451 75 l 440 1 l 383 -48 l 340 1 l 340 108 l 344 169 l 344 216 l 320 249 l 107 249 l 94 267 l 84 267 l 84 316 l 133 350 l 320 350 l 340 374 l 340 547 l 358 591 l 393 616 l 440 572 l 451 473 l 440 459 l 451 365 l 512 346 l 629 346 l 702 341 l 713 325 "},"‚":{"x_min":240.984375,"x_max":553,"ha":766,"o":"m 553 178 l 553 123 l 550 123 l 536 53 l 536 -28 l 530 -19 l 519 -50 l 506 -50 l 472 -106 l 477 -110 l 453 -136 l 460 -142 l 418 -187 l 370 -226 l 313 -239 l 283 -239 l 245 -171 l 264 -106 l 275 -106 l 283 -92 l 295 -80 l 287 -75 l 300 -62 l 300 -45 l 318 -45 l 335 -28 l 335 -6 l 341 -1 l 318 2 l 313 10 l 300 10 l 295 27 l 287 33 l 275 33 l 269 57 l 258 70 l 264 74 l 258 82 l 240 118 l 253 178 l 275 213 l 275 227 l 300 239 l 324 263 l 329 257 l 370 287 l 389 287 l 401 274 l 444 282 l 444 274 l 446 269 l 465 269 l 460 263 l 477 251 l 490 251 l 490 243 l 511 234 l 524 234 l 524 213 l 550 174 l 553 178 "},"½":{"x_min":117.921875,"x_max":666.375,"ha":766,"o":"m 650 211 l 666 187 l 663 194 l 638 119 l 638 108 l 633 108 l 620 72 l 620 66 l 609 54 l 612 47 l 583 36 l 560 6 l 538 -5 l 519 0 l 502 0 l 494 -5 l 427 -12 l 397 -30 l 378 -19 l 358 0 l 306 -5 l 269 25 l 250 36 l 212 11 l 212 0 l 146 0 l 136 11 l 117 47 l 130 89 l 122 119 l 122 132 l 130 132 l 141 167 l 130 240 l 130 296 l 141 314 l 182 308 l 182 301 l 224 278 l 224 248 l 240 194 l 253 194 l 253 180 l 294 144 l 306 144 l 312 119 l 378 97 l 383 102 l 397 89 l 418 89 l 427 97 l 427 108 l 483 115 l 505 149 l 532 163 l 532 174 l 555 196 l 549 205 l 567 236 l 555 258 l 579 285 l 579 289 l 573 296 l 579 296 l 583 301 l 573 319 l 579 328 l 555 350 l 555 357 l 538 361 l 464 392 l 443 392 l 427 404 l 418 400 l 346 400 l 306 422 l 287 417 l 266 417 l 258 422 l 240 459 l 212 465 l 176 508 l 169 514 l 159 514 l 164 520 l 146 549 l 146 572 l 130 598 l 130 641 l 117 650 l 136 663 l 136 680 l 146 680 l 159 694 l 151 701 l 164 710 l 164 733 l 169 723 l 195 741 l 195 761 l 224 779 l 240 771 l 269 792 l 278 784 l 312 808 l 317 803 l 342 822 l 378 808 l 389 803 l 401 792 l 460 784 l 494 766 l 515 766 l 519 749 l 555 719 l 560 719 l 567 761 l 573 792 l 609 792 l 625 779 l 633 736 l 625 736 l 604 694 l 620 663 l 612 641 l 625 627 l 620 560 l 604 543 l 591 543 l 573 585 l 567 580 l 567 598 l 549 616 l 544 645 l 538 641 l 532 671 l 519 677 l 502 689 l 494 689 l 489 680 l 489 689 l 476 694 l 460 706 l 455 701 l 418 736 l 389 733 l 389 736 l 367 741 l 346 741 l 323 733 l 317 723 l 328 710 l 287 694 l 250 701 l 250 706 l 236 719 l 228 719 l 228 701 l 236 694 l 224 680 l 224 663 l 212 650 l 206 621 l 224 590 l 212 580 l 218 543 l 240 520 l 282 500 l 287 508 l 312 491 l 312 482 l 317 478 l 323 478 l 328 482 l 354 494 l 358 491 l 372 500 l 476 459 l 532 465 l 555 447 l 583 392 l 596 392 l 596 386 l 620 380 l 638 339 l 633 330 l 655 308 l 663 285 l 655 285 l 655 223 l 663 217 l 655 217 l 650 211 "},"Æ":{"x_min":-8.171875,"x_max":776.296875,"ha":766,"o":"m 749 168 l 776 109 l 773 80 l 719 -11 l 701 -21 l 645 -21 l 618 -21 l 577 22 l 555 63 l 544 109 l 550 138 l 544 168 l 550 227 l 544 255 l 506 309 l 495 303 l 476 277 l 441 266 l 427 255 l 430 240 l 454 227 l 446 180 l 429 147 l 429 109 l 503 33 l 500 3 l 489 -8 l 373 -21 l 280 -21 l 239 24 l 219 -1 l 177 6 l 149 -33 l 130 -41 l 70 -28 l 46 -28 l 0 24 l 0 62 l -8 80 l 1 165 l 27 190 l 70 183 l 89 168 l 103 168 l 110 186 l 110 205 l 120 219 l 138 321 l 182 369 l 201 396 l 228 403 l 239 417 l 231 449 l 190 486 l 173 523 l 173 595 l 157 624 l 110 656 l 76 662 l 66 662 l 40 700 l 46 756 l 76 785 l 127 807 l 157 802 l 190 774 l 228 749 l 239 747 l 251 747 l 298 782 l 319 794 l 350 791 l 381 774 l 435 782 l 484 774 l 506 749 l 466 702 l 449 700 l 438 700 l 421 680 l 412 638 l 419 613 l 419 533 l 419 497 l 427 462 l 438 452 l 472 459 l 521 524 l 521 685 l 527 735 l 577 767 l 612 794 l 627 794 l 647 767 l 681 777 l 694 774 l 704 755 l 709 702 l 649 653 l 629 656 l 610 685 l 612 717 l 610 719 l 601 719 l 592 709 l 592 638 l 580 583 l 580 486 l 564 449 l 564 424 l 550 412 l 555 396 l 585 369 l 612 321 l 647 303 l 647 285 l 629 266 l 637 186 l 664 172 l 667 165 l 675 155 l 713 165 l 727 172 l 749 168 m 337 580 l 350 700 l 337 719 l 267 727 l 251 709 l 244 691 l 256 643 l 244 619 l 244 580 l 264 523 l 316 468 l 329 468 l 348 541 l 337 580 m 319 333 l 327 341 l 327 348 l 321 351 l 310 351 l 298 338 l 319 333 m 327 194 l 337 236 l 327 272 l 335 303 l 327 310 l 294 321 l 286 333 l 259 333 l 244 321 l 221 255 l 231 238 l 251 230 l 251 219 l 247 216 l 247 200 l 264 200 l 291 165 l 301 161 l 327 194 m 313 115 l 319 119 l 319 138 l 310 144 l 301 124 l 304 115 l 313 115 m 251 97 l 259 99 l 259 106 l 244 133 l 236 133 l 227 109 l 231 97 l 251 97 "},"Ë":{"x_min":46,"x_max":721,"ha":766,"o":"m 721 7 l 721 4 l 695 -7 l 641 -22 l 586 -22 l 582 -16 l 476 -16 l 458 -30 l 421 -10 l 396 22 l 413 84 l 430 97 l 473 84 l 479 84 l 487 97 l 476 147 l 487 190 l 479 236 l 479 258 l 483 292 l 483 401 l 483 553 l 443 583 l 440 589 l 476 619 l 473 639 l 443 666 l 446 686 l 430 703 l 406 700 l 396 686 l 396 666 l 372 648 l 358 633 l 374 589 l 374 543 l 386 525 l 358 486 l 367 425 l 346 386 l 341 349 l 356 331 l 356 275 l 367 258 l 346 203 l 341 168 l 337 153 l 337 117 l 319 92 l 319 46 l 246 -20 l 198 -20 l 168 -33 l 113 -18 l 86 0 l 46 70 l 46 156 l 84 186 l 198 168 l 228 186 l 239 200 l 239 240 l 257 283 l 255 310 l 251 314 l 251 404 l 249 422 l 249 492 l 249 607 l 257 619 l 246 675 l 222 691 l 192 694 l 176 718 l 165 773 l 176 794 l 200 810 l 263 810 l 378 810 l 383 812 l 455 812 l 479 797 l 510 808 l 530 808 l 549 796 l 623 796 l 638 808 l 658 802 l 678 750 l 678 736 l 646 710 l 601 710 l 582 691 l 591 633 l 591 569 l 584 553 l 584 505 l 577 497 l 584 422 l 568 394 l 584 314 l 574 292 l 582 239 l 563 203 l 574 153 l 582 100 l 615 70 l 669 70 l 683 54 l 686 25 l 721 7 "},"'":{"x_min":253.171875,"x_max":490,"ha":766,"o":"m 441 948 l 490 874 l 477 755 l 454 706 l 473 624 l 454 474 l 383 426 l 372 415 l 334 426 l 299 474 l 313 624 l 264 802 l 253 814 l 264 849 l 299 938 l 348 957 l 441 948 "},"ª":{"x_min":76,"x_max":636.78125,"ha":766,"o":"m 628 194 l 636 150 l 606 71 l 533 0 l 503 -6 l 461 -29 l 412 -38 l 360 -38 l 312 -49 l 288 -29 l 244 -24 l 209 11 l 190 17 l 167 67 l 157 132 l 143 144 l 112 182 l 103 287 l 76 325 l 76 450 l 89 533 l 112 575 l 138 686 l 198 747 l 227 750 l 258 768 l 307 784 l 342 789 l 352 806 l 369 806 l 443 769 l 515 750 l 557 789 l 582 789 l 615 769 l 615 666 l 601 630 l 612 569 l 593 478 l 570 478 l 515 533 l 510 575 l 492 616 l 424 666 l 397 677 l 397 704 l 383 714 l 367 714 l 352 694 l 310 698 l 244 672 l 190 593 l 190 533 l 179 519 l 157 459 l 167 441 l 244 414 l 269 433 l 297 441 l 334 426 l 402 414 l 419 394 l 424 377 l 406 354 l 334 343 l 258 354 l 209 316 l 179 325 l 167 311 l 167 231 l 204 178 l 204 150 l 233 109 l 280 109 l 293 81 l 342 71 l 406 61 l 419 71 l 419 81 l 456 114 l 456 132 l 473 178 l 510 231 l 563 243 l 601 243 l 628 194 "},"ð":{"x_min":84,"x_max":680.171875,"ha":766,"o":"m 666 373 l 680 266 l 666 189 l 636 132 l 617 68 l 538 6 l 481 -6 l 406 -6 l 383 13 l 342 6 l 329 10 l 329 -14 l 317 -30 l 293 -25 l 293 -48 l 298 -115 l 306 -121 l 345 -121 l 388 -133 l 397 -125 l 416 -136 l 432 -161 l 402 -200 l 364 -225 l 335 -225 l 309 -217 l 255 -217 l 226 -217 l 154 -217 l 135 -233 l 115 -227 l 84 -200 l 84 -158 l 108 -125 l 128 -115 l 151 -122 l 187 -80 l 198 6 l 208 47 l 200 90 l 217 182 l 217 207 l 189 245 l 198 297 l 187 373 l 198 461 l 183 488 l 174 496 l 138 505 l 108 524 l 117 579 l 143 603 l 162 597 l 180 585 l 229 590 l 263 576 l 298 549 l 342 571 l 375 603 l 432 603 l 443 609 l 474 605 l 492 594 l 535 587 l 590 552 l 601 530 l 635 505 l 666 414 l 648 393 l 666 373 m 569 179 l 598 257 l 587 335 l 572 393 l 535 477 l 497 515 l 437 515 l 432 505 l 407 477 l 388 477 l 372 494 l 353 494 l 326 458 l 301 440 l 291 421 l 291 353 l 298 260 l 288 229 l 288 189 l 326 132 l 345 127 l 414 71 l 454 85 l 463 77 l 481 77 l 486 90 l 503 115 l 526 127 l 535 157 l 569 179 m 427 335 l 456 303 l 427 266 l 414 266 l 399 297 l 402 321 l 414 335 l 427 335 "},"T":{"x_min":84,"x_max":690.25,"ha":766,"o":"m 487 601 l 487 571 l 474 577 l 462 606 l 487 601 m 683 522 l 690 522 l 678 499 l 683 473 l 660 428 l 606 428 l 593 528 l 601 534 l 593 541 l 581 590 l 581 606 l 587 650 l 571 662 l 557 692 l 546 703 l 529 699 l 521 699 l 511 711 l 492 662 l 481 650 l 469 667 l 469 699 l 481 711 l 474 727 l 457 722 l 441 686 l 433 637 l 433 606 l 446 590 l 433 577 l 433 510 l 441 502 l 427 491 l 433 444 l 433 431 l 427 431 l 424 426 l 427 421 l 433 365 l 415 353 l 415 336 l 410 330 l 415 322 l 424 309 l 410 300 l 415 258 l 424 228 l 415 228 l 415 141 l 453 119 l 457 123 l 503 97 l 529 123 l 557 107 l 587 97 l 593 107 l 617 94 l 629 80 l 635 33 l 606 27 l 593 16 l 587 22 l 575 8 l 521 16 l 338 33 l 326 22 l 309 22 l 292 8 l 292 16 l 264 33 l 226 27 l 204 16 l 167 22 l 143 51 l 149 80 l 161 111 l 215 123 l 232 107 l 264 111 l 275 111 l 280 119 l 304 123 l 326 107 l 338 107 l 351 119 l 351 152 l 356 208 l 370 219 l 356 244 l 364 275 l 351 287 l 344 322 l 356 336 l 356 439 l 344 461 l 351 469 l 338 491 l 344 510 l 370 545 l 370 563 l 364 571 l 356 590 l 351 590 l 351 703 l 338 722 l 286 727 l 286 733 l 266 733 l 232 715 l 226 686 l 245 667 l 238 643 l 215 643 l 193 633 l 193 552 l 186 545 l 204 516 l 196 480 l 178 461 l 186 455 l 149 426 l 107 444 l 84 486 l 84 510 l 107 541 l 103 581 l 97 601 l 114 624 l 107 650 l 107 667 l 114 667 l 114 763 l 103 776 l 161 823 l 196 830 l 196 823 l 245 823 l 250 830 l 264 819 l 280 835 l 296 830 l 356 823 l 364 819 l 370 823 l 380 819 l 398 819 l 410 830 l 453 823 l 492 819 l 521 813 l 541 830 l 552 830 l 552 823 l 622 813 l 651 794 l 660 757 l 663 752 l 669 757 l 669 733 l 690 727 l 669 692 l 678 686 l 678 610 l 663 601 l 683 545 l 678 528 l 683 522 "},"Þ":{"x_min":3.859375,"x_max":750,"ha":766,"o":"m 735 552 l 750 371 l 750 282 l 737 216 l 716 152 l 700 132 l 700 85 l 628 -4 l 596 -34 l 544 -34 l 526 -39 l 492 -31 l 441 -6 l 411 11 l 384 16 l 365 -20 l 147 -35 l 27 -35 l 3 -6 l 10 66 l 37 87 l 81 87 l 107 103 l 132 124 l 132 238 l 132 285 l 132 441 l 132 616 l 142 638 l 142 706 l 107 712 l 84 729 l 37 729 l 27 744 l 27 783 l 47 805 l 108 817 l 220 799 l 247 805 l 298 811 l 321 811 l 354 773 l 370 758 l 386 762 l 419 785 l 482 799 l 498 812 l 579 812 l 650 783 l 701 717 l 716 638 l 737 585 l 735 552 m 327 606 l 335 671 l 321 706 l 308 709 l 298 702 l 302 662 l 292 644 l 274 633 l 246 633 l 238 624 l 226 485 l 243 457 l 266 449 l 308 485 l 308 507 l 292 530 l 280 532 l 246 555 l 246 581 l 255 596 l 283 599 l 292 588 l 301 544 l 316 555 l 327 606 m 646 227 l 653 266 l 653 560 l 646 578 l 632 638 l 591 709 l 566 724 l 535 730 l 511 717 l 471 712 l 456 702 l 435 662 l 427 635 l 416 566 l 399 532 l 384 477 l 384 412 l 401 385 l 427 388 l 445 371 l 445 335 l 435 318 l 408 309 l 408 293 l 419 245 l 425 207 l 446 135 l 498 91 l 552 85 l 581 96 l 620 127 l 635 179 l 646 227 m 318 91 l 327 117 l 318 152 l 327 207 l 316 225 l 302 257 l 280 282 l 274 309 l 266 327 l 247 330 l 243 321 l 238 280 l 225 235 l 225 124 l 243 91 l 284 91 l 301 85 l 318 91 "},"j":{"x_min":133.53125,"x_max":547.453125,"ha":766,"o":"m 542 722 l 542 666 l 507 644 l 507 633 l 493 633 l 476 613 l 452 619 l 447 627 l 442 619 l 387 633 l 358 680 l 353 680 l 353 692 l 358 692 l 363 718 l 382 747 l 400 758 l 405 765 l 405 778 l 447 797 l 476 783 l 501 753 l 519 753 l 523 736 l 542 722 m 542 269 l 547 263 l 533 244 l 533 144 l 523 136 l 523 119 l 535 107 l 531 70 l 523 27 l 533 16 l 533 -80 l 507 -118 l 507 -152 l 493 -187 l 493 -213 l 490 -208 l 459 -248 l 412 -274 l 405 -269 l 387 -277 l 382 -285 l 382 -298 l 363 -291 l 358 -298 l 310 -291 l 282 -285 l 256 -277 l 240 -277 l 227 -298 l 185 -226 l 179 -230 l 167 -219 l 163 -226 l 155 -199 l 138 -183 l 133 -136 l 147 -27 l 149 -19 l 179 9 l 185 2 l 204 22 l 209 16 l 215 22 l 235 33 l 298 -13 l 303 -49 l 316 -80 l 316 -97 l 310 -91 l 298 -118 l 286 -136 l 270 -136 l 264 -127 l 235 -147 l 235 -158 l 256 -178 l 270 -178 l 270 -183 l 324 -183 l 327 -178 l 382 -171 l 382 -147 l 416 -118 l 423 -118 l 436 -105 l 430 -62 l 442 -44 l 436 -13 l 423 2 l 430 22 l 416 27 l 430 41 l 422 45 l 422 54 l 433 61 l 425 65 l 430 70 l 436 64 l 436 100 l 423 184 l 423 222 l 436 240 l 423 294 l 430 300 l 423 305 l 423 355 l 430 394 l 442 408 l 436 426 l 436 438 l 412 455 l 363 469 l 333 455 l 333 450 l 244 450 l 227 469 l 222 469 l 215 463 l 204 475 l 198 469 l 179 485 l 193 524 l 222 541 l 222 555 l 235 556 l 270 556 l 294 543 l 376 543 l 471 543 l 493 555 l 523 529 l 542 480 l 535 475 l 535 463 l 547 450 l 542 450 l 542 269 m 382 -35 l 412 -49 l 405 -66 l 382 -88 l 363 -88 l 363 -44 l 382 -35 "},"1":{"x_min":81.34375,"x_max":695,"ha":766,"o":"m 495 424 l 495 412 l 492 404 l 475 404 l 457 433 l 457 488 l 473 505 l 495 505 l 495 424 m 625 808 l 661 750 l 649 702 l 606 682 l 571 693 l 527 693 l 492 656 l 492 610 l 475 610 l 467 616 l 481 656 l 465 679 l 450 691 l 440 691 l 429 674 l 421 618 l 409 552 l 401 523 l 409 433 l 398 377 l 398 311 l 391 291 l 398 248 l 391 202 l 409 97 l 418 88 l 465 97 l 486 82 l 552 82 l 585 109 l 601 106 l 656 35 l 656 24 l 620 -14 l 617 -22 l 609 -30 l 555 -22 l 546 -30 l 495 -9 l 409 -9 l 380 -9 l 326 -1 l 295 7 l 104 7 l 86 16 l 81 24 l 84 51 l 119 69 l 152 62 l 195 77 l 266 69 l 282 69 l 292 88 l 295 119 l 320 169 l 320 205 l 300 238 l 310 283 l 318 301 l 299 356 l 299 462 l 300 485 l 321 499 l 332 510 l 313 624 l 321 653 l 310 688 l 285 712 l 237 712 l 173 727 l 157 739 l 109 739 l 86 773 l 92 794 l 116 810 l 164 820 l 218 815 l 347 815 l 446 815 l 609 815 l 625 808 m 695 4 l 695 -6 l 690 -14 l 682 -14 l 672 -4 l 672 11 l 690 11 l 695 4 "},"ä":{"x_min":48,"x_max":705,"ha":766,"o":"m 705 520 l 705 502 l 658 475 l 641 461 l 589 461 l 552 410 l 539 352 l 560 306 l 549 269 l 560 238 l 544 117 l 563 83 l 578 73 l 623 73 l 645 49 l 669 43 l 687 -8 l 699 -27 l 680 -70 l 672 -136 l 635 -182 l 615 -192 l 596 -192 l 573 -164 l 573 -52 l 563 -46 l 526 -46 l 509 -32 l 460 -32 l 444 -19 l 415 -27 l 400 -19 l 373 -34 l 344 -27 l 315 -37 l 296 -37 l 279 -19 l 232 -34 l 195 -34 l 178 -39 l 160 -34 l 144 -52 l 133 -147 l 114 -166 l 72 -150 l 60 -150 l 48 -131 l 48 -52 l 72 30 l 109 61 l 133 64 l 168 105 l 171 111 l 180 111 l 198 83 l 206 83 l 224 130 l 258 165 l 256 213 l 256 342 l 269 385 l 261 423 l 245 433 l 232 426 l 227 426 l 223 433 l 223 463 l 204 475 l 171 466 l 155 466 l 126 507 l 152 581 l 168 591 l 214 591 l 217 593 l 250 591 l 272 584 l 313 584 l 324 574 l 359 581 l 370 586 l 399 581 l 433 581 l 452 568 l 503 568 l 532 568 l 558 581 l 598 563 l 632 569 l 705 520 m 444 241 l 450 263 l 441 360 l 415 388 l 399 428 l 387 433 l 354 423 l 354 380 l 379 355 l 379 342 l 370 333 l 367 333 l 362 335 l 354 349 l 350 344 l 350 241 l 359 191 l 344 165 l 332 112 l 341 73 l 354 64 l 408 73 l 435 91 l 444 183 l 427 226 l 444 241 "},"<":{"x_min":138.71875,"x_max":583.921875,"ha":766,"o":"m 518 613 l 563 580 l 583 523 l 539 502 l 539 459 l 498 463 l 444 438 l 444 403 l 393 391 l 344 371 l 289 313 l 295 266 l 326 249 l 393 196 l 452 178 l 472 128 l 534 122 l 541 97 l 563 51 l 541 -8 l 513 -22 l 484 -22 l 389 27 l 344 55 l 337 86 l 307 102 l 291 130 l 212 183 l 187 183 l 138 252 l 157 319 l 212 366 l 235 423 l 284 427 l 307 470 l 344 513 l 381 523 l 381 555 l 389 560 l 389 577 l 411 584 l 444 577 l 452 627 l 518 613 "},"¹":{"x_min":-5.71875,"x_max":766.8125,"ha":766,"o":"m 755 730 l 766 680 l 766 566 l 758 540 l 758 455 l 734 411 l 708 383 l 706 367 l 697 361 l 669 361 l 658 347 l 560 347 l 484 429 l 472 455 l 472 547 l 443 602 l 461 655 l 437 685 l 437 711 l 429 716 l 417 705 l 417 666 l 388 630 l 397 587 l 397 447 l 382 423 l 382 388 l 393 361 l 393 202 l 393 161 l 401 129 l 383 -2 l 354 -21 l 323 -19 l 307 22 l 269 58 l 255 114 l 233 269 l 221 342 l 209 383 l 198 401 l 184 397 l 167 363 l 167 316 l 155 297 l 155 194 l 164 176 l 155 139 l 164 114 l 155 65 l 190 28 l 190 0 l 167 -16 l 92 -24 l 18 -8 l 6 8 l 11 46 l 48 73 l 63 118 l 55 176 l 48 202 l 55 261 l 46 325 l 46 349 l 62 380 l 62 540 l 52 555 l 60 587 l 70 602 l 60 694 l 46 714 l 16 716 l -5 752 l 1 797 l 16 819 l 63 819 l 89 834 l 135 819 l 155 825 l 167 825 l 203 788 l 228 784 l 260 805 l 298 797 l 326 808 l 369 813 l 383 819 l 418 808 l 473 776 l 484 776 l 509 797 l 538 797 l 579 825 l 614 832 l 636 832 l 660 813 l 697 808 l 755 730 m 753 269 l 753 231 l 726 205 l 682 194 l 663 184 l 636 187 l 614 205 l 543 194 l 503 194 l 478 210 l 464 229 l 464 258 l 489 305 l 500 314 l 538 290 l 606 290 l 633 305 l 745 278 l 753 269 m 743 124 l 743 92 l 708 60 l 505 60 l 471 100 l 471 124 l 505 156 l 560 147 l 600 156 l 663 156 l 688 161 l 712 158 l 743 124 m 651 479 l 682 577 l 671 602 l 663 658 l 645 694 l 636 694 l 600 702 l 600 669 l 581 643 l 562 643 l 554 592 l 560 547 l 551 522 l 546 484 l 560 447 l 591 441 l 619 463 l 651 479 m 314 592 l 314 698 l 307 724 l 293 724 l 245 730 l 243 705 l 215 674 l 215 660 l 219 637 l 254 592 l 254 519 l 271 481 l 291 491 l 298 484 l 298 473 l 293 452 l 307 391 l 310 397 l 310 544 l 300 574 l 314 592 m 310 308 l 310 314 l 307 325 l 310 308 "},"t":{"x_min":54,"x_max":598,"ha":766,"o":"m 598 250 l 598 185 l 593 179 l 593 159 l 586 159 l 580 150 l 557 124 l 563 120 l 557 120 l 547 80 l 547 74 l 522 63 l 522 45 l 510 33 l 516 27 l 467 22 l 451 8 l 438 -14 l 429 -14 l 420 -22 l 403 -1 l 331 -9 l 320 -22 l 297 2 l 301 27 l 255 58 l 237 111 l 231 111 l 227 120 l 227 136 l 243 153 l 231 219 l 246 287 l 246 391 l 255 450 l 255 511 l 237 522 l 179 511 l 120 511 l 108 499 l 83 517 l 78 511 l 66 522 l 54 522 l 60 528 l 54 534 l 54 590 l 89 619 l 103 611 l 120 611 l 124 624 l 184 619 l 214 601 l 243 619 l 243 800 l 249 819 l 280 836 l 315 830 l 320 824 l 339 824 l 349 805 l 349 783 l 369 771 l 374 771 l 345 711 l 361 662 l 345 624 l 361 607 l 474 607 l 510 611 l 510 619 l 522 607 l 552 607 l 580 581 l 576 541 l 570 534 l 570 522 l 547 511 l 527 517 l 467 517 l 463 514 l 385 514 l 369 499 l 369 469 l 345 455 l 331 444 l 349 391 l 349 336 l 377 305 l 361 293 l 345 275 l 345 261 l 369 250 l 391 250 l 385 244 l 391 240 l 369 185 l 377 167 l 391 153 l 415 153 l 432 227 l 420 240 l 429 270 l 438 270 l 438 219 l 451 209 l 463 209 l 481 240 l 492 240 l 538 293 l 586 281 l 593 281 l 598 250 "},"ù":{"x_min":87,"x_max":758,"ha":766,"o":"m 758 -71 l 758 -89 l 706 -144 l 703 -155 l 680 -170 l 645 -165 l 615 -133 l 610 -97 l 610 -55 l 604 -44 l 595 -36 l 525 -36 l 495 -12 l 404 -24 l 370 -24 l 352 -17 l 291 -17 l 231 -4 l 195 -19 l 118 0 l 87 21 l 87 49 l 106 80 l 143 105 l 143 213 l 152 255 l 143 348 l 143 466 l 95 531 l 100 568 l 115 579 l 170 586 l 172 592 l 280 577 l 303 534 l 324 523 l 324 554 l 343 584 l 476 584 l 516 577 l 527 531 l 547 560 l 580 596 l 669 584 l 703 565 l 716 542 l 716 510 l 664 487 l 655 474 l 655 280 l 649 249 l 649 141 l 664 77 l 706 41 l 716 24 l 716 -19 l 732 -62 l 740 -71 l 758 -71 m 542 388 l 550 428 l 536 446 l 525 449 l 513 446 l 498 432 l 459 416 l 455 401 l 490 348 l 462 308 l 462 190 l 479 161 l 490 161 l 518 166 l 525 176 l 542 260 l 533 305 l 542 330 l 542 388 m 334 227 l 352 269 l 340 352 l 349 382 l 343 432 l 324 469 l 310 469 l 288 463 l 240 425 l 240 382 l 267 352 l 267 342 l 234 298 l 234 242 l 224 213 l 231 176 l 261 131 l 267 105 l 269 105 l 288 97 l 326 116 l 343 172 l 334 227 m 234 104 l 242 104 l 242 110 l 240 113 l 234 104 m 479 86 l 485 86 l 485 105 l 479 105 l 470 97 l 470 86 l 476 80 l 479 86 "},"W":{"x_min":24,"x_max":717.453125,"ha":766,"o":"m 475 752 l 489 752 l 481 715 l 437 715 l 434 711 l 416 711 l 416 715 l 403 727 l 409 744 l 409 752 l 403 758 l 385 758 l 416 776 l 416 770 l 451 764 l 468 764 l 468 758 l 475 752 m 375 715 l 385 702 l 380 642 l 361 624 l 345 649 l 357 680 l 349 698 l 349 711 l 361 715 l 380 732 l 375 729 l 370 744 l 375 744 l 385 722 l 380 722 l 375 715 m 434 610 l 445 601 l 421 601 l 434 610 m 712 758 l 717 764 l 712 741 l 712 722 l 704 722 l 694 711 l 674 727 l 671 727 l 666 722 l 658 666 l 646 619 l 653 571 l 653 541 l 640 499 l 646 491 l 636 480 l 640 461 l 636 461 l 624 430 l 624 377 l 611 365 l 595 269 l 595 185 l 585 185 l 577 158 l 582 152 l 582 136 l 577 136 l 569 129 l 577 123 l 562 94 l 569 58 l 562 58 l 546 8 l 540 8 l 534 2 l 534 -10 l 521 -10 l 517 -14 l 497 -22 l 497 -28 l 489 -28 l 489 -22 l 491 -22 l 497 -14 l 481 -2 l 458 -2 l 445 27 l 434 38 l 430 94 l 430 185 l 434 185 l 437 189 l 437 208 l 432 214 l 432 287 l 399 321 l 416 372 l 416 391 l 403 401 l 392 444 l 399 449 l 399 455 l 385 469 l 380 469 l 370 455 l 370 438 l 349 413 l 349 391 l 357 353 l 349 353 l 345 309 l 331 231 l 340 214 l 340 202 l 328 189 l 331 185 l 340 141 l 349 111 l 345 111 l 340 119 l 330 67 l 330 33 l 315 27 l 285 2 l 221 8 l 195 51 l 195 197 l 172 231 l 178 258 l 178 269 l 172 274 l 154 321 l 166 336 l 163 353 l 163 372 l 154 377 l 143 394 l 149 449 l 149 491 l 154 516 l 143 541 l 154 552 l 149 558 l 137 558 l 143 606 l 149 610 l 120 649 l 120 666 l 113 672 l 120 715 l 120 722 l 113 727 l 102 715 l 65 722 l 49 722 l 53 727 l 24 752 l 24 758 l 60 782 l 102 776 l 113 764 l 124 782 l 132 776 l 149 776 l 143 770 l 178 770 l 184 776 l 184 782 l 227 752 l 227 741 l 232 732 l 239 741 l 221 732 l 163 741 l 154 732 l 163 727 l 154 722 l 154 702 l 178 672 l 172 649 l 166 619 l 172 610 l 192 594 l 184 589 l 198 577 l 198 491 l 214 480 l 214 461 l 227 455 l 227 401 l 239 377 l 252 365 l 274 391 l 268 394 l 281 408 l 281 438 l 290 449 l 290 461 l 281 473 l 297 502 l 315 510 l 331 552 l 328 558 l 331 563 l 345 571 l 345 534 l 340 516 l 340 510 l 370 491 l 399 499 l 421 510 l 437 563 l 497 461 l 497 383 l 511 377 l 506 359 l 506 336 l 511 330 l 517 330 l 527 338 l 527 365 l 540 383 l 534 401 l 534 413 l 527 420 l 546 426 l 562 444 l 557 473 l 557 510 l 577 521 l 577 581 l 585 594 l 569 642 l 593 672 l 617 680 l 628 702 l 606 727 l 577 727 l 577 752 l 582 752 l 582 744 l 585 741 l 593 744 l 666 752 l 671 764 l 687 782 l 694 776 l 712 776 l 704 770 l 704 764 l 712 758 m 239 338 l 243 348 l 239 372 l 239 338 m 232 330 l 243 330 l 243 336 l 232 336 l 232 330 "},"ï":{"x_min":89.328125,"x_max":715.734375,"ha":766,"o":"m 697 67 l 715 38 l 713 5 l 671 -25 l 601 -25 l 579 -17 l 549 -25 l 515 -25 l 503 -30 l 473 -25 l 446 -6 l 412 10 l 389 -28 l 373 -28 l 352 -8 l 264 -17 l 236 -8 l 195 -20 l 143 -20 l 92 30 l 97 59 l 135 83 l 176 83 l 195 112 l 190 141 l 182 165 l 171 176 l 171 188 l 186 208 l 198 277 l 198 342 l 186 402 l 179 417 l 195 444 l 190 505 l 182 513 l 132 505 l 124 500 l 113 500 l 89 541 l 92 575 l 107 584 l 127 579 l 135 575 l 146 575 l 164 586 l 307 586 l 349 596 l 389 579 l 421 587 l 461 587 l 470 593 l 510 579 l 568 584 l 586 591 l 623 575 l 651 587 l 669 587 l 713 550 l 713 529 l 651 438 l 640 408 l 635 360 l 635 297 l 617 272 l 640 208 l 636 178 l 626 149 l 626 123 l 648 85 l 697 67 m 522 216 l 527 272 l 517 290 l 517 372 l 525 411 l 517 417 l 517 436 l 525 447 l 510 486 l 497 502 l 432 494 l 381 511 l 352 493 l 301 493 l 272 388 l 280 355 l 264 272 l 272 249 l 301 208 l 301 188 l 277 149 l 283 141 l 288 102 l 324 83 l 359 77 l 378 59 l 409 38 l 450 73 l 517 91 l 517 133 l 525 149 l 515 194 l 522 216 "},">":{"x_min":190.09375,"x_max":636.640625,"ha":766,"o":"m 255 -25 l 211 7 l 190 64 l 235 85 l 235 128 l 277 124 l 330 149 l 330 184 l 380 196 l 429 216 l 484 274 l 478 321 l 448 338 l 380 391 l 323 409 l 301 459 l 239 465 l 232 490 l 211 536 l 233 596 l 260 610 l 290 610 l 386 560 l 429 532 l 437 501 l 467 485 l 484 457 l 563 405 l 586 405 l 636 335 l 614 268 l 563 221 l 538 164 l 489 160 l 467 117 l 429 74 l 393 64 l 393 32 l 386 27 l 386 10 l 364 3 l 328 10 l 323 -39 l 255 -25 "},"v":{"x_min":9.53125,"x_max":731.890625,"ha":766,"o":"m 723 555 l 731 524 l 702 511 l 677 505 l 655 494 l 601 494 l 585 475 l 577 438 l 561 420 l 561 371 l 540 342 l 540 305 l 518 274 l 525 251 l 518 251 l 512 234 l 495 205 l 484 160 l 467 149 l 471 113 l 478 106 l 478 82 l 458 88 l 454 93 l 440 82 l 449 32 l 435 16 l 399 -20 l 378 -33 l 340 -28 l 336 -20 l 318 -2 l 310 -2 l 300 53 l 293 70 l 276 130 l 272 123 l 263 152 l 253 166 l 253 184 l 246 191 l 240 234 l 217 258 l 221 305 l 204 324 l 204 336 l 212 342 l 187 377 l 170 414 l 170 446 l 144 494 l 133 505 l 115 505 l 103 494 l 63 505 l 35 511 l 27 511 l 9 528 l 21 541 l 16 577 l 44 601 l 73 601 l 87 613 l 98 613 l 98 606 l 111 598 l 300 598 l 323 590 l 340 584 l 348 584 l 352 535 l 300 494 l 272 485 l 258 475 l 263 449 l 307 377 l 310 348 l 348 348 l 352 354 l 364 330 l 352 294 l 370 274 l 378 283 l 370 244 l 352 227 l 378 205 l 406 269 l 399 294 l 394 300 l 406 300 l 419 324 l 419 330 l 412 336 l 419 336 l 424 348 l 435 348 l 458 391 l 467 449 l 478 463 l 478 480 l 458 494 l 449 505 l 440 499 l 394 528 l 399 557 l 449 601 l 471 601 l 484 590 l 487 596 l 487 590 l 512 590 l 538 601 l 547 590 l 695 590 l 721 571 l 721 557 l 723 555 "},"û":{"x_min":33,"x_max":798,"ha":766,"o":"m 798 516 l 798 499 l 790 455 l 779 449 l 741 473 l 722 473 l 687 444 l 687 426 l 695 405 l 687 377 l 675 362 l 681 321 l 681 200 l 675 155 l 687 80 l 699 65 l 716 71 l 730 71 l 749 54 l 782 54 l 782 16 l 771 -8 l 750 -27 l 695 -14 l 625 -14 l 604 -33 l 561 -19 l 545 -8 l 479 -14 l 436 -14 l 412 -22 l 335 -11 l 279 -33 l 235 -22 l 155 -39 l 131 -39 l 113 -32 l 49 -32 l 33 -8 l 33 19 l 106 75 l 123 80 l 142 106 l 150 144 l 134 202 l 134 277 l 125 306 l 142 426 l 136 435 l 113 453 l 71 453 l 36 499 l 36 544 l 49 563 l 70 574 l 119 566 l 150 571 l 240 571 l 270 584 l 340 557 l 400 497 l 387 479 l 327 479 l 289 451 l 254 451 l 240 433 l 245 367 l 254 341 l 279 341 l 316 350 l 340 350 l 365 329 l 412 321 l 485 306 l 504 285 l 504 257 l 536 213 l 545 176 l 545 158 l 531 144 l 545 88 l 553 80 l 577 109 l 591 144 l 591 183 l 599 200 l 591 229 l 585 233 l 591 266 l 577 284 l 561 285 l 559 288 l 559 296 l 580 306 l 595 372 l 588 412 l 556 435 l 553 449 l 545 462 l 504 483 l 506 510 l 504 526 l 504 538 l 542 581 l 585 572 l 664 572 l 670 584 l 722 569 l 758 569 l 798 516 m 387 72 l 436 109 l 436 136 l 415 150 l 407 165 l 425 191 l 425 202 l 422 213 l 389 232 l 358 232 l 332 219 l 297 211 l 270 233 l 259 233 l 243 205 l 259 168 l 235 136 l 235 109 l 245 100 l 259 100 l 281 80 l 358 65 l 387 72 "},"Ò":{"x_min":51.796875,"x_max":673.140625,"ha":766,"o":"m 670 735 l 673 703 l 656 674 l 637 588 l 628 569 l 599 569 l 553 616 l 536 595 l 520 629 l 507 647 l 507 679 l 490 704 l 482 713 l 436 699 l 422 656 l 410 610 l 410 541 l 406 524 l 406 449 l 400 412 l 410 341 l 418 321 l 410 266 l 403 245 l 403 146 l 415 128 l 433 94 l 444 83 l 475 85 l 542 71 l 571 41 l 558 12 l 534 -19 l 457 -10 l 394 -22 l 375 -33 l 358 -33 l 329 -10 l 302 -22 l 239 -28 l 198 -12 l 181 21 l 183 55 l 230 83 l 292 83 l 292 119 l 308 155 l 308 205 l 290 239 l 290 313 l 290 382 l 303 421 l 297 485 l 297 580 l 292 595 l 298 618 l 298 661 l 280 685 l 261 685 l 234 727 l 196 727 l 172 699 l 130 591 l 106 569 l 81 571 l 51 624 l 64 740 l 87 791 l 115 808 l 227 808 l 542 808 l 635 802 l 650 782 l 650 749 l 645 746 l 656 735 l 670 735 "},"&":{"x_min":29.546875,"x_max":776,"ha":766,"o":"m 389 794 l 397 789 l 402 789 l 407 794 l 438 789 l 457 776 l 466 776 l 479 753 l 487 753 l 492 758 l 492 744 l 502 741 l 515 727 l 515 680 l 521 642 l 521 594 l 479 552 l 479 522 l 466 511 l 473 491 l 427 461 l 407 444 l 414 439 l 397 426 l 402 421 l 397 421 l 397 395 l 407 377 l 438 365 l 450 365 l 461 392 l 450 414 l 487 430 l 502 469 l 555 491 l 568 511 l 620 522 l 652 534 l 652 522 l 664 516 l 729 455 l 740 395 l 731 395 l 703 348 l 656 322 l 643 322 l 603 365 l 591 365 l 579 338 l 579 330 l 584 322 l 579 322 l 575 317 l 568 353 l 555 353 l 547 338 l 547 310 l 538 269 l 525 249 l 525 213 l 547 172 l 538 166 l 598 97 l 620 111 l 656 150 l 652 153 l 680 184 l 723 189 l 731 179 l 740 184 l 762 166 l 776 141 l 776 89 l 770 89 l 758 58 l 740 46 l 740 34 l 723 28 l 715 28 l 710 17 l 698 17 l 675 -9 l 656 -22 l 627 -13 l 620 -9 l 603 -22 l 563 -13 l 515 3 l 515 17 l 492 39 l 487 34 l 487 39 l 450 39 l 418 -1 l 386 -9 l 331 -38 l 312 -22 l 310 -27 l 289 -38 l 266 -33 l 255 -22 l 212 -38 l 212 -33 l 190 -22 l 178 -22 l 178 -13 l 149 -1 l 117 28 l 101 34 l 94 34 l 81 68 l 81 95 l 72 107 l 72 123 l 53 153 l 47 153 l 35 166 l 43 172 l 43 179 l 29 189 l 35 213 l 35 232 l 43 232 l 53 280 l 53 287 l 47 293 l 64 305 l 64 310 l 59 317 l 64 317 l 72 322 l 72 338 l 89 348 l 101 365 l 123 383 l 161 392 l 230 461 l 230 502 l 198 563 l 198 662 l 206 662 l 220 698 l 220 727 l 296 783 l 326 794 l 386 794 l 389 799 l 389 794 m 407 680 l 367 691 l 338 698 l 296 666 l 296 649 l 284 637 l 284 632 l 326 552 l 354 545 l 397 577 l 432 610 l 438 655 l 427 671 l 418 666 l 407 680 m 318 293 l 278 300 l 242 353 l 206 317 l 200 322 l 178 293 l 182 287 l 171 275 l 178 269 l 178 258 l 165 227 l 149 219 l 149 208 l 151 202 l 171 197 l 178 129 l 206 97 l 212 107 l 220 107 l 230 95 l 258 95 l 271 81 l 289 81 l 338 111 l 360 141 l 367 136 l 372 197 l 354 240 l 348 240 l 342 258 l 318 293 "},"Ð":{"x_min":51.640625,"x_max":716.28125,"ha":766,"o":"m 694 683 l 716 591 l 705 505 l 678 462 l 670 424 l 670 388 l 675 383 l 670 363 l 618 339 l 555 347 l 524 325 l 492 341 l 460 333 l 438 319 l 378 333 l 360 322 l 351 309 l 337 277 l 337 222 l 351 194 l 351 125 l 360 107 l 406 86 l 438 77 l 456 88 l 495 88 l 516 59 l 531 6 l 509 6 l 454 -25 l 353 -25 l 332 -30 l 291 -22 l 228 -22 l 215 -30 l 188 -21 l 126 -21 l 113 -8 l 78 -4 l 53 24 l 53 59 l 61 69 l 69 79 l 130 79 l 178 92 l 207 110 l 214 128 l 214 222 l 214 330 l 214 359 l 233 401 l 228 523 l 228 712 l 218 727 l 190 722 l 178 712 l 149 717 l 141 722 l 81 722 l 61 738 l 51 755 l 59 786 l 98 815 l 133 827 l 209 817 l 270 817 l 378 817 l 396 824 l 424 816 l 524 816 l 573 786 l 665 773 l 665 717 l 694 683 m 617 552 l 617 591 l 588 672 l 544 685 l 516 722 l 498 722 l 472 717 l 435 722 l 381 722 l 351 727 l 332 717 l 330 703 l 330 613 l 321 555 l 327 536 l 345 513 l 345 459 l 360 441 l 372 441 l 375 443 l 409 443 l 477 443 l 531 452 l 550 472 l 596 499 l 617 552 "},"I":{"x_min":106.203125,"x_max":692.640625,"ha":766,"o":"m 650 97 l 692 51 l 658 -1 l 628 -25 l 579 -25 l 485 -25 l 485 -22 l 401 -22 l 391 -27 l 373 -27 l 362 -13 l 338 -22 l 338 -27 l 321 -27 l 324 -22 l 307 -9 l 261 -22 l 243 -13 l 206 -27 l 193 -22 l 171 -1 l 125 -1 l 118 39 l 106 46 l 113 64 l 113 68 l 164 89 l 193 95 l 214 95 l 261 111 l 283 111 l 295 97 l 302 106 l 313 97 l 321 95 l 332 111 l 324 120 l 332 120 l 338 142 l 338 184 l 332 240 l 338 240 l 338 258 l 332 260 l 343 274 l 343 321 l 350 330 l 350 338 l 338 352 l 350 382 l 343 407 l 343 563 l 354 600 l 343 610 l 350 642 l 354 649 l 343 661 l 343 692 l 290 699 l 279 699 l 266 686 l 272 680 l 253 680 l 253 686 l 193 692 l 154 699 l 129 722 l 129 771 l 135 771 l 141 776 l 176 797 l 272 797 l 266 792 l 338 792 l 354 800 l 420 800 l 461 794 l 472 805 l 510 813 l 526 800 l 560 805 l 645 794 l 645 789 l 658 776 l 650 733 l 628 711 l 609 711 l 560 692 l 549 703 l 544 699 l 532 711 l 504 699 l 504 692 l 490 692 l 472 711 l 444 699 l 438 699 l 438 671 l 450 632 l 444 600 l 438 593 l 450 577 l 444 563 l 444 305 l 461 208 l 456 202 l 461 197 l 482 111 l 516 120 l 532 120 l 532 108 l 586 108 l 650 97 "}}}
